<?xml version="1.0" encoding="utf-8"?>
<!-- Generator: Adobe Illustrator 24.3.0, SVG Export Plug-In . SVG Version: 6.00 Build 0)  -->
<svg version="1.1" id="Layer_1" xmlns="http://www.w3.org/2000/svg" xmlns:xlink="http://www.w3.org/1999/xlink" x="0px" y="0px"
	 viewBox="0 0 200 200" style="enable-background:new 0 0 200 200;" xml:space="preserve">
<style type="text/css">
	.st0{fill:#4CC2C8;}
</style>
<g>
	<path class="st0" d="M141.45,184h-82.9c-12.94,0-23.46-10.53-23.46-23.47V62.22c0-12.94,10.52-23.47,23.46-23.47h11.76
		c2.21,0,4,1.79,4,4v9.88h52.15v-9.89c0-2.21,1.79-4,4-4h10.98c12.95,0,23.48,10.53,23.48,23.48v98.31
		C164.92,173.47,154.39,184,141.45,184z M58.55,46.75c-8.52,0-15.46,6.94-15.46,15.47v98.31c0,8.53,6.94,15.47,15.46,15.47h82.9
		c8.53,0,15.47-6.94,15.47-15.47V62.22c0-8.54-6.94-15.48-15.48-15.48h-6.98v9.89c0,2.21-1.79,4-4,4H70.31c-2.21,0-4-1.79-4-4v-9.88
		H58.55z"/>
	<path class="st0" d="M130.46,60.62H70.31c-2.21,0-4-1.79-4-4V33.11c0-2.21,1.79-4,4-4h60.15c2.21,0,4,1.79,4,4v23.51
		C134.46,58.83,132.67,60.62,130.46,60.62z M74.31,52.62h52.15V37.11H74.31V52.62z"/>
	<path class="st0" d="M114.65,37.11H86.12c-2.21,0-4-1.79-4-4C82.12,23.68,89.8,16,99.23,16h2.31c9.43,0,17.11,7.68,17.11,17.11
		C118.65,35.32,116.86,37.11,114.65,37.11z M91.05,29.11h18.68c-1.48-3.02-4.6-5.11-8.18-5.11h-2.31
		C95.64,24,92.53,26.09,91.05,29.11z"/>
	<path class="st0" d="M64.72,96.1c-1.04,0-2.08-0.4-2.86-1.2l-9.44-9.64c-1.55-1.58-1.52-4.11,0.06-5.66
		c1.58-1.55,4.11-1.52,5.66,0.06l6.66,6.8L80.45,71.3c1.59-1.54,4.12-1.5,5.66,0.09c1.54,1.59,1.5,4.12-0.09,5.66L67.5,94.97
		C66.73,95.73,65.72,96.1,64.72,96.1z"/>
	<path class="st0" d="M144.72,90.89H93.25c-2.21,0-4-1.79-4-4s1.79-4,4-4h51.47c2.21,0,4,1.79,4,4S146.93,90.89,144.72,90.89z"/>
	<path class="st0" d="M64.72,126.93c-1.04,0-2.08-0.4-2.86-1.2l-9.44-9.64c-1.55-1.58-1.52-4.11,0.06-5.66
		c1.58-1.55,4.11-1.52,5.66,0.06l6.66,6.8l15.65-15.15c1.59-1.54,4.12-1.5,5.66,0.09c1.54,1.59,1.5,4.12-0.09,5.66L67.5,125.8
		C66.73,126.56,65.72,126.93,64.72,126.93z"/>
	<path class="st0" d="M144.72,121.73H93.25c-2.21,0-4-1.79-4-4s1.79-4,4-4h51.47c2.21,0,4,1.79,4,4S146.93,121.73,144.72,121.73z"/>
	<path class="st0" d="M64.72,157.77c-1.04,0-2.08-0.4-2.86-1.2l-9.44-9.64c-1.55-1.58-1.52-4.11,0.06-5.66
		c1.58-1.55,4.11-1.52,5.66,0.06l6.66,6.8l15.65-15.16c1.59-1.54,4.12-1.5,5.66,0.09c1.54,1.59,1.5,4.12-0.09,5.66L67.5,156.64
		C66.73,157.39,65.72,157.77,64.72,157.77z"/>
	<path class="st0" d="M144.72,152.56H93.25c-2.21,0-4-1.79-4-4s1.79-4,4-4h51.47c2.21,0,4,1.79,4,4S146.93,152.56,144.72,152.56z"/>
</g>
</svg>
