<?xml version="1.0" encoding="utf-8"?>
<!-- Generator: Adobe Illustrator 24.3.0, SVG Export Plug-In . SVG Version: 6.00 Build 0)  -->
<svg version="1.1" id="Layer_1" xmlns="http://www.w3.org/2000/svg" xmlns:xlink="http://www.w3.org/1999/xlink" x="0px" y="0px"
	 viewBox="0 0 200 200" style="enable-background:new 0 0 200 200;" xml:space="preserve">
<style type="text/css">
	.st0{fill:#173D7A;}
	.st1{opacity:0.2;fill:#173D7A;}
	.st2{fill:#4BC2C8;}
	.st3{fill:#B3FFFD;}
	.st4{fill:#D4ECFF;}
	.st5{fill:#FAFDFF;}
	.st6{fill:#5793CE;}
	.st7{fill:#085B57;}
	.st8{fill:#FFFFFF;}
	.st9{fill:#033D39;}
	.st10{fill:#396CAA;}
	.st11{opacity:0.4;fill:#D4ECFF;}
	.st12{fill:url(#SVGID_1_);}
	.st13{fill:url(#SVGID_2_);}
	.st14{fill:#FF2C9C;}
	.st15{enable-background:new    ;}
	.st16{fill:#727272;}
	.st17{clip-path:url(#SVGID_4_);enable-background:new    ;}
	.st18{clip-path:url(#SVGID_6_);}
	.st19{clip-path:url(#SVGID_8_);fill:#4BC2C8;}
	.st20{clip-path:url(#SVGID_10_);fill:#4BC2C8;}
</style>
<g>
	<path class="st0" d="M101.57,132.67l34.68-19.77c1.27-0.73,1.11-2.01-0.36-2.86l-19.95-11.52c-1.46-0.85-3.68-0.94-4.95-0.21
		l-34.68,19.77c-1.27,0.73-1.11,2.01,0.36,2.86l19.95,11.52C98.08,133.31,100.3,133.4,101.57,132.67z"/>
	<path class="st1" d="M45.91,164.71l34.68-19.77c1.27-0.73,1.11-2.01-0.36-2.86l-19.95-11.52c-1.46-0.85-3.68-0.94-4.95-0.21
		l-34.68,19.77c-1.27,0.73-1.11,2.01,0.36,2.86l19.95,11.52C42.42,165.35,44.64,165.44,45.91,164.71z"/>
	<path class="st1" d="M144.67,157.46l34.68-19.77c1.27-0.73,1.11-2.01-0.36-2.86l-19.95-11.52c-1.46-0.85-3.68-0.94-4.95-0.21
		l-34.68,19.77c-1.27,0.73-1.11,2.01,0.36,2.86l19.95,11.52C141.19,158.1,143.4,158.2,144.67,157.46z"/>
	<path class="st1" d="M89.01,189.51l34.68-19.77c1.27-0.73,1.11-2.01-0.36-2.86l-19.95-11.52c-1.46-0.85-3.68-0.94-4.95-0.21
		l-34.68,19.77c-1.27,0.73-1.11,2.01,0.36,2.86l19.95,11.52C85.53,190.15,87.74,190.24,89.01,189.51z"/>
	<g>
		<g>
			<g>
				<path class="st2" d="M75.46,108.44L75.46,108.44V32.97l30-7.85l5.53-3.19c1.27-0.73,3.48-0.64,4.95,0.21l5.16,2.98l16-0.01
					l-4.74,72.86c0.04,0.5-0.24,0.97-0.85,1.33l-29.94,22.59c-1.27,0.73-3.48,0.64-4.95-0.21l-19.95-11.52
					C75.82,109.66,75.41,109.03,75.46,108.44z"/>
				<path class="st2" d="M113.28,21.44c0.93,0.02,1.89,0.26,2.65,0.7l5.16,2.98l16-0.01v75.67c0.04,0.5-0.24,0.97-0.85,1.33
					l-34.68,19.77c-0.61,0.35-1.44,0.51-2.3,0.49l-0.36-76.15L113.28,21.44z"/>
				<path class="st3" d="M101.25,122.03c-1.09,0.47-2.68,0.44-3.96-0.05V45.32h3.96V122.03z"/>
				<path class="st4" d="M101.57,46.23l34.68-19.77c1.27-0.73,1.11-2.01-0.36-2.86l-19.95-11.52c-1.46-0.85-3.68-0.94-4.95-0.21
					L76.31,31.65c-1.27,0.73-1.11,2.01,0.36,2.86l19.95,11.52C98.08,46.87,100.3,46.96,101.57,46.23z"/>
				<path class="st5" d="M76.66,33.1l19.95,11.52c1.46,0.85,3.68,0.94,4.95,0.21l34.68-19.77c0.28-0.16,0.49-0.35,0.63-0.56
					c0.44,0.7,0.24,1.46-0.63,1.96l-34.68,19.77c-1.27,0.73-3.48,0.64-4.95-0.21L76.66,34.5c-1.14-0.66-1.48-1.57-0.99-2.3
					C75.87,32.53,76.2,32.83,76.66,33.1z"/>
				<g>
					<path class="st0" d="M100.58,38.21l23.09-13.38c0.59-0.34,0.52-0.94-0.17-1.34l-9.34-5.39c-0.69-0.4-1.72-0.44-2.32-0.1
						L88.77,31.39c-0.59,0.34-0.52,0.94,0.17,1.34l9.34,5.39C98.95,38.51,99.99,38.56,100.58,38.21z"/>
					<g>
						<path class="st4" d="M113.05,25.43l1.34-0.77c0.08-0.05,0.07-0.13-0.02-0.18l-1.29-0.75c-0.09-0.05-0.24-0.06-0.32-0.01
							l-1.34,0.77c-0.08,0.05-0.07,0.13,0.02,0.18l1.29,0.75C112.82,25.47,112.97,25.48,113.05,25.43z"/>
						<path class="st4" d="M108.58,28l1.34-0.77c0.08-0.05,0.07-0.13-0.02-0.18l-1.29-0.75c-0.09-0.05-0.24-0.06-0.32-0.01
							l-1.34,0.77c-0.08,0.05-0.07,0.13,0.02,0.18l1.29,0.75C108.35,28.04,108.5,28.05,108.58,28z"/>
						<path class="st4" d="M104.11,30.57l1.34-0.77c0.08-0.05,0.07-0.13-0.02-0.18l-1.29-0.75c-0.09-0.05-0.24-0.06-0.32-0.01
							l-1.34,0.77c-0.08,0.05-0.07,0.13,0.02,0.18l1.29,0.75C103.88,30.61,104.03,30.62,104.11,30.57z"/>
						<path class="st4" d="M99.64,33.14l1.34-0.77c0.08-0.05,0.07-0.13-0.02-0.18l-1.29-0.75c-0.09-0.05-0.24-0.06-0.32-0.01
							l-1.34,0.77c-0.08,0.05-0.07,0.13,0.02,0.18l1.29,0.75C99.41,33.18,99.56,33.19,99.64,33.14z"/>
					</g>
					<path class="st6" d="M123.67,24.83l-0.03,0.02c-0.05-0.03-0.09-0.07-0.14-0.1l-9.34-5.39c-0.69-0.4-1.72-0.44-2.32-0.1
						L88.79,32.63c-0.55-0.39-0.58-0.92-0.03-1.24l23.09-13.38c0.59-0.34,1.63-0.3,2.32,0.1l9.34,5.39
						C124.19,23.89,124.27,24.49,123.67,24.83z"/>
				</g>
			</g>
			<g>
				<path class="st7" d="M92.72,61.18l-13.13-7.52c-0.74-0.43-1.34-1.57-1.34-2.56v-4.69c0-0.98,0.6-1.44,1.34-1.01l13.13,7.52
					c0.74,0.43,1.34,1.57,1.34,2.56v4.69C94.06,61.15,93.46,61.61,92.72,61.18z"/>
				<path class="st8" d="M78.94,45.26c-0.21,0.19-0.34,0.53-0.34,0.98v4.69c0,0.98,0.6,2.13,1.34,2.56L93.07,61
					c0.24,0.14,0.46,0.17,0.65,0.14c-0.25,0.23-0.6,0.27-1,0.03l-13.13-7.52c-0.74-0.43-1.34-1.57-1.34-2.56v-4.69
					C78.26,45.74,78.54,45.33,78.94,45.26z"/>
				<g>
					<path class="st9" d="M88.77,56.08l-1.2-0.7c-0.16-0.09-0.29-0.34-0.29-0.56v-1.29c0-0.21,0.13-0.31,0.29-0.22l1.2,0.7
						c0.16,0.09,0.29,0.34,0.29,0.56v1.29C89.06,56.07,88.93,56.17,88.77,56.08z"/>
					<path class="st8" d="M84.75,53.76l-1.2-0.7c-0.16-0.09-0.29-0.34-0.29-0.56v-1.29c0-0.21,0.13-0.31,0.29-0.22l1.2,0.7
						c0.16,0.09,0.29,0.34,0.29,0.56v1.29C85.04,53.75,84.91,53.85,84.75,53.76z"/>
				</g>
			</g>
			<g>
				<path class="st0" d="M92.72,95.1l-13.13-7.52c-0.74-0.43-1.34-1.57-1.34-2.56v-4.69c0-0.98,0.6-1.44,1.34-1.01l13.13,7.52
					c0.74,0.43,1.34,1.57,1.34,2.56v4.69C94.06,95.08,93.46,95.53,92.72,95.1z"/>
				<path class="st8" d="M78.94,79.18c-0.21,0.19-0.34,0.53-0.34,0.98v4.69c0,0.98,0.6,2.13,1.34,2.56l13.13,7.52
					c0.24,0.14,0.46,0.17,0.65,0.14c-0.25,0.23-0.6,0.27-1,0.03l-13.13-7.52c-0.74-0.43-1.34-1.57-1.34-2.56v-4.69
					C78.26,79.67,78.54,79.25,78.94,79.18z"/>
				<g>
					<path class="st10" d="M88.77,90l-1.2-0.7c-0.16-0.09-0.29-0.34-0.29-0.56v-1.29c0-0.21,0.13-0.31,0.29-0.22l1.2,0.7
						c0.16,0.09,0.29,0.34,0.29,0.56v1.29C89.06,90,88.93,90.1,88.77,90z"/>
					<path class="st8" d="M84.75,87.68l-1.2-0.7c-0.16-0.09-0.29-0.34-0.29-0.56v-1.29c0-0.21,0.13-0.31,0.29-0.22l1.2,0.7
						c0.16,0.09,0.29,0.34,0.29,0.56v1.29C85.04,87.67,84.91,87.77,84.75,87.68z"/>
				</g>
			</g>
			<g>
				<path class="st0" d="M92.72,112.07l-13.13-7.52c-0.74-0.43-1.34-1.57-1.34-2.56V97.3c0-0.98,0.6-1.44,1.34-1.01l13.13,7.52
					c0.74,0.43,1.34,1.57,1.34,2.56v4.69C94.06,112.04,93.46,112.49,92.72,112.07z"/>
				<path class="st8" d="M78.94,96.15c-0.21,0.19-0.34,0.53-0.34,0.98v4.69c0,0.98,0.6,2.13,1.34,2.56l13.13,7.52
					c0.24,0.14,0.46,0.17,0.65,0.14c-0.25,0.23-0.6,0.27-1,0.03l-13.13-7.52c-0.74-0.43-1.34-1.57-1.34-2.56V97.3
					C78.26,96.63,78.54,96.22,78.94,96.15z"/>
				<g>
					<path class="st10" d="M88.77,106.97l-1.2-0.7c-0.16-0.09-0.29-0.34-0.29-0.56v-1.29c0-0.21,0.13-0.31,0.29-0.22l1.2,0.7
						c0.16,0.09,0.29,0.34,0.29,0.56v1.29C89.06,106.96,88.93,107.06,88.77,106.97z"/>
					<path class="st8" d="M84.75,104.64l-1.2-0.7c-0.16-0.09-0.29-0.34-0.29-0.56v-1.29c0-0.21,0.13-0.31,0.29-0.22l1.2,0.7
						c0.16,0.09,0.29,0.34,0.29,0.56v1.29C85.04,104.64,84.91,104.73,84.75,104.64z"/>
				</g>
			</g>
			<g>
				<path class="st7" d="M92.72,78.14l-13.13-7.52c-0.74-0.43-1.34-1.57-1.34-2.56v-4.69c0-0.98,0.6-1.44,1.34-1.01l13.13,7.52
					c0.74,0.43,1.34,1.57,1.34,2.56v4.69C94.06,78.12,93.46,78.57,92.72,78.14z"/>
				<path class="st8" d="M78.94,62.22c-0.21,0.19-0.34,0.53-0.34,0.98v4.69c0,0.98,0.6,2.13,1.34,2.56l13.13,7.52
					c0.24,0.14,0.46,0.17,0.65,0.14c-0.25,0.23-0.6,0.27-1,0.03l-13.13-7.52c-0.74-0.43-1.34-1.57-1.34-2.56v-4.69
					C78.26,62.71,78.54,62.29,78.94,62.22z"/>
				<g>
					<path class="st9" d="M88.77,73.04l-1.2-0.7c-0.16-0.09-0.29-0.34-0.29-0.56V70.5c0-0.21,0.13-0.31,0.29-0.22l1.2,0.7
						c0.16,0.09,0.29,0.34,0.29,0.56v1.29C89.06,73.04,88.93,73.14,88.77,73.04z"/>
					<path class="st8" d="M84.75,70.72l-1.2-0.7c-0.16-0.09-0.29-0.34-0.29-0.56v-1.29c0-0.21,0.13-0.31,0.29-0.22l1.2,0.7
						c0.16,0.09,0.29,0.34,0.29,0.56v1.29C85.04,70.71,84.91,70.81,84.75,70.72z"/>
				</g>
			</g>
		</g>
		<g>
			<path class="st7" d="M104.09,56.37l30.29-17.49c0.68-0.39,1.23-1.44,1.23-2.35v-5.78c0-0.9-0.55-1.32-1.23-0.93l-30.29,17.49
				c-0.68,0.39-1.23,1.44-1.23,2.35v5.78C102.86,56.35,103.41,56.77,104.09,56.37z"/>
			<path class="st11" d="M104.96,54.35l28.55-16.48c0.34-0.2,0.62-0.73,0.62-1.19v-4.34c0-0.46-0.28-0.67-0.62-0.47l-28.55,16.48
				c-0.34,0.2-0.62,0.73-0.62,1.19v4.34C104.34,54.34,104.62,54.55,104.96,54.35z"/>
			<path class="st4" d="M127.56,39.11l4.26-2.46c0.33-0.19,0.6-0.71,0.6-1.16l0,0c0-0.45-0.27-0.65-0.6-0.46l-4.26,2.46
				c-0.33,0.19-0.6,0.71-0.6,1.16l0,0C126.96,39.1,127.23,39.3,127.56,39.11z"/>
			<path class="st9" d="M123.93,40.4c0,0.45,0.31,0.63,0.7,0.4c0.39-0.22,0.7-0.76,0.7-1.21c0-0.45-0.31-0.63-0.7-0.4
				C124.24,39.41,123.93,39.95,123.93,40.4z"/>
			<path class="st9" d="M121.47,41.82c0,0.45,0.31,0.63,0.7,0.4c0.39-0.22,0.7-0.76,0.7-1.21c0-0.45-0.31-0.63-0.7-0.4
				C121.78,40.83,121.47,41.37,121.47,41.82z"/>
			<path class="st4" d="M119,43.24c0,0.45,0.31,0.63,0.7,0.4c0.39-0.22,0.7-0.76,0.7-1.21c0-0.45-0.31-0.63-0.7-0.4
				S119,42.8,119,43.24z"/>
			<path class="st9" d="M116.54,44.66c0,0.45,0.31,0.63,0.7,0.4c0.39-0.22,0.7-0.76,0.7-1.21c0-0.45-0.31-0.63-0.7-0.4
				C116.85,43.68,116.54,44.22,116.54,44.66z"/>
			<path class="st9" d="M106.16,51.93l1.44-0.83c0.21-0.12,0.39-0.46,0.39-0.74v-1.52c0-0.29-0.17-0.42-0.39-0.29l-1.44,0.83
				c-0.21,0.12-0.39,0.46-0.39,0.74v1.52C105.77,51.92,105.95,52.06,106.16,51.93z"/>
		</g>
		<g>
			<path class="st7" d="M104.09,66.56l30.29-17.49c0.68-0.39,1.23-1.44,1.23-2.35v-5.78c0-0.9-0.55-1.32-1.23-0.93l-30.29,17.49
				c-0.68,0.39-1.23,1.44-1.23,2.35v5.78C102.86,66.53,103.41,66.95,104.09,66.56z"/>
			<path class="st11" d="M104.96,64.53l28.55-16.48c0.34-0.2,0.62-0.73,0.62-1.19v-4.34c0-0.46-0.28-0.67-0.62-0.47l-28.55,16.48
				c-0.34,0.2-0.62,0.73-0.62,1.19v4.34C104.34,64.52,104.62,64.73,104.96,64.53z"/>
			<path class="st4" d="M127.56,49.29l4.26-2.46c0.33-0.19,0.6-0.71,0.6-1.16l0,0c0-0.45-0.27-0.65-0.6-0.46l-4.26,2.46
				c-0.33,0.19-0.6,0.71-0.6,1.16l0,0C126.96,49.28,127.23,49.48,127.56,49.29z"/>
			<path class="st8" d="M123.93,50.58c0,0.45,0.31,0.63,0.7,0.4c0.39-0.22,0.7-0.76,0.7-1.21c0-0.45-0.31-0.63-0.7-0.4
				C124.24,49.59,123.93,50.14,123.93,50.58z"/>
			<path class="st9" d="M121.47,52c0,0.45,0.31,0.63,0.7,0.4c0.39-0.22,0.7-0.76,0.7-1.21c0-0.45-0.31-0.63-0.7-0.4
				C121.78,51.02,121.47,51.56,121.47,52z"/>
			<path class="st4" d="M119,53.43c0,0.45,0.31,0.63,0.7,0.4s0.7-0.76,0.7-1.21c0-0.45-0.31-0.63-0.7-0.4S119,52.98,119,53.43z"/>
			<path class="st9" d="M116.54,54.85c0,0.45,0.31,0.63,0.7,0.4c0.39-0.22,0.7-0.76,0.7-1.21c0-0.45-0.31-0.63-0.7-0.4
				C116.85,53.86,116.54,54.4,116.54,54.85z"/>
			<path class="st9" d="M106.16,62.12l1.44-0.83c0.21-0.12,0.39-0.46,0.39-0.74v-1.52c0-0.29-0.17-0.42-0.39-0.29l-1.44,0.83
				c-0.21,0.12-0.39,0.46-0.39,0.74v1.52C105.77,62.11,105.95,62.24,106.16,62.12z"/>
		</g>
		<g>
			<path class="st7" d="M104.09,76.74l30.29-17.49c0.68-0.39,1.23-1.44,1.23-2.35v-5.78c0-0.9-0.55-1.32-1.23-0.93l-30.29,17.49
				c-0.68,0.39-1.23,1.44-1.23,2.35v5.78C102.86,76.72,103.41,77.13,104.09,76.74z"/>
			<path class="st11" d="M104.96,74.72l28.55-16.48c0.34-0.2,0.62-0.73,0.62-1.19V52.7c0-0.46-0.28-0.67-0.62-0.47l-28.55,16.48
				c-0.34,0.2-0.62,0.73-0.62,1.19v4.34C104.34,74.71,104.62,74.92,104.96,74.72z"/>
			<path class="st4" d="M127.56,59.48l4.26-2.46c0.33-0.19,0.6-0.71,0.6-1.16l0,0c0-0.45-0.27-0.65-0.6-0.46l-4.26,2.46
				c-0.33,0.19-0.6,0.71-0.6,1.16l0,0C126.96,59.46,127.23,59.67,127.56,59.48z"/>
			<path class="st8" d="M123.93,60.76c0,0.45,0.31,0.63,0.7,0.4c0.39-0.22,0.7-0.76,0.7-1.21c0-0.45-0.31-0.63-0.7-0.4
				C124.24,59.78,123.93,60.32,123.93,60.76z"/>
			<path class="st0" d="M121.47,62.19c0,0.45,0.31,0.63,0.7,0.4c0.39-0.22,0.7-0.76,0.7-1.21c0-0.45-0.31-0.63-0.7-0.4
				C121.78,61.2,121.47,61.74,121.47,62.19z"/>
			<path class="st4" d="M119,63.61c0,0.45,0.31,0.63,0.7,0.4c0.39-0.22,0.7-0.76,0.7-1.21c0-0.45-0.31-0.63-0.7-0.4
				C119.32,62.62,119,63.16,119,63.61z"/>
			<path class="st9" d="M116.54,65.03c0,0.45,0.31,0.63,0.7,0.4c0.39-0.22,0.7-0.76,0.7-1.21c0-0.45-0.31-0.63-0.7-0.4
				C116.85,64.04,116.54,64.59,116.54,65.03z"/>
			<path class="st9" d="M106.16,72.3l1.44-0.83c0.21-0.12,0.39-0.46,0.39-0.74v-1.52c0-0.29-0.17-0.42-0.39-0.29l-1.44,0.83
				c-0.21,0.12-0.39,0.46-0.39,0.74v1.52C105.77,72.29,105.95,72.42,106.16,72.3z"/>
		</g>
		<g>
			<path class="st7" d="M104.09,86.93l30.29-17.49c0.68-0.39,1.23-1.44,1.23-2.35v-5.78c0-0.9-0.55-1.32-1.23-0.93l-30.29,17.49
				c-0.68,0.39-1.23,1.44-1.23,2.35V86C102.86,86.9,103.41,87.32,104.09,86.93z"/>
			<path class="st11" d="M104.96,84.9l28.55-16.48c0.34-0.2,0.62-0.73,0.62-1.19v-4.34c0-0.46-0.28-0.67-0.62-0.47L104.96,78.9
				c-0.34,0.2-0.62,0.73-0.62,1.19v4.34C104.34,84.89,104.62,85.1,104.96,84.9z"/>
			<path class="st4" d="M127.56,69.66l4.26-2.46c0.33-0.19,0.6-0.71,0.6-1.16l0,0c0-0.45-0.27-0.65-0.6-0.46l-4.26,2.46
				c-0.33,0.19-0.6,0.71-0.6,1.16l0,0C126.96,69.65,127.23,69.85,127.56,69.66z"/>
			<path class="st0" d="M123.93,70.95c0,0.45,0.31,0.63,0.7,0.4c0.39-0.22,0.7-0.76,0.7-1.21c0-0.45-0.31-0.63-0.7-0.4
				C124.24,69.96,123.93,70.5,123.93,70.95z"/>
			<path class="st0" d="M121.47,72.37c0,0.45,0.31,0.63,0.7,0.4c0.39-0.22,0.7-0.76,0.7-1.21c0-0.45-0.31-0.63-0.7-0.4
				C121.78,71.38,121.47,71.93,121.47,72.37z"/>
			<path class="st4" d="M119,73.79c0,0.45,0.31,0.63,0.7,0.4c0.39-0.22,0.7-0.76,0.7-1.21c0-0.45-0.31-0.63-0.7-0.4
				C119.32,72.81,119,73.35,119,73.79z"/>
			<path class="st9" d="M116.54,75.22c0,0.45,0.31,0.63,0.7,0.4c0.39-0.22,0.7-0.76,0.7-1.21c0-0.45-0.31-0.63-0.7-0.4
				C116.85,74.23,116.54,74.77,116.54,75.22z"/>
			<path class="st4" d="M106.16,82.48l1.44-0.83c0.21-0.12,0.39-0.46,0.39-0.74V79.4c0-0.29-0.17-0.42-0.39-0.29l-1.44,0.83
				c-0.21,0.12-0.39,0.46-0.39,0.74v1.52C105.77,82.48,105.95,82.61,106.16,82.48z"/>
		</g>
		<g>
			<path class="st6" d="M104.09,97.11l30.29-17.49c0.68-0.39,1.23-1.44,1.23-2.35V71.5c0-0.9-0.55-1.32-1.23-0.93l-30.29,17.49
				c-0.68,0.39-1.23,1.44-1.23,2.35v5.78C102.86,97.09,103.41,97.5,104.09,97.11z"/>
			<path class="st11" d="M104.96,95.09l28.55-16.48c0.34-0.2,0.62-0.73,0.62-1.19v-4.34c0-0.46-0.28-0.67-0.62-0.47l-28.55,16.48
				c-0.34,0.2-0.62,0.73-0.62,1.19v4.34C104.34,95.07,104.62,95.28,104.96,95.09z"/>
			<path class="st4" d="M127.56,79.84l4.26-2.46c0.33-0.19,0.6-0.71,0.6-1.16l0,0c0-0.45-0.27-0.65-0.6-0.46l-4.26,2.46
				c-0.33,0.19-0.6,0.71-0.6,1.16l0,0C126.96,79.83,127.23,80.04,127.56,79.84z"/>
			<path class="st0" d="M123.93,81.13c0,0.45,0.31,0.63,0.7,0.4c0.39-0.22,0.7-0.76,0.7-1.21c0-0.45-0.31-0.63-0.7-0.4
				C124.24,80.15,123.93,80.69,123.93,81.13z"/>
			<path class="st8" d="M121.47,82.56c0,0.45,0.31,0.63,0.7,0.4c0.39-0.22,0.7-0.76,0.7-1.21c0-0.45-0.31-0.63-0.7-0.4
				C121.78,81.57,121.47,82.11,121.47,82.56z"/>
			<path class="st4" d="M119,83.98c0,0.45,0.31,0.63,0.7,0.4c0.39-0.22,0.7-0.76,0.7-1.21c0-0.45-0.31-0.63-0.7-0.4
				C119.32,82.99,119,83.53,119,83.98z"/>
			<path class="st8" d="M116.54,85.4c0,0.45,0.31,0.63,0.7,0.4c0.39-0.22,0.7-0.76,0.7-1.21c0-0.45-0.31-0.63-0.7-0.4
				C116.85,84.41,116.54,84.95,116.54,85.4z"/>
			<path class="st4" d="M106.16,92.67l1.44-0.83c0.21-0.12,0.39-0.46,0.39-0.74v-1.52c0-0.29-0.17-0.42-0.39-0.29l-1.44,0.83
				c-0.21,0.12-0.39,0.46-0.39,0.74v1.52C105.77,92.66,105.95,92.79,106.16,92.67z"/>
		</g>
		<g>
			<path class="st6" d="M104.09,107.29l30.29-17.49c0.68-0.39,1.23-1.44,1.23-2.35v-5.78c0-0.9-0.55-1.32-1.23-0.93l-30.29,17.49
				c-0.68,0.39-1.23,1.44-1.23,2.35v5.78C102.86,107.27,103.41,107.69,104.09,107.29z"/>
			<path class="st11" d="M104.96,105.27l28.55-16.48c0.34-0.2,0.62-0.73,0.62-1.19v-4.34c0-0.46-0.28-0.67-0.62-0.47l-28.55,16.48
				c-0.34,0.2-0.62,0.73-0.62,1.19v4.34C104.34,105.26,104.62,105.47,104.96,105.27z"/>
			<path class="st4" d="M127.56,90.03l4.26-2.46c0.33-0.19,0.6-0.71,0.6-1.16l0,0c0-0.45-0.27-0.65-0.6-0.46l-4.26,2.46
				c-0.33,0.19-0.6,0.71-0.6,1.16v0C126.96,90.02,127.23,90.22,127.56,90.03z"/>
			<path class="st0" d="M123.93,91.32c0,0.45,0.31,0.63,0.7,0.4c0.39-0.22,0.7-0.76,0.7-1.21c0-0.45-0.31-0.63-0.7-0.4
				C124.24,90.33,123.93,90.87,123.93,91.32z"/>
			<path class="st0" d="M121.47,92.74c0,0.45,0.31,0.63,0.7,0.4c0.39-0.22,0.7-0.76,0.7-1.21c0-0.45-0.31-0.63-0.7-0.4
				C121.78,91.75,121.47,92.29,121.47,92.74z"/>
			<path class="st4" d="M119,94.16c0,0.45,0.31,0.63,0.7,0.4c0.39-0.22,0.7-0.76,0.7-1.21c0-0.45-0.31-0.63-0.7-0.4
				C119.32,93.17,119,93.72,119,94.16z"/>
			<path class="st0" d="M116.54,95.58c0,0.45,0.31,0.63,0.7,0.4c0.39-0.22,0.7-0.76,0.7-1.21c0-0.45-0.31-0.63-0.7-0.4
				C116.85,94.6,116.54,95.14,116.54,95.58z"/>
			<path class="st0" d="M106.16,102.85l1.44-0.83c0.21-0.12,0.39-0.46,0.39-0.74v-1.52c0-0.29-0.17-0.42-0.39-0.29l-1.44,0.83
				c-0.21,0.12-0.39,0.46-0.39,0.74v1.52C105.77,102.84,105.95,102.98,106.16,102.85z"/>
		</g>
		<g>
			<path class="st6" d="M104.09,117.48l30.29-17.49c0.68-0.39,1.23-1.44,1.23-2.35v-5.78c0-0.9-0.55-1.32-1.23-0.93l-30.29,17.49
				c-0.68,0.39-1.23,1.44-1.23,2.35v5.78C102.86,117.45,103.41,117.87,104.09,117.48z"/>
			<path class="st11" d="M104.96,115.45l28.55-16.48c0.34-0.2,0.62-0.73,0.62-1.19v-4.34c0-0.46-0.28-0.67-0.62-0.47l-28.55,16.48
				c-0.34,0.2-0.62,0.73-0.62,1.19v4.34C104.34,115.44,104.62,115.65,104.96,115.45z"/>
			<path class="st4" d="M127.56,100.21l4.26-2.46c0.33-0.19,0.6-0.71,0.6-1.16l0,0c0-0.45-0.27-0.65-0.6-0.46l-4.26,2.46
				c-0.33,0.19-0.6,0.71-0.6,1.16l0,0C126.96,100.2,127.23,100.4,127.56,100.21z"/>
			<path class="st8" d="M123.15,102.05c0,0.84,0.59,1.18,1.32,0.76c0.73-0.42,1.32-1.44,1.32-2.28c0-0.84-0.59-1.18-1.32-0.76
				C123.74,100.19,123.15,101.21,123.15,102.05z"/>
			<path class="st0" d="M118.05,105.04c0,0.45,0.31,0.63,0.7,0.4c0.39-0.22,0.7-0.76,0.7-1.21c0-0.45-0.31-0.63-0.7-0.4
				C118.36,104.05,118.05,104.59,118.05,105.04z"/>
			<path class="st4" d="M115.59,106.46c0,0.45,0.31,0.63,0.7,0.4c0.39-0.22,0.7-0.76,0.7-1.21s-0.31-0.63-0.7-0.4
				C115.9,105.47,115.59,106.01,115.59,106.46z"/>
			<path class="st0" d="M113.12,107.88c0,0.45,0.31,0.63,0.7,0.4c0.39-0.22,0.7-0.76,0.7-1.21c0-0.45-0.31-0.63-0.7-0.4
				C113.43,106.9,113.12,107.44,113.12,107.88z"/>
			<path class="st4" d="M106.16,113.04l1.44-0.83c0.21-0.12,0.39-0.46,0.39-0.74v-1.52c0-0.29-0.17-0.42-0.39-0.29l-1.44,0.83
				c-0.21,0.12-0.39,0.46-0.39,0.74v1.52C105.77,113.03,105.95,113.16,106.16,113.04z"/>
		</g>
	</g>
	<g>
		<g>
			<g>
				<path class="st2" d="M19.8,140.48L19.8,140.48V65.01l30-7.85l5.53-3.19c1.27-0.73,3.48-0.64,4.95,0.21l5.16,2.98l16-0.01
					L76.7,130c0.04,0.5-0.24,0.97-0.85,1.33l-29.94,22.59c-1.27,0.73-3.48,0.64-4.95-0.21l-19.95-11.52
					C20.16,141.7,19.75,141.07,19.8,140.48z"/>
				<path class="st2" d="M57.63,53.48c0.93,0.02,1.89,0.26,2.65,0.7l5.16,2.98l16-0.01v75.67c0.04,0.5-0.24,0.97-0.85,1.33
					l-34.68,19.77c-0.61,0.35-1.44,0.51-2.3,0.49l-0.36-76.15L57.63,53.48z"/>
				<path class="st3" d="M45.59,154.07c-1.09,0.47-2.68,0.44-3.96-0.05V77.36h3.96V154.07z"/>
				<path class="st4" d="M45.91,78.27l34.68-19.77c1.27-0.73,1.11-2.01-0.36-2.86L60.28,44.12c-1.46-0.85-3.68-0.94-4.95-0.21
					L20.65,63.69c-1.27,0.73-1.11,2.01,0.36,2.86l19.95,11.52C42.42,78.91,44.64,79,45.91,78.27z"/>
				<path class="st5" d="M21.01,65.14l19.95,11.52c1.46,0.85,3.68,0.94,4.95,0.21l34.68-19.77c0.28-0.16,0.49-0.35,0.63-0.56
					c0.44,0.7,0.24,1.46-0.63,1.96L45.91,78.27c-1.27,0.73-3.48,0.64-4.95-0.21L21.01,66.54c-1.14-0.66-1.48-1.57-0.99-2.3
					C20.22,64.57,20.55,64.87,21.01,65.14z"/>
				<g>
					<path class="st0" d="M44.93,70.25l23.09-13.38c0.59-0.34,0.52-0.94-0.17-1.34l-9.34-5.39c-0.69-0.4-1.72-0.44-2.32-0.1
						L33.11,63.43c-0.59,0.34-0.52,0.94,0.17,1.34l9.34,5.39C43.3,70.55,44.33,70.6,44.93,70.25z"/>
					<g>
						<path class="st4" d="M57.39,57.47l1.34-0.77c0.08-0.05,0.07-0.13-0.02-0.18l-1.29-0.75c-0.09-0.05-0.24-0.06-0.32-0.01
							l-1.34,0.77c-0.08,0.05-0.07,0.13,0.02,0.18l1.29,0.75C57.17,57.51,57.31,57.52,57.39,57.47z"/>
						<path class="st4" d="M52.92,60.04l1.34-0.77c0.08-0.05,0.07-0.13-0.02-0.18l-1.29-0.75c-0.09-0.05-0.24-0.06-0.32-0.01
							l-1.34,0.77c-0.08,0.05-0.07,0.13,0.02,0.18l1.29,0.75C52.7,60.08,52.84,60.09,52.92,60.04z"/>
						<path class="st4" d="M48.45,62.61l1.34-0.77c0.08-0.05,0.07-0.13-0.02-0.18l-1.29-0.75c-0.09-0.05-0.24-0.06-0.32-0.01
							l-1.34,0.77c-0.08,0.05-0.07,0.13,0.02,0.18l1.29,0.75C48.23,62.65,48.37,62.66,48.45,62.61z"/>
						<path class="st4" d="M43.98,65.18l1.34-0.77c0.08-0.05,0.07-0.13-0.02-0.18l-1.29-0.75c-0.09-0.05-0.24-0.06-0.32-0.01
							l-1.34,0.77c-0.08,0.05-0.07,0.13,0.02,0.18l1.29,0.75C43.76,65.22,43.9,65.23,43.98,65.18z"/>
					</g>
					<path class="st6" d="M68.02,56.87l-0.03,0.02c-0.05-0.03-0.09-0.07-0.14-0.1l-9.34-5.39c-0.69-0.4-1.72-0.44-2.32-0.1
						L33.13,64.67c-0.55-0.39-0.58-0.92-0.03-1.24L56.2,50.05c0.59-0.34,1.63-0.3,2.32,0.1l9.34,5.39
						C68.53,55.93,68.61,56.53,68.02,56.87z"/>
				</g>
			</g>
			<g>
				<path class="st7" d="M37.06,93.22L23.94,85.7c-0.74-0.43-1.34-1.57-1.34-2.56v-4.69c0-0.98,0.6-1.44,1.34-1.01l13.13,7.52
					c0.74,0.43,1.34,1.57,1.34,2.56v4.69C38.4,93.19,37.8,93.65,37.06,93.22z"/>
				<path class="st8" d="M23.29,77.3c-0.21,0.19-0.34,0.53-0.34,0.98v4.69c0,0.98,0.6,2.13,1.34,2.56l13.13,7.52
					c0.24,0.14,0.46,0.17,0.65,0.14c-0.25,0.23-0.6,0.27-1,0.03L23.94,85.7c-0.74-0.43-1.34-1.57-1.34-2.56v-4.69
					C22.6,77.79,22.88,77.37,23.29,77.3z"/>
				<g>
					<path class="st9" d="M33.11,88.12l-1.2-0.7c-0.16-0.09-0.29-0.34-0.29-0.56v-1.29c0-0.21,0.13-0.31,0.29-0.22l1.2,0.7
						c0.16,0.09,0.29,0.34,0.29,0.56v1.29C33.41,88.12,33.28,88.21,33.11,88.12z"/>
					<path class="st8" d="M29.09,85.8l-1.2-0.7c-0.16-0.09-0.29-0.34-0.29-0.56v-1.29c0-0.21,0.13-0.31,0.29-0.22l1.2,0.7
						c0.16,0.09,0.29,0.34,0.29,0.56v1.29C29.38,85.79,29.25,85.89,29.09,85.8z"/>
				</g>
			</g>
			<g>
				<path class="st7" d="M37.06,127.15l-13.13-7.52c-0.74-0.43-1.34-1.57-1.34-2.56v-4.69c0-0.98,0.6-1.44,1.34-1.01l13.13,7.52
					c0.74,0.43,1.34,1.57,1.34,2.56v4.69C38.4,127.12,37.8,127.57,37.06,127.15z"/>
				<path class="st8" d="M23.29,111.23c-0.21,0.19-0.34,0.53-0.34,0.98v4.69c0,0.98,0.6,2.13,1.34,2.56l13.13,7.52
					c0.24,0.14,0.46,0.17,0.65,0.14c-0.25,0.23-0.6,0.27-1,0.03l-13.13-7.52c-0.74-0.43-1.34-1.57-1.34-2.56v-4.69
					C22.6,111.71,22.88,111.3,23.29,111.23z"/>
				<g>
					<path class="st9" d="M33.11,122.05l-1.2-0.7c-0.16-0.09-0.29-0.34-0.29-0.56v-1.29c0-0.21,0.13-0.31,0.29-0.22l1.2,0.7
						c0.16,0.09,0.29,0.34,0.29,0.56v1.29C33.41,122.04,33.28,122.14,33.11,122.05z"/>
					<path class="st8" d="M29.09,119.72l-1.2-0.7c-0.16-0.09-0.29-0.34-0.29-0.56v-1.29c0-0.21,0.13-0.31,0.29-0.22l1.2,0.7
						c0.16,0.09,0.29,0.34,0.29,0.56v1.29C29.38,119.72,29.25,119.81,29.09,119.72z"/>
				</g>
			</g>
			<g>
				<path class="st7" d="M37.06,144.11l-13.13-7.52c-0.74-0.43-1.34-1.57-1.34-2.56v-4.69c0-0.98,0.6-1.44,1.34-1.01l13.13,7.52
					c0.74,0.43,1.34,1.57,1.34,2.56v4.69C38.4,144.08,37.8,144.53,37.06,144.11z"/>
				<path class="st8" d="M23.29,128.19c-0.21,0.19-0.34,0.53-0.34,0.98v4.69c0,0.98,0.6,2.13,1.34,2.56l13.13,7.52
					c0.24,0.14,0.46,0.17,0.65,0.14c-0.25,0.23-0.6,0.27-1,0.03l-13.13-7.52c-0.74-0.43-1.34-1.57-1.34-2.56v-4.69
					C22.6,128.67,22.88,128.26,23.29,128.19z"/>
				<g>
					<path class="st9" d="M33.11,139.01l-1.2-0.7c-0.16-0.09-0.29-0.34-0.29-0.56v-1.29c0-0.21,0.13-0.31,0.29-0.22l1.2,0.7
						c0.16,0.09,0.29,0.34,0.29,0.56v1.29C33.41,139,33.28,139.1,33.11,139.01z"/>
					<path class="st8" d="M29.09,136.68l-1.2-0.7c-0.16-0.09-0.29-0.34-0.29-0.56v-1.29c0-0.21,0.13-0.31,0.29-0.22l1.2,0.7
						c0.16,0.09,0.29,0.34,0.29,0.56v1.29C29.38,136.68,29.25,136.78,29.09,136.68z"/>
				</g>
			</g>
			<g>
				<path class="st7" d="M37.06,110.18l-13.13-7.52c-0.74-0.43-1.34-1.57-1.34-2.56v-4.69c0-0.98,0.6-1.44,1.34-1.01l13.13,7.52
					c0.74,0.43,1.34,1.57,1.34,2.56v4.69C38.4,110.16,37.8,110.61,37.06,110.18z"/>
				<path class="st8" d="M23.29,94.26c-0.21,0.19-0.34,0.53-0.34,0.98v4.69c0,0.98,0.6,2.13,1.34,2.56l13.13,7.52
					c0.24,0.14,0.46,0.17,0.65,0.14c-0.25,0.23-0.6,0.27-1,0.03l-13.13-7.52c-0.74-0.43-1.34-1.57-1.34-2.56v-4.69
					C22.6,94.75,22.88,94.33,23.29,94.26z"/>
				<g>
					<path class="st9" d="M33.11,105.08l-1.2-0.7c-0.16-0.09-0.29-0.34-0.29-0.56v-1.29c0-0.21,0.13-0.31,0.29-0.22l1.2,0.7
						c0.16,0.09,0.29,0.34,0.29,0.56v1.29C33.41,105.08,33.28,105.18,33.11,105.08z"/>
					<path class="st8" d="M29.09,102.76l-1.2-0.7c-0.16-0.09-0.29-0.34-0.29-0.56v-1.29c0-0.21,0.13-0.31,0.29-0.22l1.2,0.7
						c0.16,0.09,0.29,0.34,0.29,0.56v1.29C29.38,102.75,29.25,102.85,29.09,102.76z"/>
				</g>
			</g>
		</g>
		<g>
			<path class="st7" d="M48.43,88.42l30.29-17.49c0.68-0.39,1.23-1.44,1.23-2.35v-5.78c0-0.9-0.55-1.32-1.23-0.93L48.43,79.37
				c-0.68,0.39-1.23,1.44-1.23,2.35v5.78C47.21,88.39,47.76,88.81,48.43,88.42z"/>
			<path class="st11" d="M49.3,86.39l28.55-16.48c0.34-0.2,0.62-0.73,0.62-1.19v-4.34c0-0.46-0.28-0.67-0.62-0.47L49.3,80.39
				c-0.34,0.2-0.62,0.73-0.62,1.19v4.34C48.68,86.38,48.96,86.59,49.3,86.39z"/>
			<path class="st4" d="M71.9,71.15l4.26-2.46c0.33-0.19,0.6-0.71,0.6-1.16l0,0c0-0.45-0.27-0.65-0.6-0.46l-4.26,2.46
				c-0.33,0.19-0.6,0.71-0.6,1.16l0,0C71.3,71.14,71.57,71.34,71.9,71.15z"/>
			<path class="st9" d="M68.27,72.44c0,0.45,0.31,0.63,0.7,0.4c0.39-0.22,0.7-0.76,0.7-1.21c0-0.45-0.31-0.63-0.7-0.4
				C68.58,71.45,68.27,71.99,68.27,72.44z"/>
			<path class="st9" d="M65.81,73.86c0,0.45,0.31,0.63,0.7,0.4c0.39-0.22,0.7-0.76,0.7-1.21c0-0.45-0.31-0.63-0.7-0.4
				C66.12,72.87,65.81,73.42,65.81,73.86z"/>
			<path class="st4" d="M63.34,75.28c0,0.45,0.31,0.63,0.7,0.4c0.39-0.22,0.7-0.76,0.7-1.21c0-0.45-0.31-0.63-0.7-0.4
				C63.66,74.3,63.34,74.84,63.34,75.28z"/>
			<path class="st9" d="M60.88,76.7c0,0.45,0.31,0.63,0.7,0.4c0.39-0.22,0.7-0.76,0.7-1.21c0-0.45-0.31-0.63-0.7-0.4
				C61.19,75.72,60.88,76.26,60.88,76.7z"/>
			<path class="st9" d="M50.5,83.97l1.44-0.83c0.21-0.12,0.39-0.46,0.39-0.74v-1.52c0-0.29-0.17-0.42-0.39-0.29l-1.44,0.83
				c-0.21,0.12-0.39,0.46-0.39,0.74v1.52C50.12,83.97,50.29,84.1,50.5,83.97z"/>
		</g>
		<g>
			<path class="st7" d="M48.43,98.6l30.29-17.49c0.68-0.39,1.23-1.44,1.23-2.35v-5.78c0-0.9-0.55-1.32-1.23-0.93L48.43,89.55
				c-0.68,0.39-1.23,1.44-1.23,2.35v5.78C47.21,98.58,47.76,98.99,48.43,98.6z"/>
			<path class="st11" d="M49.3,96.57l28.55-16.48c0.34-0.2,0.62-0.73,0.62-1.19v-4.34c0-0.46-0.28-0.67-0.62-0.47L49.3,90.57
				c-0.34,0.2-0.62,0.73-0.62,1.19v4.34C48.68,96.56,48.96,96.77,49.3,96.57z"/>
			<path class="st4" d="M71.9,81.33l4.26-2.46c0.33-0.19,0.6-0.71,0.6-1.16l0,0c0-0.45-0.27-0.65-0.6-0.46l-4.26,2.46
				c-0.33,0.19-0.6,0.71-0.6,1.16l0,0C71.3,81.32,71.57,81.53,71.9,81.33z"/>
			<path class="st8" d="M68.27,82.62c0,0.45,0.31,0.63,0.7,0.4c0.39-0.22,0.7-0.76,0.7-1.21c0-0.45-0.31-0.63-0.7-0.4
				C68.58,81.64,68.27,82.18,68.27,82.62z"/>
			<path class="st9" d="M65.81,84.04c0,0.45,0.31,0.63,0.7,0.4c0.39-0.22,0.7-0.76,0.7-1.21c0-0.45-0.31-0.63-0.7-0.4
				C66.12,83.06,65.81,83.6,65.81,84.04z"/>
			<path class="st4" d="M63.34,85.47c0,0.45,0.31,0.63,0.7,0.4c0.39-0.22,0.7-0.76,0.7-1.21s-0.31-0.63-0.7-0.4
				C63.66,84.48,63.34,85.02,63.34,85.47z"/>
			<path class="st9" d="M60.88,86.89c0,0.45,0.31,0.63,0.7,0.4c0.39-0.22,0.7-0.76,0.7-1.21c0-0.45-0.31-0.63-0.7-0.4
				C61.19,85.9,60.88,86.44,60.88,86.89z"/>
			<path class="st9" d="M50.5,94.16l1.44-0.83c0.21-0.12,0.39-0.46,0.39-0.74v-1.52c0-0.29-0.17-0.42-0.39-0.29L50.5,91.6
				c-0.21,0.12-0.39,0.46-0.39,0.74v1.52C50.12,94.15,50.29,94.28,50.5,94.16z"/>
		</g>
		<g>
			<path class="st7" d="M48.43,108.78L78.72,91.3c0.68-0.39,1.23-1.44,1.23-2.35v-5.78c0-0.9-0.55-1.32-1.23-0.93L48.43,99.74
				c-0.68,0.39-1.23,1.44-1.23,2.35v5.78C47.21,108.76,47.76,109.17,48.43,108.78z"/>
			<path class="st11" d="M49.3,106.76l28.55-16.48c0.34-0.2,0.62-0.73,0.62-1.19v-4.34c0-0.46-0.28-0.67-0.62-0.47L49.3,100.76
				c-0.34,0.2-0.62,0.73-0.62,1.19v4.34C48.68,106.75,48.96,106.96,49.3,106.76z"/>
			<path class="st4" d="M71.9,91.52l4.26-2.46c0.33-0.19,0.6-0.71,0.6-1.16l0,0c0-0.45-0.27-0.65-0.6-0.46L71.9,89.9
				c-0.33,0.19-0.6,0.71-0.6,1.16l0,0C71.3,91.5,71.57,91.71,71.9,91.52z"/>
			<path class="st8" d="M68.27,92.81c0,0.45,0.31,0.63,0.7,0.4c0.39-0.22,0.7-0.76,0.7-1.21c0-0.45-0.31-0.63-0.7-0.4
				C68.58,91.82,68.27,92.36,68.27,92.81z"/>
			<path class="st0" d="M65.81,94.23c0,0.45,0.31,0.63,0.7,0.4c0.39-0.22,0.7-0.76,0.7-1.21c0-0.45-0.31-0.63-0.7-0.4
				C66.12,93.24,65.81,93.78,65.81,94.23z"/>
			<path class="st4" d="M63.34,95.65c0,0.45,0.31,0.63,0.7,0.4c0.39-0.22,0.7-0.76,0.7-1.21s-0.31-0.63-0.7-0.4
				C63.66,94.66,63.34,95.21,63.34,95.65z"/>
			<path class="st9" d="M60.88,97.07c0,0.45,0.31,0.63,0.7,0.4c0.39-0.22,0.7-0.76,0.7-1.21c0-0.45-0.31-0.63-0.7-0.4
				C61.19,96.09,60.88,96.63,60.88,97.07z"/>
			<path class="st9" d="M50.5,104.34l1.44-0.83c0.21-0.12,0.39-0.46,0.39-0.74v-1.52c0-0.29-0.17-0.42-0.39-0.29l-1.44,0.83
				c-0.21,0.12-0.39,0.46-0.39,0.74v1.52C50.12,104.33,50.29,104.46,50.5,104.34z"/>
		</g>
		<g>
			<path class="st7" d="M48.43,118.97l30.29-17.49c0.68-0.39,1.23-1.44,1.23-2.35v-5.78c0-0.9-0.55-1.32-1.23-0.93l-30.29,17.49
				c-0.68,0.39-1.23,1.44-1.23,2.35v5.78C47.21,118.94,47.76,119.36,48.43,118.97z"/>
			<path class="st11" d="M49.3,116.94l28.55-16.48c0.34-0.2,0.62-0.73,0.62-1.19v-4.34c0-0.46-0.28-0.67-0.62-0.47L49.3,110.94
				c-0.34,0.2-0.62,0.73-0.62,1.19v4.34C48.68,116.93,48.96,117.14,49.3,116.94z"/>
			<path class="st4" d="M71.9,101.7l4.26-2.46c0.33-0.19,0.6-0.71,0.6-1.16l0,0c0-0.45-0.27-0.65-0.6-0.46l-4.26,2.46
				c-0.33,0.19-0.6,0.71-0.6,1.16l0,0C71.3,101.69,71.57,101.89,71.9,101.7z"/>
			<path class="st0" d="M68.27,102.99c0,0.45,0.31,0.63,0.7,0.4c0.39-0.22,0.7-0.76,0.7-1.21s-0.31-0.63-0.7-0.4
				C68.58,102,68.27,102.54,68.27,102.99z"/>
			<path class="st0" d="M65.81,104.41c0,0.45,0.31,0.63,0.7,0.4c0.39-0.22,0.7-0.76,0.7-1.21c0-0.45-0.31-0.63-0.7-0.4
				C66.12,103.43,65.81,103.97,65.81,104.41z"/>
			<path class="st4" d="M63.34,105.83c0,0.45,0.31,0.63,0.7,0.4c0.39-0.22,0.7-0.76,0.7-1.21s-0.31-0.63-0.7-0.4
				C63.66,104.85,63.34,105.39,63.34,105.83z"/>
			<path class="st9" d="M60.88,107.26c0,0.45,0.31,0.63,0.7,0.4c0.39-0.22,0.7-0.76,0.7-1.21c0-0.45-0.31-0.63-0.7-0.4
				C61.19,106.27,60.88,106.81,60.88,107.26z"/>
			<path class="st4" d="M50.5,114.52l1.44-0.83c0.21-0.12,0.39-0.46,0.39-0.74v-1.52c0-0.29-0.17-0.42-0.39-0.29l-1.44,0.83
				c-0.21,0.12-0.39,0.46-0.39,0.74v1.52C50.12,114.52,50.29,114.65,50.5,114.52z"/>
		</g>
		<g>
			<path class="st7" d="M48.43,129.15l30.29-17.49c0.68-0.39,1.23-1.44,1.23-2.35v-5.78c0-0.9-0.55-1.32-1.23-0.93L48.43,120.1
				c-0.68,0.39-1.23,1.44-1.23,2.35v5.78C47.21,129.13,47.76,129.54,48.43,129.15z"/>
			<path class="st11" d="M49.3,127.13l28.55-16.48c0.34-0.2,0.62-0.73,0.62-1.19v-4.34c0-0.46-0.28-0.67-0.62-0.47L49.3,121.12
				c-0.34,0.2-0.62,0.73-0.62,1.19v4.34C48.68,127.11,48.96,127.33,49.3,127.13z"/>
			<path class="st4" d="M71.9,111.88l4.26-2.46c0.33-0.19,0.6-0.71,0.6-1.16l0,0c0-0.45-0.27-0.65-0.6-0.46l-4.26,2.46
				c-0.33,0.19-0.6,0.71-0.6,1.16l0,0C71.3,111.87,71.57,112.08,71.9,111.88z"/>
			<path class="st0" d="M68.27,113.17c0,0.45,0.31,0.63,0.7,0.4c0.39-0.22,0.7-0.76,0.7-1.21c0-0.45-0.31-0.63-0.7-0.4
				C68.58,112.19,68.27,112.73,68.27,113.17z"/>
			<path class="st8" d="M65.81,114.6c0,0.45,0.31,0.63,0.7,0.4c0.39-0.22,0.7-0.76,0.7-1.21c0-0.45-0.31-0.63-0.7-0.4
				C66.12,113.61,65.81,114.15,65.81,114.6z"/>
			<path class="st4" d="M63.34,116.02c0,0.45,0.31,0.63,0.7,0.4c0.39-0.22,0.7-0.76,0.7-1.21s-0.31-0.63-0.7-0.4
				C63.66,115.03,63.34,115.57,63.34,116.02z"/>
			<path class="st8" d="M60.88,117.44c0,0.45,0.31,0.63,0.7,0.4c0.39-0.22,0.7-0.76,0.7-1.21c0-0.45-0.31-0.63-0.7-0.4
				C61.19,116.45,60.88,117,60.88,117.44z"/>
			<path class="st4" d="M50.5,124.71l1.44-0.83c0.21-0.12,0.39-0.46,0.39-0.74v-1.52c0-0.29-0.17-0.42-0.39-0.29l-1.44,0.83
				c-0.21,0.12-0.39,0.46-0.39,0.74v1.52C50.12,124.7,50.29,124.83,50.5,124.71z"/>
		</g>
		<g>
			<path class="st7" d="M48.43,139.34l30.29-17.49c0.68-0.39,1.23-1.44,1.23-2.35v-5.78c0-0.9-0.55-1.32-1.23-0.93l-30.29,17.49
				c-0.68,0.39-1.23,1.44-1.23,2.35v5.78C47.21,139.31,47.76,139.73,48.43,139.34z"/>
			<path class="st11" d="M49.3,137.31l28.55-16.48c0.34-0.2,0.62-0.73,0.62-1.19v-4.34c0-0.46-0.28-0.67-0.62-0.47L49.3,131.31
				c-0.34,0.2-0.62,0.73-0.62,1.19v4.34C48.68,137.3,48.96,137.51,49.3,137.31z"/>
			<path class="st4" d="M71.9,122.07l4.26-2.46c0.33-0.19,0.6-0.71,0.6-1.16l0,0c0-0.45-0.27-0.65-0.6-0.46l-4.26,2.46
				c-0.33,0.19-0.6,0.71-0.6,1.16l0,0C71.3,122.06,71.57,122.26,71.9,122.07z"/>
			<path class="st0" d="M68.27,123.36c0,0.45,0.31,0.63,0.7,0.4c0.39-0.22,0.7-0.76,0.7-1.21c0-0.45-0.31-0.63-0.7-0.4
				C68.58,122.37,68.27,122.91,68.27,123.36z"/>
			<path class="st0" d="M65.81,124.78c0,0.45,0.31,0.63,0.7,0.4c0.39-0.22,0.7-0.76,0.7-1.21c0-0.45-0.31-0.63-0.7-0.4
				C66.12,123.79,65.81,124.34,65.81,124.78z"/>
			<path class="st4" d="M63.34,126.2c0,0.45,0.31,0.63,0.7,0.4c0.39-0.22,0.7-0.76,0.7-1.21c0-0.45-0.31-0.63-0.7-0.4
				C63.66,125.22,63.34,125.76,63.34,126.2z"/>
			<path class="st9" d="M60.88,127.63c0,0.45,0.31,0.63,0.7,0.4c0.39-0.22,0.7-0.76,0.7-1.21c0-0.45-0.31-0.63-0.7-0.4
				C61.19,126.64,60.88,127.18,60.88,127.63z"/>
			<path class="st9" d="M50.5,134.89l1.44-0.83c0.21-0.12,0.39-0.46,0.39-0.74v-1.52c0-0.29-0.17-0.42-0.39-0.29l-1.44,0.83
				c-0.21,0.12-0.39,0.46-0.39,0.74v1.52C50.12,134.89,50.29,135.02,50.5,134.89z"/>
		</g>
		<g>
			<path class="st7" d="M48.43,149.52l30.29-17.49c0.68-0.39,1.23-1.44,1.23-2.35v-5.78c0-0.9-0.55-1.32-1.23-0.93l-30.29,17.49
				c-0.68,0.39-1.23,1.44-1.23,2.35v5.78C47.21,149.5,47.76,149.91,48.43,149.52z"/>
			<path class="st11" d="M49.3,147.49l28.55-16.48c0.34-0.2,0.62-0.73,0.62-1.19v-4.34c0-0.46-0.28-0.67-0.62-0.47L49.3,141.49
				c-0.34,0.2-0.62,0.73-0.62,1.19v4.34C48.68,147.48,48.96,147.69,49.3,147.49z"/>
			<path class="st4" d="M71.9,132.25l4.26-2.46c0.33-0.19,0.6-0.71,0.6-1.16v0c0-0.45-0.27-0.65-0.6-0.46l-4.26,2.46
				c-0.33,0.19-0.6,0.71-0.6,1.16l0,0C71.3,132.24,71.57,132.45,71.9,132.25z"/>
			<path class="st8" d="M67.49,134.09c0,0.84,0.59,1.18,1.32,0.76c0.73-0.42,1.32-1.44,1.32-2.28c0-0.84-0.59-1.18-1.32-0.76
				C68.08,132.23,67.49,133.25,67.49,134.09z"/>
			<path class="st9" d="M62.39,137.08c0,0.45,0.31,0.63,0.7,0.4c0.39-0.22,0.7-0.76,0.7-1.21c0-0.45-0.31-0.63-0.7-0.4
				C62.7,136.09,62.39,136.63,62.39,137.08z"/>
			<path class="st4" d="M59.93,138.5c0,0.45,0.31,0.63,0.7,0.4c0.39-0.22,0.7-0.76,0.7-1.21c0-0.45-0.31-0.63-0.7-0.4
				C60.24,137.51,59.93,138.06,59.93,138.5z"/>
			<path class="st9" d="M57.46,139.92c0,0.45,0.31,0.63,0.7,0.4c0.39-0.22,0.7-0.76,0.7-1.21c0-0.45-0.31-0.63-0.7-0.4
				C57.78,138.94,57.46,139.48,57.46,139.92z"/>
			<path class="st4" d="M50.5,145.08l1.44-0.83c0.21-0.12,0.39-0.46,0.39-0.74v-1.52c0-0.29-0.17-0.42-0.39-0.29l-1.44,0.83
				c-0.21,0.12-0.39,0.46-0.39,0.74v1.52C50.12,145.07,50.29,145.2,50.5,145.08z"/>
		</g>
	</g>
	<g>
		<g>
			<g>
				<path class="st2" d="M118.56,133.24L118.56,133.24V57.76l30-7.85l5.53-3.19c1.27-0.73,3.48-0.64,4.95,0.21l5.16,2.98l16-0.01
					l-4.74,72.86c0.04,0.5-0.24,0.97-0.85,1.33l-29.94,22.59c-1.27,0.73-3.48,0.64-4.95-0.21l-19.95-11.52
					C118.92,134.46,118.52,133.82,118.56,133.24z"/>
				<path class="st2" d="M156.39,46.23c0.93,0.02,1.89,0.26,2.65,0.7l5.16,2.98l16-0.01v75.67c0.04,0.5-0.24,0.97-0.85,1.33
					l-34.68,19.77c-0.61,0.35-1.44,0.51-2.3,0.49l-0.36-76.15L156.39,46.23z"/>
				<path class="st3" d="M144.35,146.83c-1.09,0.47-2.68,0.44-3.96-0.05V70.11h3.96V146.83z"/>
				<path class="st4" d="M144.67,71.02l34.68-19.77c1.27-0.73,1.11-2.01-0.36-2.86l-19.95-11.52c-1.46-0.85-3.68-0.94-4.95-0.21
					l-34.68,19.77c-1.27,0.73-1.11,2.01,0.36,2.86l19.95,11.52C141.19,71.66,143.4,71.75,144.67,71.02z"/>
				<path class="st5" d="M119.77,57.89l19.95,11.52c1.46,0.85,3.68,0.94,4.95,0.21l34.68-19.77c0.28-0.16,0.49-0.35,0.63-0.56
					c0.44,0.7,0.24,1.46-0.63,1.96l-34.68,19.77c-1.27,0.73-3.48,0.64-4.95-0.21L119.77,59.3c-1.14-0.66-1.48-1.57-0.99-2.3
					C118.98,57.32,119.31,57.63,119.77,57.89z"/>
				<g>
					<path class="st0" d="M143.69,63.01l23.09-13.38c0.59-0.34,0.52-0.94-0.17-1.34l-9.34-5.39c-0.69-0.4-1.72-0.44-2.32-0.1
						l-23.09,13.38c-0.59,0.34-0.52,0.94,0.17,1.34l9.34,5.39C142.06,63.31,143.1,63.35,143.69,63.01z"/>
					<g>
						<path class="st4" d="M156.15,50.22l1.34-0.77c0.08-0.05,0.07-0.13-0.02-0.18l-1.29-0.75c-0.09-0.05-0.24-0.06-0.32-0.01
							l-1.34,0.77c-0.08,0.05-0.07,0.13,0.02,0.18l1.29,0.75C155.93,50.27,156.07,50.27,156.15,50.22z"/>
						<path class="st4" d="M151.68,52.79l1.34-0.77c0.08-0.05,0.07-0.13-0.02-0.18l-1.29-0.75c-0.09-0.05-0.24-0.06-0.32-0.01
							l-1.34,0.77c-0.08,0.05-0.07,0.13,0.02,0.18l1.29,0.75C151.46,52.84,151.6,52.84,151.68,52.79z"/>
						<path class="st4" d="M147.21,55.36l1.34-0.77c0.08-0.05,0.07-0.13-0.02-0.18l-1.29-0.75c-0.09-0.05-0.24-0.06-0.32-0.01
							l-1.34,0.77c-0.08,0.05-0.07,0.13,0.02,0.18l1.29,0.75C146.99,55.41,147.13,55.41,147.21,55.36z"/>
						<path class="st4" d="M142.74,57.93l1.34-0.77c0.08-0.05,0.07-0.13-0.02-0.18l-1.29-0.75c-0.09-0.05-0.24-0.06-0.32-0.01
							l-1.34,0.77c-0.08,0.05-0.07,0.13,0.02,0.18l1.29,0.75C142.52,57.98,142.66,57.98,142.74,57.93z"/>
					</g>
					<path class="st6" d="M166.78,49.62l-0.03,0.02c-0.05-0.03-0.09-0.07-0.14-0.1l-9.34-5.39c-0.69-0.4-1.72-0.44-2.32-0.1
						L131.9,57.42c-0.55-0.39-0.58-0.92-0.03-1.24l23.09-13.38c0.59-0.34,1.63-0.3,2.32,0.1l9.34,5.39
						C167.3,48.68,167.37,49.28,166.78,49.62z"/>
				</g>
			</g>
			<g>
				<path class="st7" d="M135.83,85.97l-13.13-7.52c-0.74-0.43-1.34-1.57-1.34-2.56v-4.69c0-0.98,0.6-1.44,1.34-1.01l13.13,7.52
					c0.74,0.43,1.34,1.57,1.34,2.56v4.69C137.16,85.95,136.56,86.4,135.83,85.97z"/>
				<path class="st8" d="M122.05,70.05c-0.21,0.19-0.34,0.53-0.34,0.98v4.69c0,0.98,0.6,2.13,1.34,2.56l13.13,7.52
					c0.24,0.14,0.46,0.17,0.65,0.14c-0.25,0.23-0.6,0.27-1,0.03l-13.13-7.52c-0.74-0.43-1.34-1.57-1.34-2.56v-4.69
					C121.36,70.54,121.64,70.12,122.05,70.05z"/>
				<g>
					<path class="st9" d="M131.88,80.87l-1.2-0.7c-0.16-0.09-0.29-0.34-0.29-0.56v-1.29c0-0.21,0.13-0.31,0.29-0.22l1.2,0.7
						c0.16,0.09,0.29,0.34,0.29,0.56v1.29C132.17,80.87,132.04,80.97,131.88,80.87z"/>
					<path class="st8" d="M127.85,78.55l-1.2-0.7c-0.16-0.09-0.29-0.34-0.29-0.56v-1.29c0-0.21,0.13-0.31,0.29-0.22l1.2,0.7
						c0.16,0.09,0.29,0.34,0.29,0.56v1.29C128.14,78.54,128.01,78.64,127.85,78.55z"/>
				</g>
			</g>
			<g>
				<path class="st7" d="M135.83,119.9l-13.13-7.52c-0.74-0.43-1.34-1.57-1.34-2.56v-4.69c0-0.98,0.6-1.44,1.34-1.01l13.13,7.52
					c0.74,0.43,1.34,1.57,1.34,2.56v4.69C137.16,119.87,136.56,120.33,135.83,119.9z"/>
				<path class="st8" d="M122.05,103.98c-0.21,0.19-0.34,0.53-0.34,0.98v4.69c0,0.98,0.6,2.13,1.34,2.56l13.13,7.52
					c0.24,0.14,0.46,0.17,0.65,0.14c-0.25,0.23-0.6,0.27-1,0.03l-13.13-7.52c-0.74-0.43-1.34-1.57-1.34-2.56v-4.69
					C121.36,104.46,121.64,104.05,122.05,103.98z"/>
				<g>
					<path class="st9" d="M131.88,114.8l-1.2-0.7c-0.16-0.09-0.29-0.34-0.29-0.56v-1.29c0-0.21,0.13-0.31,0.29-0.22l1.2,0.7
						c0.16,0.09,0.29,0.34,0.29,0.56v1.29C132.17,114.79,132.04,114.89,131.88,114.8z"/>
					<path class="st8" d="M127.85,112.47l-1.2-0.7c-0.16-0.09-0.29-0.34-0.29-0.56v-1.29c0-0.21,0.13-0.31,0.29-0.22l1.2,0.7
						c0.16,0.09,0.29,0.34,0.29,0.56v1.29C128.14,112.47,128.01,112.57,127.85,112.47z"/>
				</g>
			</g>
			<g>
				<path class="st7" d="M135.83,136.86l-13.13-7.52c-0.74-0.43-1.34-1.57-1.34-2.56v-4.69c0-0.99,0.6-1.44,1.34-1.01l13.13,7.52
					c0.74,0.43,1.34,1.57,1.34,2.56v4.69C137.16,136.83,136.56,137.29,135.83,136.86z"/>
				<path class="st8" d="M122.05,120.94c-0.21,0.19-0.34,0.53-0.34,0.98v4.69c0,0.98,0.6,2.13,1.34,2.56l13.13,7.52
					c0.24,0.14,0.46,0.17,0.65,0.14c-0.25,0.23-0.6,0.27-1,0.03l-13.13-7.52c-0.74-0.43-1.34-1.57-1.34-2.56v-4.69
					C121.36,121.43,121.64,121.01,122.05,120.94z"/>
				<g>
					<path class="st9" d="M131.88,131.76l-1.2-0.7c-0.16-0.09-0.29-0.34-0.29-0.56v-1.29c0-0.21,0.13-0.31,0.29-0.22l1.2,0.7
						c0.16,0.09,0.29,0.34,0.29,0.56v1.29C132.17,131.76,132.04,131.85,131.88,131.76z"/>
					<path class="st8" d="M127.85,129.44l-1.2-0.7c-0.16-0.09-0.29-0.34-0.29-0.56v-1.29c0-0.21,0.13-0.31,0.29-0.22l1.2,0.7
						c0.16,0.09,0.29,0.34,0.29,0.56v1.29C128.14,129.43,128.01,129.53,127.85,129.44z"/>
				</g>
			</g>
			<g>
				<path class="st7" d="M135.83,102.94l-13.13-7.52c-0.74-0.43-1.34-1.57-1.34-2.56v-4.69c0-0.99,0.6-1.44,1.34-1.01l13.13,7.52
					c0.74,0.43,1.34,1.57,1.34,2.56v4.69C137.16,102.91,136.56,103.36,135.83,102.94z"/>
				<path class="st8" d="M122.05,87.02c-0.21,0.19-0.34,0.53-0.34,0.98v4.69c0,0.98,0.6,2.13,1.34,2.56l13.13,7.52
					c0.24,0.14,0.46,0.17,0.65,0.14c-0.25,0.23-0.6,0.27-1,0.03l-13.13-7.52c-0.74-0.43-1.34-1.57-1.34-2.56v-4.69
					C121.36,87.5,121.64,87.09,122.05,87.02z"/>
				<g>
					<path class="st9" d="M131.88,97.84l-1.2-0.7c-0.16-0.09-0.29-0.34-0.29-0.56V95.3c0-0.21,0.13-0.31,0.29-0.22l1.2,0.7
						c0.16,0.09,0.29,0.34,0.29,0.56v1.29C132.17,97.83,132.04,97.93,131.88,97.84z"/>
					<path class="st8" d="M127.85,95.51l-1.2-0.7c-0.16-0.09-0.29-0.34-0.29-0.56v-1.29c0-0.21,0.13-0.31,0.29-0.22l1.2,0.7
						c0.16,0.09,0.29,0.34,0.29,0.56v1.29C128.14,95.51,128.01,95.6,127.85,95.51z"/>
				</g>
			</g>
		</g>
		<g>
			<path class="st7" d="M147.2,81.17l30.29-17.49c0.68-0.39,1.23-1.44,1.23-2.35v-5.78c0-0.9-0.55-1.32-1.23-0.93L147.2,72.12
				c-0.68,0.39-1.23,1.44-1.23,2.35v5.78C145.97,81.14,146.52,81.56,147.2,81.17z"/>
			<path class="st11" d="M148.07,79.14l28.55-16.48c0.34-0.2,0.62-0.73,0.62-1.19v-4.34c0-0.46-0.28-0.67-0.62-0.47l-28.55,16.48
				c-0.34,0.2-0.62,0.73-0.62,1.19v4.34C147.44,79.13,147.72,79.34,148.07,79.14z"/>
			<path class="st4" d="M170.66,63.9l4.26-2.46c0.33-0.19,0.6-0.71,0.6-1.16l0,0c0-0.45-0.27-0.65-0.6-0.46l-4.26,2.46
				c-0.33,0.19-0.6,0.71-0.6,1.16l0,0C170.06,63.89,170.33,64.09,170.66,63.9z"/>
			<path class="st9" d="M167.03,65.19c0,0.45,0.31,0.63,0.7,0.4c0.39-0.22,0.7-0.76,0.7-1.21c0-0.45-0.31-0.63-0.7-0.4
				C167.35,64.2,167.03,64.75,167.03,65.19z"/>
			<path class="st9" d="M164.57,66.61c0,0.45,0.31,0.63,0.7,0.4c0.39-0.22,0.7-0.76,0.7-1.21c0-0.45-0.31-0.63-0.7-0.4
				C164.88,65.63,164.57,66.17,164.57,66.61z"/>
			<path class="st4" d="M162.11,68.04c0,0.45,0.31,0.63,0.7,0.4c0.39-0.22,0.7-0.76,0.7-1.21c0-0.45-0.31-0.63-0.7-0.4
				C162.42,67.05,162.11,67.59,162.11,68.04z"/>
			<path class="st9" d="M159.64,69.46c0,0.45,0.31,0.63,0.7,0.4c0.39-0.22,0.7-0.76,0.7-1.21c0-0.45-0.31-0.63-0.7-0.4
				C159.96,68.47,159.64,69.01,159.64,69.46z"/>
			<path class="st9" d="M149.27,76.73l1.44-0.83c0.21-0.12,0.39-0.46,0.39-0.74v-1.52c0-0.29-0.17-0.42-0.39-0.29l-1.44,0.83
				c-0.21,0.12-0.39,0.46-0.39,0.74v1.52C148.88,76.72,149.05,76.85,149.27,76.73z"/>
		</g>
		<g>
			<path class="st7" d="M147.2,91.35l30.29-17.49c0.68-0.39,1.23-1.44,1.23-2.35v-5.78c0-0.9-0.55-1.32-1.23-0.93L147.2,82.3
				c-0.68,0.39-1.23,1.44-1.23,2.35v5.78C145.97,91.33,146.52,91.74,147.2,91.35z"/>
			<path class="st11" d="M148.07,89.33l28.55-16.48c0.34-0.2,0.62-0.73,0.62-1.19v-4.34c0-0.46-0.28-0.67-0.62-0.47l-28.55,16.48
				c-0.34,0.2-0.62,0.73-0.62,1.19v4.34C147.44,89.32,147.72,89.53,148.07,89.33z"/>
			<path class="st4" d="M170.66,74.09l4.26-2.46c0.33-0.19,0.6-0.71,0.6-1.16l0,0c0-0.45-0.27-0.65-0.6-0.46l-4.26,2.46
				c-0.33,0.19-0.6,0.71-0.6,1.16l0,0C170.06,74.07,170.33,74.28,170.66,74.09z"/>
			<path class="st8" d="M167.03,75.38c0,0.45,0.31,0.63,0.7,0.4c0.39-0.22,0.7-0.76,0.7-1.21c0-0.45-0.31-0.63-0.7-0.4
				C167.35,74.39,167.03,74.93,167.03,75.38z"/>
			<path class="st9" d="M164.57,76.8c0,0.45,0.31,0.63,0.7,0.4c0.39-0.22,0.7-0.76,0.7-1.21c0-0.45-0.31-0.63-0.7-0.4
				C164.88,75.81,164.57,76.35,164.57,76.8z"/>
			<path class="st4" d="M162.11,78.22c0,0.45,0.31,0.63,0.7,0.4c0.39-0.22,0.7-0.76,0.7-1.21c0-0.45-0.31-0.63-0.7-0.4
				C162.42,77.23,162.11,77.77,162.11,78.22z"/>
			<path class="st9" d="M159.64,79.64c0,0.45,0.31,0.63,0.7,0.4c0.39-0.22,0.7-0.76,0.7-1.21c0-0.45-0.31-0.63-0.7-0.4
				C159.96,78.66,159.64,79.2,159.64,79.64z"/>
			<path class="st9" d="M149.27,86.91l1.44-0.83c0.21-0.12,0.39-0.46,0.39-0.74v-1.52c0-0.29-0.17-0.42-0.39-0.29l-1.44,0.83
				c-0.21,0.12-0.39,0.46-0.39,0.74v1.52C148.88,86.9,149.05,87.03,149.27,86.91z"/>
		</g>
		<g>
			<path class="st7" d="M147.2,101.54l30.29-17.49c0.68-0.39,1.23-1.44,1.23-2.35v-5.78c0-0.9-0.55-1.32-1.23-0.93L147.2,92.49
				c-0.68,0.39-1.23,1.44-1.23,2.35v5.78C145.97,101.51,146.52,101.93,147.2,101.54z"/>
			<path class="st11" d="M148.07,99.51l28.55-16.48c0.34-0.2,0.62-0.73,0.62-1.19V77.5c0-0.46-0.28-0.67-0.62-0.47l-28.55,16.48
				c-0.34,0.2-0.62,0.73-0.62,1.19v4.34C147.44,99.5,147.72,99.71,148.07,99.51z"/>
			<path class="st4" d="M170.66,84.27l4.26-2.46c0.33-0.19,0.6-0.71,0.6-1.16l0,0c0-0.45-0.27-0.65-0.6-0.46l-4.26,2.46
				c-0.33,0.19-0.6,0.71-0.6,1.16l0,0C170.06,84.26,170.33,84.46,170.66,84.27z"/>
			<path class="st8" d="M167.03,85.56c0,0.45,0.31,0.63,0.7,0.4c0.39-0.22,0.7-0.76,0.7-1.21c0-0.45-0.31-0.63-0.7-0.4
				C167.35,84.57,167.03,85.11,167.03,85.56z"/>
			<path class="st9" d="M164.57,86.98c0,0.45,0.31,0.63,0.7,0.4c0.39-0.22,0.7-0.76,0.7-1.21c0-0.45-0.31-0.63-0.7-0.4
				C164.88,85.99,164.57,86.54,164.57,86.98z"/>
			<path class="st4" d="M162.11,88.4c0,0.45,0.31,0.63,0.7,0.4c0.39-0.22,0.7-0.76,0.7-1.21c0-0.45-0.31-0.63-0.7-0.4
				C162.42,87.42,162.11,87.96,162.11,88.4z"/>
			<path class="st9" d="M159.64,89.83c0,0.45,0.31,0.63,0.7,0.4c0.39-0.22,0.7-0.76,0.7-1.21c0-0.45-0.31-0.63-0.7-0.4
				C159.96,88.84,159.64,89.38,159.64,89.83z"/>
			<path class="st9" d="M149.27,97.09l1.44-0.83c0.21-0.12,0.39-0.46,0.39-0.74v-1.52c0-0.29-0.17-0.42-0.39-0.29l-1.44,0.83
				c-0.21,0.12-0.39,0.46-0.39,0.74v1.52C148.88,97.09,149.05,97.22,149.27,97.09z"/>
		</g>
		<g>
			<path class="st7" d="M147.2,111.72l30.29-17.49c0.68-0.39,1.23-1.44,1.23-2.35v-5.78c0-0.9-0.55-1.32-1.23-0.93l-30.29,17.49
				c-0.68,0.39-1.23,1.44-1.23,2.35v5.78C145.97,111.7,146.52,112.11,147.2,111.72z"/>
			<path class="st11" d="M148.07,109.7l28.55-16.48c0.34-0.2,0.62-0.73,0.62-1.19v-4.34c0-0.46-0.28-0.67-0.62-0.47l-28.55,16.48
				c-0.34,0.2-0.62,0.73-0.62,1.19v4.34C147.44,109.68,147.72,109.89,148.07,109.7z"/>
			<path class="st4" d="M170.66,94.45l4.26-2.46c0.33-0.19,0.6-0.71,0.6-1.16l0,0c0-0.45-0.27-0.65-0.6-0.46l-4.26,2.46
				c-0.33,0.19-0.6,0.71-0.6,1.16l0,0C170.06,94.44,170.33,94.65,170.66,94.45z"/>
			<path class="st9" d="M167.03,95.74c0,0.45,0.31,0.63,0.7,0.4c0.39-0.22,0.7-0.76,0.7-1.21c0-0.45-0.31-0.63-0.7-0.4
				C167.35,94.76,167.03,95.3,167.03,95.74z"/>
			<path class="st9" d="M164.57,97.17c0,0.45,0.31,0.63,0.7,0.4c0.39-0.22,0.7-0.76,0.7-1.21c0-0.45-0.31-0.63-0.7-0.4
				C164.88,96.18,164.57,96.72,164.57,97.17z"/>
			<path class="st4" d="M162.11,98.59c0,0.45,0.31,0.63,0.7,0.4c0.39-0.22,0.7-0.76,0.7-1.21c0-0.45-0.31-0.63-0.7-0.4
				C162.42,97.6,162.11,98.14,162.11,98.59z"/>
			<path class="st9" d="M159.64,100.01c0,0.45,0.31,0.63,0.7,0.4c0.39-0.22,0.7-0.76,0.7-1.21c0-0.45-0.31-0.63-0.7-0.4
				C159.96,99.02,159.64,99.56,159.64,100.01z"/>
			<path class="st4" d="M149.27,107.28l1.44-0.83c0.21-0.12,0.39-0.46,0.39-0.74v-1.52c0-0.29-0.17-0.42-0.39-0.29l-1.44,0.83
				c-0.21,0.12-0.39,0.46-0.39,0.74v1.52C148.88,107.27,149.05,107.4,149.27,107.28z"/>
		</g>
		<g>
			<path class="st7" d="M147.2,121.9l30.29-17.49c0.68-0.39,1.23-1.44,1.23-2.35V96.3c0-0.9-0.55-1.32-1.23-0.93l-30.29,17.49
				c-0.68,0.39-1.23,1.44-1.23,2.35v5.78C145.97,121.88,146.52,122.3,147.2,121.9z"/>
			<path class="st11" d="M148.07,119.88l28.55-16.48c0.34-0.2,0.62-0.73,0.62-1.19v-4.34c0-0.46-0.28-0.67-0.62-0.47l-28.55,16.48
				c-0.34,0.2-0.62,0.73-0.62,1.19v4.34C147.44,119.87,147.72,120.08,148.07,119.88z"/>
			<path class="st4" d="M170.66,104.64l4.26-2.46c0.33-0.19,0.6-0.71,0.6-1.16l0,0c0-0.45-0.27-0.65-0.6-0.46l-4.26,2.46
				c-0.33,0.19-0.6,0.71-0.6,1.16l0,0C170.06,104.63,170.33,104.83,170.66,104.64z"/>
			<path class="st9" d="M167.03,105.93c0,0.45,0.31,0.63,0.7,0.4c0.39-0.22,0.7-0.76,0.7-1.21c0-0.45-0.31-0.63-0.7-0.4
				C167.35,104.94,167.03,105.48,167.03,105.93z"/>
			<path class="st8" d="M164.57,107.35c0,0.45,0.31,0.63,0.7,0.4c0.39-0.22,0.7-0.76,0.7-1.21c0-0.45-0.31-0.63-0.7-0.4
				C164.88,106.36,164.57,106.9,164.57,107.35z"/>
			<path class="st4" d="M162.11,108.77c0,0.45,0.31,0.63,0.7,0.4c0.39-0.22,0.7-0.76,0.7-1.21c0-0.45-0.31-0.63-0.7-0.4
				C162.42,107.79,162.11,108.33,162.11,108.77z"/>
			<path class="st8" d="M159.64,110.19c0,0.45,0.31,0.63,0.7,0.4c0.39-0.22,0.7-0.76,0.7-1.21c0-0.45-0.31-0.63-0.7-0.4
				C159.96,109.21,159.64,109.75,159.64,110.19z"/>
			<path class="st4" d="M149.27,117.46l1.44-0.83c0.21-0.12,0.39-0.46,0.39-0.74v-1.52c0-0.29-0.17-0.42-0.39-0.29l-1.44,0.83
				c-0.21,0.12-0.39,0.46-0.39,0.74v1.52C148.88,117.45,149.05,117.59,149.27,117.46z"/>
		</g>
		<g>
			<path class="st7" d="M147.2,132.09l30.29-17.49c0.68-0.39,1.23-1.44,1.23-2.35v-5.78c0-0.9-0.55-1.32-1.23-0.93l-30.29,17.49
				c-0.68,0.39-1.23,1.44-1.23,2.35v5.78C145.97,132.06,146.52,132.48,147.2,132.09z"/>
			<path class="st11" d="M148.07,130.06l28.55-16.48c0.34-0.2,0.62-0.73,0.62-1.19v-4.34c0-0.46-0.28-0.67-0.62-0.47l-28.55,16.48
				c-0.34,0.2-0.62,0.73-0.62,1.19v4.34C147.44,130.05,147.72,130.26,148.07,130.06z"/>
			<path class="st4" d="M170.66,114.82l4.26-2.46c0.33-0.19,0.6-0.71,0.6-1.16l0,0c0-0.45-0.27-0.65-0.6-0.46l-4.26,2.46
				c-0.33,0.19-0.6,0.71-0.6,1.16l0,0C170.06,114.81,170.33,115.01,170.66,114.82z"/>
			<path class="st9" d="M167.03,116.11c0,0.45,0.31,0.63,0.7,0.4c0.39-0.22,0.7-0.76,0.7-1.21c0-0.45-0.31-0.63-0.7-0.4
				C167.35,115.12,167.03,115.67,167.03,116.11z"/>
			<path class="st9" d="M164.57,117.53c0,0.45,0.31,0.63,0.7,0.4c0.39-0.22,0.7-0.76,0.7-1.21c0-0.45-0.31-0.63-0.7-0.4
				C164.88,116.55,164.57,117.09,164.57,117.53z"/>
			<path class="st4" d="M162.11,118.96c0,0.45,0.31,0.63,0.7,0.4c0.39-0.22,0.7-0.76,0.7-1.21c0-0.45-0.31-0.63-0.7-0.4
				C162.42,117.97,162.11,118.51,162.11,118.96z"/>
			<path class="st9" d="M159.64,120.38c0,0.45,0.31,0.63,0.7,0.4c0.39-0.22,0.7-0.76,0.7-1.21c0-0.45-0.31-0.63-0.7-0.4
				C159.96,119.39,159.64,119.93,159.64,120.38z"/>
			<path class="st9" d="M149.27,127.65l1.44-0.83c0.21-0.12,0.39-0.46,0.39-0.74v-1.52c0-0.29-0.17-0.42-0.39-0.29l-1.44,0.83
				c-0.21,0.12-0.39,0.46-0.39,0.74v1.52C148.88,127.64,149.05,127.77,149.27,127.65z"/>
		</g>
		<g>
			<path class="st7" d="M147.2,142.27l30.29-17.49c0.68-0.39,1.23-1.44,1.23-2.35v-5.78c0-0.9-0.55-1.32-1.23-0.93l-30.29,17.49
				c-0.68,0.39-1.23,1.44-1.23,2.35v5.78C145.97,142.25,146.52,142.66,147.2,142.27z"/>
			<path class="st11" d="M148.07,140.25l28.55-16.48c0.34-0.2,0.62-0.73,0.62-1.19v-4.34c0-0.46-0.28-0.67-0.62-0.47l-28.55,16.48
				c-0.34,0.2-0.62,0.73-0.62,1.19v4.34C147.44,140.24,147.72,140.45,148.07,140.25z"/>
			<path class="st4" d="M170.66,125.01l4.26-2.46c0.33-0.19,0.6-0.71,0.6-1.16l0,0c0-0.45-0.27-0.65-0.6-0.46l-4.26,2.46
				c-0.33,0.19-0.6,0.71-0.6,1.16l0,0C170.06,124.99,170.33,125.2,170.66,125.01z"/>
			<path class="st8" d="M166.25,126.85c0,0.84,0.59,1.18,1.32,0.76c0.73-0.42,1.32-1.44,1.32-2.28c0-0.84-0.59-1.18-1.32-0.76
				C166.85,124.98,166.25,126.01,166.25,126.85z"/>
			<path class="st9" d="M161.15,129.83c0,0.45,0.31,0.63,0.7,0.4c0.39-0.22,0.7-0.76,0.7-1.21c0-0.45-0.31-0.63-0.7-0.4
				C161.47,128.85,161.15,129.39,161.15,129.83z"/>
			<path class="st4" d="M158.69,131.25c0,0.45,0.31,0.63,0.7,0.4c0.39-0.22,0.7-0.76,0.7-1.21c0-0.45-0.31-0.63-0.7-0.4
				C159,130.27,158.69,130.81,158.69,131.25z"/>
			<path class="st9" d="M156.23,132.68c0,0.45,0.31,0.63,0.7,0.4c0.39-0.22,0.7-0.76,0.7-1.21c0-0.45-0.31-0.63-0.7-0.4
				C156.54,131.69,156.23,132.23,156.23,132.68z"/>
			<path class="st4" d="M149.27,137.83l1.44-0.83c0.21-0.12,0.39-0.46,0.39-0.74v-1.52c0-0.29-0.17-0.42-0.39-0.29l-1.44,0.83
				c-0.21,0.12-0.39,0.46-0.39,0.74v1.52C148.88,137.82,149.05,137.95,149.27,137.83z"/>
		</g>
	</g>
	<g>
		<g>
			<g>
				<path class="st2" d="M62.9,165.28L62.9,165.28V89.81l30-7.85l5.53-3.19c1.27-0.73,3.48-0.64,4.95,0.21l5.16,2.98l16-0.01
					l-4.74,72.86c0.04,0.5-0.24,0.97-0.85,1.33l-29.94,22.59c-1.27,0.73-3.48,0.64-4.95-0.21l-19.95-11.52
					C63.26,166.5,62.86,165.87,62.9,165.28z"/>
				<path class="st2" d="M100.73,78.27c0.93,0.02,1.89,0.26,2.65,0.7l5.16,2.98l16-0.01v75.67c0.04,0.5-0.24,0.97-0.85,1.33
					l-34.68,19.77c-0.61,0.35-1.44,0.51-2.3,0.49l-0.36-76.15L100.73,78.27z"/>
				<path class="st3" d="M88.69,178.87c-1.09,0.47-2.68,0.44-3.96-0.05v-76.67h3.96V178.87z"/>
				<path class="st3" d="M89.01,103.06l34.68-19.77c1.27-0.73,1.11-2.01-0.36-2.86l-19.95-11.52c-1.46-0.85-3.68-0.94-4.95-0.21
					L63.75,88.48c-1.27,0.73-1.11,2.01,0.36,2.86l19.95,11.52C85.53,103.7,87.74,103.8,89.01,103.06z"/>
				<path class="st5" d="M64.11,89.93l19.95,11.52c1.46,0.85,3.68,0.94,4.95,0.21l34.68-19.77c0.28-0.16,0.49-0.35,0.63-0.56
					c0.44,0.7,0.24,1.46-0.63,1.96l-34.68,19.77c-1.27,0.73-3.48,0.64-4.95-0.21L64.11,91.34c-1.14-0.66-1.48-1.57-0.99-2.3
					C63.32,89.36,63.65,89.67,64.11,89.93z"/>
				<g>
					<path class="st9" d="M88.03,95.05l23.09-13.38c0.59-0.34,0.52-0.94-0.17-1.34l-9.34-5.39c-0.69-0.4-1.72-0.44-2.32-0.1
						L76.21,88.22c-0.59,0.34-0.52,0.94,0.17,1.34l9.34,5.39C86.4,95.35,87.44,95.39,88.03,95.05z"/>
					<g>
						<path class="st4" d="M100.5,82.27l1.34-0.77c0.08-0.05,0.07-0.13-0.02-0.18l-1.29-0.75c-0.09-0.05-0.24-0.06-0.32-0.01
							l-1.34,0.77c-0.08,0.05-0.07,0.13,0.02,0.18l1.29,0.75C100.27,82.31,100.41,82.31,100.5,82.27z"/>
						<path class="st4" d="M96.03,84.84l1.34-0.77c0.08-0.05,0.07-0.13-0.02-0.18l-1.29-0.75c-0.09-0.05-0.24-0.06-0.32-0.01
							l-1.34,0.77c-0.08,0.05-0.07,0.13,0.02,0.18l1.29,0.75C95.8,84.88,95.94,84.88,96.03,84.84z"/>
						<path class="st4" d="M91.56,87.41l1.34-0.77c0.08-0.05,0.07-0.13-0.02-0.18l-1.29-0.75c-0.09-0.05-0.24-0.06-0.32-0.01
							l-1.34,0.77c-0.08,0.05-0.07,0.13,0.02,0.18l1.29,0.75C91.33,87.45,91.47,87.45,91.56,87.41z"/>
						<path class="st4" d="M87.09,89.98l1.34-0.77c0.08-0.05,0.07-0.13-0.02-0.18l-1.29-0.75c-0.09-0.05-0.24-0.06-0.32-0.01
							l-1.34,0.77c-0.08,0.05-0.07,0.13,0.02,0.18l1.29,0.75C86.86,90.02,87,90.02,87.09,89.98z"/>
					</g>
					<path class="st2" d="M111.12,81.66l-0.03,0.02c-0.05-0.03-0.09-0.07-0.14-0.1l-9.34-5.39c-0.69-0.4-1.72-0.44-2.32-0.1
						L76.24,89.47c-0.55-0.39-0.58-0.92-0.03-1.24L99.3,74.84c0.59-0.34,1.63-0.3,2.32,0.1l9.34,5.39
						C111.64,80.72,111.71,81.32,111.12,81.66z"/>
				</g>
			</g>
			<g>
				<path class="st7" d="M80.17,118.02l-13.13-7.52c-0.74-0.43-1.34-1.57-1.34-2.56v-4.69c0-0.98,0.6-1.44,1.34-1.01l13.13,7.52
					c0.74,0.43,1.34,1.57,1.34,2.56V117C81.5,117.99,80.91,118.44,80.17,118.02z"/>
				<path class="st8" d="M66.39,102.1c-0.21,0.19-0.34,0.53-0.34,0.98v4.69c0,0.98,0.6,2.13,1.34,2.56l13.13,7.52
					c0.24,0.14,0.46,0.17,0.65,0.14c-0.25,0.23-0.6,0.27-1,0.03l-13.13-7.52c-0.74-0.43-1.34-1.57-1.34-2.56v-4.69
					C65.7,102.58,65.98,102.17,66.39,102.1z"/>
				<g>
					<path class="st9" d="M76.22,112.92l-1.2-0.7c-0.16-0.09-0.29-0.34-0.29-0.56v-1.29c0-0.21,0.13-0.31,0.29-0.22l1.2,0.7
						c0.16,0.09,0.29,0.34,0.29,0.56v1.29C76.51,112.91,76.38,113.01,76.22,112.92z"/>
					<path class="st8" d="M72.19,110.59l-1.2-0.7c-0.16-0.09-0.29-0.34-0.29-0.56v-1.29c0-0.21,0.13-0.31,0.29-0.22l1.2,0.7
						c0.16,0.09,0.29,0.34,0.29,0.56v1.29C72.48,110.59,72.35,110.68,72.19,110.59z"/>
				</g>
			</g>
			<g>
				<path class="st7" d="M80.17,151.94l-13.13-7.52c-0.74-0.43-1.34-1.57-1.34-2.56v-4.69c0-0.98,0.6-1.44,1.34-1.01l13.13,7.52
					c0.74,0.43,1.34,1.57,1.34,2.56v4.69C81.5,151.91,80.91,152.37,80.17,151.94z"/>
				<path class="st8" d="M66.39,136.02c-0.21,0.19-0.34,0.53-0.34,0.98v4.69c0,0.98,0.6,2.13,1.34,2.56l13.13,7.52
					c0.24,0.14,0.46,0.17,0.65,0.14c-0.25,0.23-0.6,0.27-1,0.03l-13.13-7.52c-0.74-0.43-1.34-1.57-1.34-2.56v-4.69
					C65.7,136.5,65.98,136.09,66.39,136.02z"/>
				<g>
					<path class="st9" d="M76.22,146.84l-1.2-0.7c-0.16-0.09-0.29-0.34-0.29-0.56v-1.29c0-0.21,0.13-0.31,0.29-0.22l1.2,0.7
						c0.16,0.09,0.29,0.34,0.29,0.56v1.29C76.51,146.83,76.38,146.93,76.22,146.84z"/>
					<path class="st8" d="M72.19,144.52l-1.2-0.7c-0.16-0.09-0.29-0.34-0.29-0.56v-1.29c0-0.21,0.13-0.31,0.29-0.22l1.2,0.7
						c0.16,0.09,0.29,0.34,0.29,0.56v1.29C72.48,144.51,72.35,144.61,72.19,144.52z"/>
				</g>
			</g>
			<g>
				<path class="st7" d="M80.17,168.9l-13.13-7.52c-0.74-0.43-1.34-1.57-1.34-2.56v-4.69c0-0.98,0.6-1.44,1.34-1.01l13.13,7.52
					c0.74,0.43,1.34,1.57,1.34,2.56v4.69C81.5,168.88,80.91,169.33,80.17,168.9z"/>
				<path class="st8" d="M66.39,152.98c-0.21,0.19-0.34,0.53-0.34,0.98v4.69c0,0.98,0.6,2.13,1.34,2.56l13.13,7.52
					c0.24,0.14,0.46,0.17,0.65,0.14c-0.25,0.23-0.6,0.27-1,0.03l-13.13-7.52c-0.74-0.43-1.34-1.57-1.34-2.56v-4.69
					C65.7,153.47,65.98,153.05,66.39,152.98z"/>
				<g>
					<path class="st9" d="M76.22,163.8l-1.2-0.7c-0.16-0.09-0.29-0.34-0.29-0.56v-1.29c0-0.21,0.13-0.31,0.29-0.22l1.2,0.7
						c0.16,0.09,0.29,0.34,0.29,0.56v1.29C76.51,163.8,76.38,163.89,76.22,163.8z"/>
					<path class="st8" d="M72.19,161.48l-1.2-0.7c-0.16-0.09-0.29-0.34-0.29-0.56v-1.29c0-0.21,0.13-0.31,0.29-0.22l1.2,0.7
						c0.16,0.09,0.29,0.34,0.29,0.56v1.29C72.48,161.47,72.35,161.57,72.19,161.48z"/>
				</g>
			</g>
			<g>
				<path class="st7" d="M80.17,134.98l-13.13-7.52c-0.74-0.43-1.34-1.57-1.34-2.56v-4.69c0-0.98,0.6-1.44,1.34-1.01l13.13,7.52
					c0.74,0.43,1.34,1.57,1.34,2.56v4.69C81.5,134.95,80.91,135.4,80.17,134.98z"/>
				<path class="st8" d="M66.39,119.06c-0.21,0.19-0.34,0.53-0.34,0.98v4.69c0,0.98,0.6,2.13,1.34,2.56l13.13,7.52
					c0.24,0.14,0.46,0.17,0.65,0.14c-0.25,0.23-0.6,0.27-1,0.03l-13.13-7.52c-0.74-0.43-1.34-1.57-1.34-2.56v-4.69
					C65.7,119.54,65.98,119.13,66.39,119.06z"/>
				<g>
					<path class="st9" d="M76.22,129.88l-1.2-0.7c-0.16-0.09-0.29-0.34-0.29-0.56v-1.29c0-0.21,0.13-0.31,0.29-0.22l1.2,0.7
						c0.16,0.09,0.29,0.34,0.29,0.56v1.29C76.51,129.87,76.38,129.97,76.22,129.88z"/>
					<path class="st8" d="M72.19,127.55l-1.2-0.7c-0.16-0.09-0.29-0.34-0.29-0.56v-1.29c0-0.21,0.13-0.31,0.29-0.22l1.2,0.7
						c0.16,0.09,0.29,0.34,0.29,0.56v1.29C72.48,127.55,72.35,127.65,72.19,127.55z"/>
				</g>
			</g>
		</g>
		<g>
			<path class="st7" d="M91.54,113.21l30.29-17.49c0.68-0.39,1.23-1.44,1.23-2.35V87.6c0-0.9-0.55-1.32-1.23-0.93l-30.29,17.49
				c-0.68,0.39-1.23,1.44-1.23,2.35v5.78C90.31,113.19,90.86,113.6,91.54,113.21z"/>
			<path class="st11" d="M92.41,111.18l28.55-16.48c0.34-0.2,0.62-0.73,0.62-1.19v-4.34c0-0.46-0.28-0.67-0.62-0.47l-28.55,16.48
				c-0.34,0.2-0.62,0.73-0.62,1.19v4.34C91.78,111.17,92.06,111.38,92.41,111.18z"/>
			<path class="st4" d="M115.01,95.94l4.26-2.46c0.33-0.19,0.6-0.71,0.6-1.16l0,0c0-0.45-0.27-0.65-0.6-0.46l-4.26,2.46
				c-0.33,0.19-0.6,0.71-0.6,1.16l0,0C114.4,95.93,114.67,96.14,115.01,95.94z"/>
			<path class="st9" d="M111.38,97.23c0,0.45,0.31,0.63,0.7,0.4c0.39-0.22,0.7-0.76,0.7-1.21c0-0.45-0.31-0.63-0.7-0.4
				C111.69,96.25,111.38,96.79,111.38,97.23z"/>
			<path class="st9" d="M108.91,98.65c0,0.45,0.31,0.63,0.7,0.4c0.39-0.22,0.7-0.76,0.7-1.21c0-0.45-0.31-0.63-0.7-0.4
				C109.22,97.67,108.91,98.21,108.91,98.65z"/>
			<path class="st4" d="M106.45,100.08c0,0.45,0.31,0.63,0.7,0.4c0.39-0.22,0.7-0.76,0.7-1.21c0-0.45-0.31-0.63-0.7-0.4
				C106.76,99.09,106.45,99.63,106.45,100.08z"/>
			<path class="st9" d="M103.99,101.5c0,0.45,0.31,0.63,0.7,0.4c0.39-0.22,0.7-0.76,0.7-1.21c0-0.45-0.31-0.63-0.7-0.4
				C104.3,100.51,103.99,101.05,103.99,101.5z"/>
			<path class="st9" d="M93.61,108.77l1.44-0.83c0.21-0.12,0.39-0.46,0.39-0.74v-1.52c0-0.29-0.17-0.42-0.39-0.29l-1.44,0.83
				c-0.21,0.12-0.39,0.46-0.39,0.74v1.52C93.22,108.76,93.39,108.89,93.61,108.77z"/>
		</g>
		<g>
			<path class="st7" d="M91.54,123.39l30.29-17.49c0.68-0.39,1.23-1.44,1.23-2.35v-5.78c0-0.9-0.55-1.32-1.23-0.93l-30.29,17.49
				c-0.68,0.39-1.23,1.44-1.23,2.35v5.78C90.31,123.37,90.86,123.79,91.54,123.39z"/>
			<path class="st11" d="M92.41,121.37l28.55-16.48c0.34-0.2,0.62-0.73,0.62-1.19v-4.34c0-0.46-0.28-0.67-0.62-0.47l-28.55,16.48
				c-0.34,0.2-0.62,0.73-0.62,1.19v4.34C91.78,121.36,92.06,121.57,92.41,121.37z"/>
			<path class="st4" d="M115.01,106.13l4.26-2.46c0.33-0.19,0.6-0.71,0.6-1.16l0,0c0-0.45-0.27-0.65-0.6-0.46l-4.26,2.46
				c-0.33,0.19-0.6,0.71-0.6,1.16l0,0C114.4,106.11,114.67,106.32,115.01,106.13z"/>
			<path class="st8" d="M111.38,107.42c0,0.45,0.31,0.63,0.7,0.4c0.39-0.22,0.7-0.76,0.7-1.21c0-0.45-0.31-0.63-0.7-0.4
				C111.69,106.43,111.38,106.97,111.38,107.42z"/>
			<path class="st9" d="M108.91,108.84c0,0.45,0.31,0.63,0.7,0.4c0.39-0.22,0.7-0.76,0.7-1.21c0-0.45-0.31-0.63-0.7-0.4
				C109.22,107.85,108.91,108.39,108.91,108.84z"/>
			<path class="st4" d="M106.45,110.26c0,0.45,0.31,0.63,0.7,0.4c0.39-0.22,0.7-0.76,0.7-1.21c0-0.45-0.31-0.63-0.7-0.4
				C106.76,109.27,106.45,109.82,106.45,110.26z"/>
			<path class="st9" d="M103.99,111.68c0,0.45,0.31,0.63,0.7,0.4c0.39-0.22,0.7-0.76,0.7-1.21c0-0.45-0.31-0.63-0.7-0.4
				C104.3,110.7,103.99,111.24,103.99,111.68z"/>
			<path class="st9" d="M93.61,118.95l1.44-0.83c0.21-0.12,0.39-0.46,0.39-0.74v-1.52c0-0.29-0.17-0.42-0.39-0.29l-1.44,0.83
				c-0.21,0.12-0.39,0.46-0.39,0.74v1.52C93.22,118.94,93.39,119.07,93.61,118.95z"/>
		</g>
		<g>
			<path class="st7" d="M91.54,133.58l30.29-17.49c0.68-0.39,1.23-1.44,1.23-2.35v-5.78c0-0.9-0.55-1.32-1.23-0.93l-30.29,17.49
				c-0.68,0.39-1.23,1.44-1.23,2.35v5.78C90.31,133.55,90.86,133.97,91.54,133.58z"/>
			<path class="st11" d="M92.41,131.55l28.55-16.48c0.34-0.2,0.62-0.73,0.62-1.19v-4.34c0-0.46-0.28-0.67-0.62-0.47l-28.55,16.48
				c-0.34,0.2-0.62,0.73-0.62,1.19v4.34C91.78,131.54,92.06,131.75,92.41,131.55z"/>
			<path class="st4" d="M115.01,116.31l4.26-2.46c0.33-0.19,0.6-0.71,0.6-1.16l0,0c0-0.45-0.27-0.65-0.6-0.46l-4.26,2.46
				c-0.33,0.19-0.6,0.71-0.6,1.16l0,0C114.4,116.3,114.67,116.5,115.01,116.31z"/>
			<path class="st8" d="M111.38,117.6c0,0.45,0.31,0.63,0.7,0.4c0.39-0.22,0.7-0.76,0.7-1.21c0-0.45-0.31-0.63-0.7-0.4
				C111.69,116.61,111.38,117.16,111.38,117.6z"/>
			<path class="st9" d="M108.91,119.02c0,0.45,0.31,0.63,0.7,0.4c0.39-0.22,0.7-0.76,0.7-1.21c0-0.45-0.31-0.63-0.7-0.4
				C109.22,118.04,108.91,118.58,108.91,119.02z"/>
			<path class="st4" d="M106.45,120.44c0,0.45,0.31,0.63,0.7,0.4c0.39-0.22,0.7-0.76,0.7-1.21c0-0.45-0.31-0.63-0.7-0.4
				C106.76,119.46,106.45,120,106.45,120.44z"/>
			<path class="st9" d="M103.99,121.87c0,0.45,0.31,0.63,0.7,0.4c0.39-0.22,0.7-0.76,0.7-1.21c0-0.45-0.31-0.63-0.7-0.4
				C104.3,120.88,103.99,121.42,103.99,121.87z"/>
			<path class="st9" d="M93.61,129.14l1.44-0.83c0.21-0.12,0.39-0.46,0.39-0.74v-1.52c0-0.29-0.17-0.42-0.39-0.29l-1.44,0.83
				c-0.21,0.12-0.39,0.46-0.39,0.74v1.52C93.22,129.13,93.39,129.26,93.61,129.14z"/>
		</g>
		<g>
			<path class="st7" d="M91.54,143.76l30.29-17.49c0.68-0.39,1.23-1.44,1.23-2.35v-5.78c0-0.9-0.55-1.32-1.23-0.93l-30.29,17.49
				c-0.68,0.39-1.23,1.44-1.23,2.35v5.78C90.31,143.74,90.86,144.15,91.54,143.76z"/>
			<path class="st11" d="M92.41,141.74l28.55-16.48c0.34-0.2,0.62-0.73,0.62-1.19v-4.34c0-0.46-0.28-0.67-0.62-0.47l-28.55,16.48
				c-0.34,0.2-0.62,0.73-0.62,1.19v4.34C91.78,141.72,92.06,141.94,92.41,141.74z"/>
			<path class="st4" d="M115.01,126.49l4.26-2.46c0.33-0.19,0.6-0.71,0.6-1.16l0,0c0-0.45-0.27-0.65-0.6-0.46l-4.26,2.46
				c-0.33,0.19-0.6,0.71-0.6,1.16l0,0C114.4,126.48,114.67,126.69,115.01,126.49z"/>
			<path class="st9" d="M111.38,127.78c0,0.45,0.31,0.63,0.7,0.4c0.39-0.22,0.7-0.76,0.7-1.21c0-0.45-0.31-0.63-0.7-0.4
				C111.69,126.8,111.38,127.34,111.38,127.78z"/>
			<path class="st9" d="M108.91,129.21c0,0.45,0.31,0.63,0.7,0.4c0.39-0.22,0.7-0.76,0.7-1.21c0-0.45-0.31-0.63-0.7-0.4
				C109.22,128.22,108.91,128.76,108.91,129.21z"/>
			<path class="st4" d="M106.45,130.63c0,0.45,0.31,0.63,0.7,0.4c0.39-0.22,0.7-0.76,0.7-1.21c0-0.45-0.31-0.63-0.7-0.4
				C106.76,129.64,106.45,130.18,106.45,130.63z"/>
			<path class="st9" d="M103.99,132.05c0,0.45,0.31,0.63,0.7,0.4c0.39-0.22,0.7-0.76,0.7-1.21c0-0.45-0.31-0.63-0.7-0.4
				C104.3,131.06,103.99,131.61,103.99,132.05z"/>
			<path class="st4" d="M93.61,139.32l1.44-0.83c0.21-0.12,0.39-0.46,0.39-0.74v-1.52c0-0.29-0.17-0.42-0.39-0.29l-1.44,0.83
				c-0.21,0.12-0.39,0.46-0.39,0.74v1.52C93.22,139.31,93.39,139.44,93.61,139.32z"/>
		</g>
		<g>
			<path class="st7" d="M91.54,153.95l30.29-17.49c0.68-0.39,1.23-1.44,1.23-2.35v-5.78c0-0.9-0.55-1.32-1.23-0.93L91.54,144.9
				c-0.68,0.39-1.23,1.44-1.23,2.35v5.78C90.31,153.92,90.86,154.34,91.54,153.95z"/>
			<path class="st11" d="M92.41,151.92l28.55-16.48c0.34-0.2,0.62-0.73,0.62-1.19v-4.34c0-0.46-0.28-0.67-0.62-0.47l-28.55,16.48
				c-0.34,0.2-0.62,0.73-0.62,1.19v4.34C91.78,151.91,92.06,152.12,92.41,151.92z"/>
			<path class="st4" d="M115.01,136.68l4.26-2.46c0.33-0.19,0.6-0.71,0.6-1.16l0,0c0-0.45-0.27-0.65-0.6-0.46l-4.26,2.46
				c-0.33,0.19-0.6,0.71-0.6,1.16l0,0C114.4,136.67,114.67,136.87,115.01,136.68z"/>
			<path class="st9" d="M111.38,137.97c0,0.45,0.31,0.63,0.7,0.4c0.39-0.22,0.7-0.76,0.7-1.21c0-0.45-0.31-0.63-0.7-0.4
				C111.69,136.98,111.38,137.52,111.38,137.97z"/>
			<path class="st8" d="M108.91,139.39c0,0.45,0.31,0.63,0.7,0.4c0.39-0.22,0.7-0.76,0.7-1.21c0-0.45-0.31-0.63-0.7-0.4
				C109.22,138.4,108.91,138.95,108.91,139.39z"/>
			<path class="st4" d="M106.45,140.81c0,0.45,0.31,0.63,0.7,0.4c0.39-0.22,0.7-0.76,0.7-1.21c0-0.45-0.31-0.63-0.7-0.4
				C106.76,139.83,106.45,140.37,106.45,140.81z"/>
			<path class="st8" d="M103.99,142.24c0,0.45,0.31,0.63,0.7,0.4c0.39-0.22,0.7-0.76,0.7-1.21c0-0.45-0.31-0.63-0.7-0.4
				C104.3,141.25,103.99,141.79,103.99,142.24z"/>
			<path class="st4" d="M93.61,149.5l1.44-0.83c0.21-0.12,0.39-0.46,0.39-0.74v-1.52c0-0.29-0.17-0.42-0.39-0.29l-1.44,0.83
				c-0.21,0.12-0.39,0.46-0.39,0.74v1.52C93.22,149.5,93.39,149.63,93.61,149.5z"/>
		</g>
		<g>
			<path class="st7" d="M91.54,164.13l30.29-17.49c0.68-0.39,1.23-1.44,1.23-2.35v-5.78c0-0.9-0.55-1.32-1.23-0.93l-30.29,17.49
				c-0.68,0.39-1.23,1.44-1.23,2.35v5.78C90.31,164.11,90.86,164.52,91.54,164.13z"/>
			<path class="st11" d="M92.41,162.11l28.55-16.48c0.34-0.2,0.62-0.73,0.62-1.19v-4.34c0-0.46-0.28-0.67-0.62-0.47L92.41,156.1
				c-0.34,0.2-0.62,0.73-0.62,1.19v4.34C91.78,162.09,92.06,162.3,92.41,162.11z"/>
			<path class="st4" d="M115.01,146.86l4.26-2.46c0.33-0.19,0.6-0.71,0.6-1.16l0,0c0-0.45-0.27-0.65-0.6-0.46l-4.26,2.46
				c-0.33,0.19-0.6,0.71-0.6,1.16l0,0C114.4,146.85,114.67,147.06,115.01,146.86z"/>
			<path class="st9" d="M111.38,148.15c0,0.45,0.31,0.63,0.7,0.4c0.39-0.22,0.7-0.76,0.7-1.21c0-0.45-0.31-0.63-0.7-0.4
				C111.69,147.17,111.38,147.71,111.38,148.15z"/>
			<path class="st9" d="M108.91,149.57c0,0.45,0.31,0.63,0.7,0.4c0.39-0.22,0.7-0.76,0.7-1.21c0-0.45-0.31-0.63-0.7-0.4
				C109.22,148.59,108.91,149.13,108.91,149.57z"/>
			<path class="st4" d="M106.45,151c0,0.45,0.31,0.63,0.7,0.4c0.39-0.22,0.7-0.76,0.7-1.21c0-0.45-0.31-0.63-0.7-0.4
				C106.76,150.01,106.45,150.55,106.45,151z"/>
			<path class="st9" d="M103.99,152.42c0,0.45,0.31,0.63,0.7,0.4c0.39-0.22,0.7-0.76,0.7-1.21c0-0.45-0.31-0.63-0.7-0.4
				C104.3,151.43,103.99,151.97,103.99,152.42z"/>
			<path class="st9" d="M93.61,159.69l1.44-0.83c0.21-0.12,0.39-0.46,0.39-0.74v-1.52c0-0.29-0.17-0.42-0.39-0.29l-1.44,0.83
				c-0.21,0.12-0.39,0.46-0.39,0.74v1.52C93.22,159.68,93.39,159.81,93.61,159.69z"/>
		</g>
		<g>
			<path class="st7" d="M91.54,174.31l30.29-17.49c0.68-0.39,1.23-1.44,1.23-2.35v-5.78c0-0.9-0.55-1.32-1.23-0.93l-30.29,17.49
				c-0.68,0.39-1.23,1.44-1.23,2.35v5.78C90.31,174.29,90.86,174.71,91.54,174.31z"/>
			<path class="st11" d="M92.41,172.29l28.55-16.48c0.34-0.2,0.62-0.73,0.62-1.19v-4.34c0-0.46-0.28-0.67-0.62-0.47l-28.55,16.48
				c-0.34,0.2-0.62,0.73-0.62,1.19v4.34C91.78,172.28,92.06,172.49,92.41,172.29z"/>
			<path class="st4" d="M115.01,157.05l4.26-2.46c0.33-0.19,0.6-0.71,0.6-1.16l0,0c0-0.45-0.27-0.65-0.6-0.46l-4.26,2.46
				c-0.33,0.19-0.6,0.71-0.6,1.16l0,0C114.4,157.03,114.67,157.24,115.01,157.05z"/>
			<path class="st8" d="M110.6,158.89c0,0.84,0.59,1.18,1.32,0.76c0.73-0.42,1.32-1.44,1.32-2.28c0-0.84-0.59-1.18-1.32-0.76
				C111.19,157.02,110.6,158.05,110.6,158.89z"/>
			<path class="st9" d="M105.49,161.87c0,0.45,0.31,0.63,0.7,0.4c0.39-0.22,0.7-0.76,0.7-1.21s-0.31-0.63-0.7-0.4
				C105.81,160.89,105.49,161.43,105.49,161.87z"/>
			<path class="st4" d="M103.03,163.3c0,0.45,0.31,0.63,0.7,0.4c0.39-0.22,0.7-0.76,0.7-1.21c0-0.45-0.31-0.63-0.7-0.4
				C103.34,162.31,103.03,162.85,103.03,163.3z"/>
			<path class="st9" d="M100.57,164.72c0,0.45,0.31,0.63,0.7,0.4s0.7-0.76,0.7-1.21c0-0.45-0.31-0.63-0.7-0.4
				S100.57,164.27,100.57,164.72z"/>
			<path class="st4" d="M93.61,169.87l1.44-0.83c0.21-0.12,0.39-0.46,0.39-0.74v-1.52c0-0.29-0.17-0.42-0.39-0.29l-1.44,0.83
				c-0.21,0.12-0.39,0.46-0.39,0.74v1.52C93.22,169.86,93.39,170,93.61,169.87z"/>
		</g>
	</g>
	<path class="st3" d="M101.57,44.85l34.68-19.77c1.27-0.73,1.11-2.01-0.36-2.86L115.94,10.7c-1.46-0.85-3.68-0.94-4.95-0.21
		L76.31,30.27c-1.27,0.73-1.11,2.01,0.36,2.86l19.95,11.52C98.08,45.49,100.3,45.58,101.57,44.85z"/>
	<path class="st3" d="M45.91,76.89l34.68-19.77c1.27-0.73,1.11-2.01-0.36-2.86L60.28,42.74c-1.46-0.85-3.68-0.94-4.95-0.21
		L20.65,62.31c-1.27,0.73-1.11,2.01,0.36,2.86l19.95,11.52C42.42,77.53,44.64,77.63,45.91,76.89z"/>
	<path class="st3" d="M144.67,69.65l34.68-19.77c1.27-0.73,1.11-2.01-0.36-2.86l-19.95-11.52c-1.46-0.85-3.68-0.94-4.95-0.21
		l-34.68,19.77c-1.27,0.73-1.11,2.01,0.36,2.86l19.95,11.52C141.19,70.29,143.4,70.38,144.67,69.65z"/>
	<path class="st7" d="M60.63,54.6c-0.5-0.29-1.3-0.29-1.8,0l-16.99,9.83c-0.5,0.29-0.5,0.75,0,1.04c0.5,0.29,1.3,0.29,1.8,0
		l16.99-9.83C61.12,55.35,61.12,54.88,60.63,54.6z"/>
</g>
</svg>
