<?xml version="1.0" encoding="utf-8"?>
<!-- Generator: Adobe Illustrator 24.3.0, SVG Export Plug-In . SVG Version: 6.00 Build 0)  -->
<svg version="1.1" id="Layer_1" xmlns="http://www.w3.org/2000/svg" xmlns:xlink="http://www.w3.org/1999/xlink" x="0px" y="0px"
	 viewBox="0 0 200 200" style="enable-background:new 0 0 200 200;" xml:space="preserve">
<style type="text/css">
	.st0{fill:#173D7A;}
	.st1{opacity:0.2;fill:#173D7A;}
	.st2{fill:#4BC2C8;}
	.st3{fill:#B3FFFD;}
	.st4{fill:#D4ECFF;}
	.st5{fill:#FAFDFF;}
	.st6{fill:#5793CE;}
	.st7{fill:#085B57;}
	.st8{fill:#FFFFFF;}
	.st9{fill:#033D39;}
	.st10{fill:#396CAA;}
	.st11{opacity:0.4;fill:#D4ECFF;}
	.st12{fill:url(#SVGID_1_);}
	.st13{fill:url(#SVGID_2_);}
	.st14{fill:#FF2C9C;}
	.st15{enable-background:new    ;}
	.st16{fill:#727272;}
	.st17{clip-path:url(#SVGID_4_);enable-background:new    ;}
	.st18{clip-path:url(#SVGID_6_);}
	.st19{clip-path:url(#SVGID_8_);fill:#4BC2C8;}
	.st20{clip-path:url(#SVGID_10_);fill:#4BC2C8;}
</style>
<g>
	<path class="st1" d="M104.9,189.41L39.1,150.6c-1.52-0.88-1.33-2.41,0.43-3.42l43.97-25.45c1.76-1.01,4.41-1.12,5.93-0.25
		l65.8,38.81c1.52,0.88,1.33,2.41-0.43,3.42l-43.97,25.45C109.08,190.18,106.42,190.29,104.9,189.41z"/>
	<g class="st15">
		<path class="st16" d="M88,156.09l33.99-19.75c0.41-0.24,0.67-0.74,0.69-1.44l-33.99,19.75C88.67,155.35,88.41,155.85,88,156.09
			L88,156.09z"/>
	</g>
	<path class="st7" d="M66.75,47.12c0.36-0.21,0.83-0.23,1.37-0.01l6.48,2.66L40.61,69.53l-6.48-2.67c-0.54-0.22-1.01-0.2-1.37,0.01
		L66.75,47.12z"/>
	<path class="st7" d="M88.92,146.92l-0.23,7.73c-0.02,0.7-0.28,1.2-0.69,1.44c11.33-6.58,22.66-13.16,33.99-19.75
		c0.41-0.24,0.67-0.74,0.69-1.44l0.23-7.73L88.92,146.92z"/>
	<path class="st7" d="M76.84,16.36c1.93-1.12,4.48,3.24,8.3,8.18L51.15,44.29c-3.63-4.36-6.34-9.31-8.37-8.12
		C54.11,29.58,65.51,22.94,76.84,16.36z"/>
	<path class="st9" d="M58.08,51.91l33.99-19.75c-6.08,3.53-9.93,10.93-10.25,21.5c-1.11,36.31,37.98,77.85,60.4,64.82
		c-11.33,6.59-22.66,13.17-33.98,19.75c-22.26,12.93-61.52-28.26-60.4-64.82C48.15,62.84,52,55.44,58.08,51.91z"/>
	<path class="st7" d="M118.69,154.63l-4.1-8.39l33.99-19.75l4.09,8.39c0.76,1.55,0.67,3.06-0.18,3.55
		c-11.33,6.59-22.66,13.17-33.99,19.76C119.35,157.69,119.45,156.19,118.69,154.63z"/>
	<g class="st15">
		<defs>
			<path id="SVGID_3_" class="st15" d="M86.96,23.34L52.97,43.1c2.99-1.74,6.42-2.71,10.21-2.84l33.99-19.75
				C93.39,20.63,89.95,21.61,86.96,23.34z"/>
		</defs>
		<use xlink:href="#SVGID_3_"  style="overflow:visible;fill:#69BBFF;"/>
		<clipPath id="SVGID_1_">
			<use xlink:href="#SVGID_3_"  style="overflow:visible;"/>
		</clipPath>
		<g style="clip-path:url(#SVGID_1_);enable-background:new    ;">
			<path class="st11" d="M63.18,40.26l33.99-19.75c-3.78,0.12-7.22,1.1-10.21,2.84L52.97,43.1C55.96,41.36,59.39,40.38,63.18,40.26
				L63.18,40.26z"/>
		</g>
	</g>
	<g class="st15">
		<defs>
			<path id="SVGID_5_" class="st15" d="M114.59,146.25l33.99-19.75c3.37-2.32,6.11-5.7,8.02-10.07l-33.99,19.75
				C120.7,140.55,117.97,143.93,114.59,146.25z"/>
		</defs>
		<use xlink:href="#SVGID_5_"  style="overflow:visible;fill:#5793CE;"/>
		<clipPath id="SVGID_2_">
			<use xlink:href="#SVGID_5_"  style="overflow:visible;"/>
		</clipPath>
		<g style="clip-path:url(#SVGID_2_);">
			<path class="st6" d="M114.59,146.25l33.99-19.75c3.37-2.32,6.11-5.7,8.02-10.07l-33.99,19.75
				C120.7,140.55,117.97,143.93,114.59,146.25L114.59,146.25z"/>
		</g>
	</g>
	<path class="st3" d="M95.84,10.16c0.26-0.15,0.59-0.2,0.97-0.12l9.15,1.81L71.96,31.6l-9.15-1.81c-0.38-0.08-0.71-0.03-0.97,0.12
		L95.84,10.16z"/>
	<path class="st7" d="M108.99,15.37c-0.34-1.39-1.63-3.25-3.04-3.52L71.96,31.6c1.36,0.26,2.68,2.07,3.03,3.52l1.92,7.9l33.99-19.75
		L108.99,15.37z"/>
	<path class="st3" d="M131.93,140.96l1.99-9.7l33.99-19.75l-1.99,9.7c-0.1,0.48-0.34,0.82-0.65,1
		c-11.33,6.59-22.66,13.17-33.99,19.75C131.59,141.78,131.82,141.45,131.93,140.96z"/>
	<path class="st7" d="M125.67,121.68l33.99-19.75c5.41,4.43,7.74,5.66,8.23,8.38c0.01,0.08,0.02,0.15,0.03,0.22
		c0.04,0.35,0.06,0.68-0.01,0.98l-33.99,19.75c0.06-0.3,0.05-0.64,0.01-0.98c-0.01-0.07-0.02-0.15-0.03-0.22
		C133.44,127.52,131.32,126.31,125.67,121.68z"/>
	<g>
		<g>
			<path class="st3" d="M84.62,63.75c14.61,8.43,26.41,28.88,26.37,45.66c-0.05,16.78-11.93,23.56-26.54,15.12
				c-14.61-8.43-26.41-28.88-26.36-45.66C58.13,62.09,70.02,55.32,84.62,63.75z"/>
		</g>
		<path class="st2" d="M103.38,66.17c-7.36-7.77-12.51-18.98-21.72-13.62l-16.79,9.88c4.81-2.8,11.47-2.4,18.82,1.84
			c22.52,13.03,35.48,52.85,18.65,62.63l16.79-9.88C126.42,111.82,118.58,81.79,103.38,66.17z"/>
	</g>
	<g>
		<defs>
			<path id="SVGID_7_" d="M92.25,52.44l33.99-19.75c-2.48-2.04-5.03-3.9-7.63-5.49c-0.45-0.27-0.9-0.55-1.34-0.8
				c-2.17-1.25-4.28-2.29-6.35-3.13L76.91,43.02c2.07,0.84,4.19,1.88,6.35,3.13c0.45,0.26,0.89,0.52,1.34,0.8
				C87.21,48.54,89.76,50.39,92.25,52.44z"/>
		</defs>
		<use xlink:href="#SVGID_7_"  style="overflow:visible;fill:#69BBFF;"/>
		<clipPath id="SVGID_4_">
			<use xlink:href="#SVGID_7_"  style="overflow:visible;"/>
		</clipPath>
		<path style="clip-path:url(#SVGID_4_);fill:#4BC2C8;" d="M110.9,23.27c5.49,2.23,10.67,5.58,15.33,9.42L92.25,52.44
			c-4.6-3.79-9.76-7.16-15.33-9.42L110.9,23.27z"/>
	</g>
	<path class="st3" d="M129.09,26.75c0.45-0.26,1.07-0.2,1.72,0.17c0.8,0.46,9.18,9.32,9.82,9.98l-33.99,19.75
		c-7.54-7.83-9.8-11.15-11.54-10.14L129.09,26.75z"/>
	<g>
		<defs>
			<path id="SVGID_9_" d="M116.95,84.67l33.99-19.75c-0.85-1.73-1.74-3.47-2.69-5.18c-2.59-4.68-5.5-9.09-8.63-13.13l-33.99,19.75
				c3.13,4.05,6.04,8.45,8.63,13.14C115.21,81.2,116.1,82.93,116.95,84.67z"/>
		</defs>
		<use xlink:href="#SVGID_9_"  style="overflow:visible;fill:#69BBFF;"/>
		<clipPath id="SVGID_6_">
			<use xlink:href="#SVGID_9_"  style="overflow:visible;"/>
		</clipPath>
		<path style="clip-path:url(#SVGID_6_);fill:#4BC2C8;" d="M148.25,59.74c-0.25-0.45-0.5-0.89-0.75-1.34
			c-2.4-4.19-5.05-8.14-7.88-11.8l-33.99,19.75c2.83,3.66,5.49,7.61,7.88,11.8c0.25,0.44,0.5,0.89,0.75,1.34
			c0.94,1.7,1.84,3.44,2.69,5.18l33.99-19.75C150.09,63.18,149.19,61.45,148.25,59.74z"/>
	</g>
	<path class="st7" d="M125.39,86.6c0.16,0.27,0.29,0.56,0.4,0.87l33.99-19.75c-0.11-0.3-0.24-0.59-0.4-0.86
		c0-0.01-0.01-0.02-0.01-0.02c-0.03-0.05-0.06-0.08-0.09-0.13c-0.58-0.94-1.66-2.05-2.75-2.01l-5.59,0.22l-33.99,19.75
		c5.51-0.22,5.87-0.62,7.2,0.46c0.15,0.12,0.3,0.26,0.44,0.41C124.86,85.83,125.13,86.13,125.39,86.6z"/>
	<path class="st2" d="M157.66,83.49l-33.99,19.75c1.5,6.19,2.18,12.25,2.02,17.92c-0.01,0.17-0.03,0.34-0.03,0.52l33.99-19.75
		c0-0.18,0.01-0.35,0.03-0.52C159.84,95.73,159.16,89.68,157.66,83.49z"/>
	<path class="st3" d="M130.32,99.83l-4.53-12.37l33.99-19.75l4.53,12.37c0.51,1.39,0.31,2.6-0.42,3.02l-33.99,19.75
		C130.62,102.43,130.82,101.22,130.32,99.83z"/>
	<g>
		<path class="st3" d="M40.61,69.53c0-0.18,0-0.35,0-0.54c0.18-5.76,1.23-10.73,2.99-14.85l-5.41-6.99
			c-1.13-1.46-1.47-3.36-0.77-4.26l5.09-6.49c0.46-0.58,1.25-0.58,2.05-0.11c0.43,0.25,0.87,0.63,1.29,1.13l5.32,6.87
			c3.36-2.48,7.42-3.88,12-4.03l-1.91-7.88c-0.41-1.68,0.28-2.85,1.55-2.59l9.15,1.81c0.25,0.05,0.5,0.15,0.76,0.3
			c1.01,0.59,1.95,1.87,2.28,3.23l1.92,7.9c2.07,0.84,4.19,1.88,6.35,3.13c0.45,0.26,0.89,0.52,1.34,0.8
			c2.6,1.59,5.15,3.44,7.63,5.49l2.33-5.32c0.38-0.86,1.29-1,2.25-0.45c0.3,0.17,0.6,0.41,0.89,0.71l8.93,9.26
			c1.23,1.28,1.83,3.24,1.32,4.36l-2.33,5.34c3.13,4.05,6.04,8.45,8.63,13.14c0.94,1.7,1.84,3.44,2.69,5.18l5.59-0.22
			c0.36-0.02,0.75,0.1,1.13,0.33c0.86,0.49,1.69,1.51,2.12,2.68l4.53,12.37c0.62,1.71,0.17,3.13-1,3.18l-5.65,0.23
			c1.5,6.19,2.18,12.25,2.02,17.92c-0.01,0.17-0.03,0.34-0.03,0.52l6.4,5.24c1.29,1.06,2.13,3,1.85,4.34l-1.99,9.7
			c-0.25,1.16-1.25,1.48-2.36,0.84c-0.16-0.09-0.33-0.21-0.5-0.34l-6.46-5.28c-1.91,4.37-4.65,7.75-8.02,10.07l4.1,8.39
			c0.82,1.68,0.64,3.31-0.4,3.65l-7.58,2.48c-0.44,0.14-0.97,0.03-1.49-0.27c-0.71-0.42-1.42-1.18-1.89-2.15l-4.14-8.48
			c-4.35,0.16-9.15-0.8-14.25-2.95l-0.23,7.73c-0.04,1.47-1.11,2.04-2.48,1.24l-9.62-5.91c-1.33-0.81-2.37-2.69-2.33-4.2l0.24-7.72
			c-4.95-4.01-9.62-8.85-13.87-14.34l-4.54,3.21c-0.47,0.33-1.13,0.26-1.79-0.12c-0.57-0.33-1.14-0.89-1.61-1.63l-7.16-11.52
			c-0.98-1.57-1.07-3.38-0.17-4l4.51-3.18c-3.19-6.42-5.6-12.94-7.16-19.32l-6.57-2.7c-0.11-0.05-0.23-0.1-0.34-0.16
			c-1.17-0.68-2.2-2.27-2.38-3.75l-1.34-11.74c-0.18-1.62,0.73-2.5,2.05-1.96L40.61,69.53z M57.31,108.02
			c6.44,11.63,15.19,21.23,24.62,27.01c0.37,0.22,0.73,0.44,1.09,0.64c19.24,11.11,34.79,2.78,35.45-18.95
			c0.33-10.67-3.04-22.95-9.48-34.59C102.54,70.49,93.8,60.9,84.37,55.12c-0.38-0.24-0.75-0.47-1.12-0.68
			c-19.2-11.08-34.77-2.75-35.42,18.97C47.5,84.08,50.87,96.37,57.31,108.02L57.31,108.02z"/>
	</g>
	<path class="st7" d="M107.96,61.01c0.11-0.25,0.16-0.56,0.16-0.88c0-0.09-0.01-0.19-0.01-0.29c-0.02-0.24-0.06-0.5-0.13-0.76
		c-0.03-0.1-0.04-0.2-0.08-0.3c-0.12-0.35-0.26-0.71-0.46-1.04c-0.22-0.39-0.5-0.76-0.81-1.09l33.99-19.75
		c0.31,0.32,0.58,0.69,0.81,1.08c0,0,0.01,0.01,0.01,0.01c0.19,0.34,0.33,0.69,0.45,1.04c0.03,0.1,0.05,0.2,0.08,0.29
		c0.07,0.27,0.11,0.52,0.13,0.77c0.01,0.1,0.01,0.19,0.01,0.28c-0.01,0.33-0.05,0.63-0.16,0.88l-2.33,5.35l-33.99,19.75
		L107.96,61.01z"/>
</g>
</svg>
