<?xml version="1.0" encoding="utf-8"?>
<!-- Generator: Adobe Illustrator 24.3.0, SVG Export Plug-In . SVG Version: 6.00 Build 0)  -->
<svg version="1.1" id="Layer_1" xmlns="http://www.w3.org/2000/svg" xmlns:xlink="http://www.w3.org/1999/xlink" x="0px" y="0px"
	 viewBox="0 0 200 200" style="enable-background:new 0 0 200 200;" xml:space="preserve">
<style type="text/css">
	.st0{fill:#173D7A;}
	.st1{opacity:0.2;fill:#173D7A;}
	.st2{fill:#4BC2C8;}
	.st3{fill:#B3FFFD;}
	.st4{fill:#D4ECFF;}
	.st5{fill:#FAFDFF;}
	.st6{fill:#5793CE;}
	.st7{fill:#085B57;}
	.st8{fill:#FFFFFF;}
	.st9{fill:#033D39;}
	.st10{fill:#396CAA;}
	.st11{opacity:0.4;fill:#D4ECFF;}
	.st12{fill:url(#SVGID_1_);}
	.st13{fill:url(#SVGID_2_);}
	.st14{fill:#FF2C9C;}
	.st15{enable-background:new    ;}
	.st16{fill:#727272;}
	.st17{clip-path:url(#SVGID_4_);enable-background:new    ;}
	.st18{clip-path:url(#SVGID_6_);}
	.st19{clip-path:url(#SVGID_8_);fill:#4BC2C8;}
	.st20{clip-path:url(#SVGID_10_);fill:#4BC2C8;}
</style>
<g>
	<path class="st1" d="M96.07,189.39L53.3,164.7c-1.57-0.9-1.37-2.49,0.44-3.53l45.32-26.23c1.81-1.04,4.55-1.16,6.11-0.25
		l42.76,24.69c1.57,0.9,1.37,2.49-0.44,3.53l-45.32,26.23C100.37,190.18,97.63,190.29,96.07,189.39z"/>
	<g>
		<g>
			<g>
				<g>
					<g>
						<g>
							<path class="st2" d="M99.15,66.82c0,0-23.48,2.24-37.62,3.32l37.5,106.81l49.61-28.61c0.01,0,0.02-0.01,0.02-0.01l0.09-0.05
								l0,0c0.62-0.39,1.01-1.24,1.01-2.45V41.42c0-1.1-0.33-2.29-0.86-3.33L99.15,66.82z"/>
							<path class="st3" d="M146.7,35.55l-43.63-25.19c-0.76-0.44-1.45-0.47-1.99-0.17l0,0L51.28,38.93l2.35,8.68l12.49,35.57
								l2.35,1.36l80.45-46.45C148.35,36.99,147.57,36.06,146.7,35.55z"/>
							<path class="st2" d="M96.93,176.85L53.3,151.67c-1.7-0.98-3.07-3.61-3.07-5.87V41.4c0-2.26,1.38-3.3,3.07-2.32l43.63,25.19
								c1.7,0.98,3.07,3.61,3.07,5.87v104.4C100,176.79,98.62,177.83,96.93,176.85z"/>
							<path class="st8" d="M97.86,63.74L54.24,38.55c-0.98-0.57-1.85-0.45-2.42,0.18c0.44-0.07,0.94,0.04,1.48,0.35l43.63,25.19
								c1.7,0.98,3.07,3.61,3.07,5.87v104.4c0,0.95-0.25,1.69-0.66,2.14c0.95-0.15,1.59-1.12,1.59-2.67V69.61
								C100.94,67.35,99.56,64.72,97.86,63.74z"/>
							
								<linearGradient id="SVGID_1_" gradientUnits="userSpaceOnUse" x1="-376.7895" y1="1664.1047" x2="-327.7919" y2="1653.0018" gradientTransform="matrix(0.866 0.5 0 1.1547 377.9794 -1632.0955)">
								<stop  offset="0" style="stop-color:#3919BB"/>
								<stop  offset="1" style="stop-color:#6507FA"/>
							</linearGradient>
							<path class="st12" d="M94.18,170.57l-38.14-22.02c-1.48-0.86-2.69-3.15-2.69-5.13V46.46c0-1.98,1.2-2.89,2.69-2.03
								l38.14,22.02c1.48,0.86,2.69,3.15,2.69,5.13v96.96C96.87,170.52,95.67,171.43,94.18,170.57z"/>
							
								<linearGradient id="SVGID_2_" gradientUnits="userSpaceOnUse" x1="-376.7895" y1="1664.1047" x2="-327.7919" y2="1653.0018" gradientTransform="matrix(0.866 0.5 0 1.1547 377.9794 -1632.0955)">
								<stop  offset="0" style="stop-color:#3919BB"/>
								<stop  offset="1" style="stop-color:#6507FA"/>
							</linearGradient>
							<path class="st13" d="M94.18,170.57l-38.14-22.02c-1.48-0.86-2.69-3.15-2.69-5.13V46.46c0-1.98,1.2-2.89,2.69-2.03
								l38.14,22.02c1.48,0.86,2.69,3.15,2.69,5.13v96.96C96.87,170.52,95.67,171.43,94.18,170.57z"/>
							<path class="st7" d="M94.18,170.57l-38.14-22.02c-1.48-0.86-2.69-3.15-2.69-5.13V46.46c0-1.98,1.2-2.89,2.69-2.03
								l38.14,22.02c1.48,0.86,2.69,3.15,2.69,5.13v96.96C96.87,170.52,95.67,171.43,94.18,170.57z"/>
							<path class="st3" d="M95.43,169.84l-38.14-22.02c-1.48-0.86-2.69-3.15-2.69-5.13V45.73c0-0.67,0.14-1.22,0.39-1.62
								c-0.96-0.01-1.63,0.87-1.63,2.35v96.96c0,1.98,1.2,4.27,2.69,5.13l38.14,22.02c0.98,0.56,1.83,0.36,2.3-0.41
								C96.16,170.16,95.8,170.05,95.43,169.84z"/>
						</g>
					</g>
				</g>
				<g>
					<g>
						<path class="st7" d="M94.18,126.06l-14.18-8.18L57.4,130.92l39.47,22.79v-22.52C96.87,129.21,95.67,126.91,94.18,126.06z"/>
						<path class="st7" d="M94.18,106.19L80.01,98L57.4,111.06l39.47,22.79v-22.52C96.87,109.34,95.67,107.04,94.18,106.19z"/>
						<path class="st7" d="M94.18,86.32l-14.18-8.18L57.4,91.19l39.47,22.79V91.45C96.87,89.47,95.67,87.18,94.18,86.32z"/>
						<path class="st7" d="M94.18,66.45l-14.18-8.18L57.4,71.32l39.47,22.79V71.58C96.87,69.61,95.67,67.31,94.18,66.45z"/>
						<path class="st7" d="M94.18,66.45L62.8,48.33l-5.4,3.12l39.47,22.79v-2.66C96.87,69.61,95.67,67.31,94.18,66.45z"/>
					</g>
					<polygon class="st2" points="96.87,74.24 57.4,51.45 57.4,64.01 96.87,86.8 					"/>
					<polygon class="st2" points="96.87,94.11 57.4,71.32 57.4,83.88 96.87,106.67 					"/>
					<polygon class="st2" points="96.87,113.98 57.4,91.19 57.4,103.75 96.87,126.53 					"/>
					<polygon class="st2" points="96.87,133.84 57.4,111.06 57.4,123.61 96.87,146.4 					"/>
					<polygon class="st2" points="96.87,153.71 57.4,130.92 57.4,143.48 96.87,166.27 					"/>
				</g>
				<g>
					<path class="st7" d="M93.39,82.32L63.66,65.16c-0.84-0.48-1.52-1.78-1.52-2.9v-3.36c0-1.12,0.68-1.63,1.52-1.15l29.73,17.16
						c0.84,0.48,1.52,1.78,1.52,2.9v3.36C94.91,82.29,94.23,82.81,93.39,82.32z"/>
					<path class="st9" d="M65.16,64.52c-0.84-0.48-1.52-1.78-1.52-2.9v-3.36c0-0.18,0.02-0.34,0.06-0.48l-0.04-0.02
						c-0.84-0.48-1.52,0.03-1.52,1.15v3.36c0,1.12,0.68,2.42,1.52,2.9l29.73,17.16c0.7,0.41,1.29,0.1,1.46-0.67L65.16,64.52z"/>
					<path class="st8" d="M84.06,73.11L66.17,62.78c-0.3-0.17-0.53-0.63-0.53-1.02l0,0c0-0.39,0.24-0.57,0.53-0.4l17.89,10.33
						c0.3,0.17,0.53,0.63,0.53,1.02l0,0C84.59,73.09,84.35,73.28,84.06,73.11z"/>
				</g>
				<g>
					<path class="st7" d="M93.39,102.07L63.66,84.9c-0.84-0.48-1.52-1.78-1.52-2.9v-3.36c0-1.12,0.68-1.63,1.52-1.15l29.73,17.16
						c0.84,0.48,1.52,1.78,1.52,2.9v3.36C94.91,102.04,94.23,102.55,93.39,102.07z"/>
					<path class="st9" d="M65.16,84.26c-0.84-0.48-1.52-1.78-1.52-2.9v-3.36c0-0.18,0.02-0.34,0.06-0.48l-0.04-0.02
						c-0.84-0.48-1.52,0.03-1.52,1.15V82c0,1.12,0.68,2.42,1.52,2.9l29.73,17.16c0.7,0.41,1.29,0.1,1.46-0.67L65.16,84.26z"/>
					<path class="st8" d="M84.06,92.85L66.17,82.52c-0.3-0.17-0.53-0.63-0.53-1.02l0,0c0-0.39,0.24-0.57,0.53-0.4l17.89,10.33
						c0.3,0.17,0.53,0.63,0.53,1.02l0,0C84.59,92.84,84.35,93.02,84.06,92.85z"/>
				</g>
				<g>
					<path class="st7" d="M93.39,122l-29.73-17.16c-0.84-0.48-1.52-1.78-1.52-2.9v-3.36c0-1.12,0.68-1.63,1.52-1.15l29.73,17.16
						c0.84,0.48,1.52,1.78,1.52,2.9v3.36C94.91,121.97,94.23,122.48,93.39,122z"/>
					<path class="st9" d="M65.16,104.19c-0.84-0.48-1.52-1.78-1.52-2.9v-3.36c0-0.18,0.02-0.34,0.06-0.48l-0.04-0.02
						c-0.84-0.48-1.52,0.03-1.52,1.15v3.36c0,1.12,0.68,2.42,1.52,2.9L93.39,122c0.7,0.41,1.29,0.1,1.46-0.67L65.16,104.19z"/>
					<path class="st4" d="M84.06,112.78l-17.89-10.33c-0.3-0.17-0.53-0.63-0.53-1.02l0,0c0-0.39,0.24-0.57,0.53-0.4l17.89,10.33
						c0.3,0.17,0.53,0.63,0.53,1.02l0,0C84.59,112.77,84.35,112.95,84.06,112.78z"/>
				</g>
				<g>
					<path class="st7" d="M93.39,142.11l-29.73-17.16c-0.84-0.48-1.52-1.78-1.52-2.9v-3.36c0-1.12,0.68-1.63,1.52-1.15l29.73,17.16
						c0.84,0.48,1.52,1.78,1.52,2.9v3.36C94.91,142.08,94.23,142.59,93.39,142.11z"/>
					<path class="st9" d="M65.16,124.3c-0.84-0.48-1.52-1.78-1.52-2.9v-3.36c0-0.18,0.02-0.34,0.06-0.48l-0.04-0.02
						c-0.84-0.48-1.52,0.03-1.52,1.15v3.36c0,1.12,0.68,2.42,1.52,2.9l29.73,17.16c0.7,0.41,1.29,0.1,1.46-0.67L65.16,124.3z"/>
					<path class="st14" d="M84.06,132.89l-17.89-10.33c-0.3-0.17-0.53-0.63-0.53-1.02l0,0c0-0.39,0.24-0.57,0.53-0.4l17.89,10.33
						c0.3,0.17,0.53,0.63,0.53,1.02l0,0C84.59,132.88,84.35,133.06,84.06,132.89z"/>
				</g>
				<g>
					<path class="st7" d="M93.39,161.82l-29.73-17.16c-0.84-0.48-1.52-1.78-1.52-2.9v-3.36c0-1.12,0.68-1.63,1.52-1.15l29.73,17.16
						c0.84,0.48,1.52,1.78,1.52,2.9v3.36C94.91,161.79,94.23,162.31,93.39,161.82z"/>
					<path class="st9" d="M65.16,144.02c-0.84-0.48-1.52-1.78-1.52-2.9v-3.36c0-0.18,0.02-0.34,0.06-0.48l-0.04-0.02
						c-0.84-0.48-1.52,0.03-1.52,1.15v3.36c0,1.12,0.68,2.42,1.52,2.9l29.73,17.16c0.7,0.41,1.29,0.1,1.46-0.67L65.16,144.02z"/>
					<path class="st4" d="M84.06,152.61l-17.89-10.33c-0.3-0.17-0.53-0.63-0.53-1.02l0,0c0-0.39,0.24-0.57,0.53-0.4l17.89,10.33
						c0.3,0.17,0.53,0.63,0.53,1.02l0,0C84.59,152.6,84.35,152.78,84.06,152.61z"/>
				</g>
				<polygon class="st9" points="57.4,51.45 60.51,53.25 60.51,65.8 57.4,64.01 				"/>
				<polygon class="st9" points="57.4,71.32 60.51,73.12 60.51,85.67 57.4,83.88 				"/>
				<polygon class="st9" points="57.4,91.19 60.51,92.98 60.51,105.54 57.4,103.75 				"/>
				<polygon class="st9" points="57.4,111.06 60.51,112.85 60.51,125.41 57.4,123.61 				"/>
				<polygon class="st9" points="57.4,130.92 60.51,132.72 60.51,145.28 57.4,143.48 				"/>
			</g>
			
				<ellipse transform="matrix(0.866 -0.5001 0.5001 0.866 -25.343 53.3987)" class="st4" cx="86.95" cy="73.98" rx="0.51" ry="0.89"/>
			<path class="st14" d="M90.25,75.89c0,0.4-0.28,0.56-0.63,0.36c-0.35-0.2-0.63-0.69-0.63-1.09c0-0.4,0.28-0.56,0.63-0.36
				C89.97,75,90.25,75.48,90.25,75.89z"/>
			<path class="st4" d="M92.92,77.43c0,0.4-0.28,0.56-0.63,0.36c-0.35-0.2-0.63-0.69-0.63-1.09s0.28-0.56,0.63-0.36
				C92.64,76.54,92.92,77.02,92.92,77.43z"/>
			<path class="st14" d="M87.58,94.2c0,0.4-0.28,0.56-0.63,0.36c-0.35-0.2-0.63-0.69-0.63-1.09c0-0.4,0.28-0.56,0.63-0.36
				C87.3,93.31,87.58,93.8,87.58,94.2z"/>
			<path class="st4" d="M90.25,95.74c0,0.4-0.28,0.56-0.63,0.36c-0.35-0.2-0.63-0.69-0.63-1.09c0-0.4,0.28-0.56,0.63-0.36
				C89.97,94.85,90.25,95.34,90.25,95.74z"/>
			<path class="st8" d="M92.92,97.28c0,0.4-0.28,0.56-0.63,0.36c-0.35-0.2-0.63-0.69-0.63-1.09c0-0.4,0.28-0.56,0.63-0.36
				C92.64,96.39,92.92,96.88,92.92,97.28z"/>
			<path class="st8" d="M87.58,114.21c0,0.4-0.28,0.56-0.63,0.36c-0.35-0.2-0.63-0.69-0.63-1.09c0-0.4,0.28-0.56,0.63-0.36
				C87.3,113.32,87.58,113.81,87.58,114.21z"/>
			<path class="st14" d="M90.25,115.75c0,0.4-0.28,0.56-0.63,0.36c-0.35-0.2-0.63-0.69-0.63-1.09s0.28-0.56,0.63-0.36
				C89.97,114.86,90.25,115.35,90.25,115.75z"/>
			<path class="st8" d="M92.92,117.29c0,0.4-0.28,0.56-0.63,0.36c-0.35-0.2-0.63-0.69-0.63-1.09c0-0.4,0.28-0.56,0.63-0.36
				C92.64,116.4,92.92,116.89,92.92,117.29z"/>
			<path class="st8" d="M87.58,133.93c0,0.4-0.28,0.56-0.63,0.36c-0.35-0.2-0.63-0.69-0.63-1.09s0.28-0.56,0.63-0.36
				C87.3,133.04,87.58,133.53,87.58,133.93z"/>
			<path class="st4" d="M90.25,135.47c0,0.4-0.28,0.56-0.63,0.36c-0.35-0.2-0.63-0.69-0.63-1.09s0.28-0.56,0.63-0.36
				C89.97,134.58,90.25,135.07,90.25,135.47z"/>
			<path class="st4" d="M92.92,137.01c0,0.4-0.28,0.56-0.63,0.36c-0.35-0.2-0.63-0.69-0.63-1.09c0-0.4,0.28-0.56,0.63-0.36
				C92.64,136.12,92.92,136.61,92.92,137.01z"/>
			<path class="st8" d="M87.58,153.91c0,0.4-0.28,0.56-0.63,0.36c-0.35-0.2-0.63-0.69-0.63-1.09c0-0.4,0.28-0.56,0.63-0.36
				C87.3,153.02,87.58,153.51,87.58,153.91z"/>
			<path class="st14" d="M90.25,155.45c0,0.4-0.28,0.56-0.63,0.36c-0.35-0.2-0.63-0.69-0.63-1.09s0.28-0.56,0.63-0.36
				C89.97,154.56,90.25,155.05,90.25,155.45z"/>
			<path class="st4" d="M92.92,156.99c0,0.4-0.28,0.56-0.63,0.36c-0.35-0.2-0.63-0.69-0.63-1.09s0.28-0.56,0.63-0.36
				C92.64,156.1,92.92,156.59,92.92,156.99z"/>
			<g>
				<path class="st7" d="M106.57,162.74v-88.9l0.18-0.11l37.15-21.45v88.9l-0.18,0.11L106.57,162.74z M107.31,74.27v87.2
					l35.86-20.71v-87.2L107.31,74.27z"/>
			</g>
			<g>
				<path class="st7" d="M134.26,92.29l-16.66,9.62c-1.12,0.65-2.03-0.04-2.03-1.53v-9.24c0-1.49,0.91-3.23,2.03-3.87l16.66-9.62
					c1.12-0.65,2.03,0.04,2.03,1.53v9.24C136.28,89.91,135.37,91.64,134.26,92.29z"/>
				<path class="st3" d="M134.66,77.47c0.1,0.26,0.15,0.57,0.15,0.93v9.24c0,1.49-0.91,3.23-2.03,3.87l-16.66,9.62
					c-0.14,0.08-0.27,0.14-0.4,0.18c0.3,0.82,1.03,1.1,1.88,0.61l16.66-9.62c1.12-0.65,2.03-2.38,2.03-3.87v-9.24
					C136.28,77.87,135.59,77.19,134.66,77.47z"/>
				<g>
					<g>
						<path class="st8" d="M131.21,86.73c0.31-0.18,0.56-0.03,0.56,0.32v2.1c0,0.36-0.25,0.79-0.56,0.97
							c-0.31,0.18-0.56,0.03-0.56-0.32v-2.1C130.66,87.34,130.9,86.9,131.21,86.73z"/>
						<path class="st4" d="M128.82,88.37c0.31-0.18,0.56-0.03,0.56,0.32v1.84c0,0.36-0.25,0.79-0.56,0.97
							c-0.31,0.18-0.56,0.03-0.56-0.32v-1.84C128.27,88.98,128.52,88.55,128.82,88.37z"/>
						<path class="st14" d="M126.43,87.69c0.31-0.18,0.56-0.03,0.56,0.32v3.89c0,0.36-0.25,0.79-0.56,0.97
							c-0.31,0.18-0.56,0.03-0.56-0.32v-3.9C125.88,88.3,126.13,87.87,126.43,87.69z"/>
						<path class="st4" d="M124.04,86.83c0.31-0.18,0.56-0.03,0.56,0.32v6.14c0,0.36-0.25,0.79-0.56,0.97
							c-0.31,0.18-0.56,0.03-0.56-0.32V87.8C123.49,87.44,123.74,87.01,124.04,86.83z"/>
						<path class="st4" d="M121.65,88.85c0.31-0.18,0.56-0.03,0.56,0.32v5.5c0,0.36-0.25,0.79-0.56,0.97
							c-0.31,0.18-0.56,0.03-0.56-0.32v-5.5C121.1,89.46,121.35,89.03,121.65,88.85z"/>
						<path class="st8" d="M119.26,92.74c0.31-0.18,0.56-0.03,0.56,0.32v2.98c0,0.36-0.25,0.79-0.56,0.97
							c-0.31,0.18-0.56,0.03-0.56-0.32v-2.98C118.71,93.35,118.96,92.92,119.26,92.74z"/>
					</g>
					<path class="st14" d="M130.66,85.66c0,0.35,0.25,0.49,0.55,0.32c0.3-0.17,0.55-0.6,0.55-0.95s-0.25-0.49-0.55-0.32
						C130.91,84.89,130.66,85.31,130.66,85.66z"/>
					<ellipse transform="matrix(0.5 -0.866 0.866 0.5 -6.5959 155.3122)" class="st8" cx="131.21" cy="83.37" rx="0.78" ry="0.45"/>
				</g>
			</g>
		</g>
	</g>
</g>
</svg>
