<svg xmlns="http://www.w3.org/2000/svg" width="80.009" height="59.943" viewBox="0 0 80.009 59.943">
  <g id="Mail" transform="translate(-9.99 -20.021)">
    <path id="Path_581" data-name="Path 581" d="M10,73.59V36.88a2.169,2.169,0,0,1,.35.15Q26.58,47.86,42.82,58.68c4.72,3.15,9.61,3.17,14.3.04Q73.17,48.04,89.2,37.34c.23-.15.46-.29.79-.51v.64q0,17.49-.01,34.99a8.416,8.416,0,0,1-.23,1.93,7.362,7.362,0,0,1-7.53,5.57q-15.975.015-31.94,0H17.79a7.675,7.675,0,0,1-5.54-2.1A8.075,8.075,0,0,1,10,73.59Z" fill="#fff"/>
    <path id="Path_582" data-name="Path 582" d="M10,26.41c.13-.45.24-.9.39-1.34a7.4,7.4,0,0,1,7.08-5.04c1.54-.02,3.07,0,4.61,0H82.14a7.565,7.565,0,0,1,5.93,2.45,7.1,7.1,0,0,1-1.24,10.78c-4.86,3.31-9.77,6.54-14.67,9.8q-8.73,5.82-17.47,11.65c-3.35,2.23-6.06,2.23-9.4,0C35.03,47.87,24.79,41,14.49,34.21c-2.2-1.45-3.96-3.09-4.5-5.76C10,27.77,10,27.09,10,26.41Z" fill="#fff"/>
  </g>
</svg>
