<?xml version="1.0" encoding="utf-8"?>
<!-- Generator: Adobe Illustrator 24.3.0, SVG Export Plug-In . SVG Version: 6.00 Build 0)  -->
<svg version="1.1" id="Layer_1" xmlns="http://www.w3.org/2000/svg" xmlns:xlink="http://www.w3.org/1999/xlink" x="0px" y="0px"
	 viewBox="0 0 561.6 288" style="enable-background:new 0 0 561.6 288;" xml:space="preserve">
<style type="text/css">
	.st0{fill:url(#SVGID_1_);}
	.st1{fill:#20295C;}
</style>
<linearGradient id="SVGID_1_" gradientUnits="userSpaceOnUse" x1="9.8087" y1="-9.9461" x2="1049.6943" y2="559.6768">
	<stop  offset="0" style="stop-color:#4BC2C8"/>
	<stop  offset="1" style="stop-color:#20295C"/>
</linearGradient>
<path class="st0" d="M83.78,69.47c0.96,0,1.07,0.34,1.89,0s3.24-1.94,4.05-2.16c0.82-0.22,1.34,0.07,0.14,0.74
	c-1.21,0.67-3.63,2.12-3.19,2.01c0.43-0.11,1.66-0.63,3.39-1.45c1.73-0.82,1.58-0.45,2.03-1.33c0.45-0.87,0.68-1.33,0.68-1.33
	s2.75,2.81,3,2.92s0.35-0.02,0.49-0.36c0.14-0.35,0.43-0.84,0.82-0.67c0.39,0.16,0.06,0.83,0.29,0.93c0.23,0.09,0.62-0.02,1.34-0.25
	c0.72-0.24,0.35-0.76,0.35-0.76s-0.08-0.02,0.76-0.09c0.84-0.07,3.47,0.89,4.25,1.2s3.14,0.56,3.81,0.78
	c0.66,0.22,0.91-0.38,1.83,0.11s1.6,1.14,0.92,1.49c-0.68,0.34-2.4,0.6-1.52,0.82c0.87,0.22,2.2,0.49,3.47,0.45
	c1.27-0.04,3.55-0.51,4.25-0.51s1.13,0.44,1.8,1.54c0.66,1.11,1.19,1.54,1.44,1.63s-0.25-0.53-0.12-1.07
	c0.14-0.54-0.14-1.62-0.29-1.98s0-0.54-0.31-1.07s-0.82-0.44,0.12-0.89s1.58-1.12,2.71-0.98c1.13,0.15,1.44,1.58,2.42,1.69
	c0.97,0.11,1.15,0.49,2.82,0.62c1.68,0.13,0.98,0.02,2.85,0.15c1.87,0.13,1.19-0.2,1.58-1.16c0.39-0.96,0.82-1.14,1.27-1.11
	c0.45,0.04,2.03,0.25,2.03,0.45s-0.66,1.23-0.33,1.74c0.33,0.51,1.68,1.34,1.68,1.34s-0.29-1.16-0.29-1.29s-0.1-1.03,0.1-1.2
	c0.2-0.16,1.31,0.09,2.01-1.27c0.7-1.36-0.47-1.29-0.47-1.29s-0.43,0.02-0.22-0.54c0.22-0.56,1.46-0.91,1.46-0.91
	s0.08,0.25-0.08-0.2c-0.15-0.45-0.97-0.36-1.85-0.42c-0.88-0.05-1.48-0.18-1.64-0.93c-0.15-0.74-0.21-2.3-0.21-3.38
	c0-1.07,0.86-0.69,1.01-1.29c0.16-0.6-0.04-3.52-0.25-4.12c-0.22-0.6,0.31-1.89,0.43-2.74c0.11-0.85,0.99-0.47,0.99-0.47
	c-0.16-0.29,0.25-1.11,1.42-1.45s3.39,0.02,3.39,0.02s-0.2,0.02-0.74,0.73c-0.54,0.71-0.19,1.96-1.01,2.85
	c-0.82,0.89-2.9,0.6-2.9,0.6s0.64,1.47,0.37,1.94c-0.27,0.47-0.45,1.43-0.45,1.43s1.83,0.51,1.93,1.67c0.1,1.16,1.01,1.36,1.23,2.43
	c0.21,1.07-0.9,1.96-0.67,2.12c0.24,0.16,0.31,0.24,0.98,0.27c0.66,0.04,1.56,0.16,1.56,0.16s-0.37,0.54-0.04,1.12
	s0.08,0.94,0.12,1.56c0.04,0.62,0.41,1.14,0.57,1.03s0.88-1.69,1.04-2.4c0.15-0.71,0.27-1.09,0.58-1.09s1.36,0.96,1.48,1.31
	c0.12,0.34,0.2,0.82-0.39,1.76s-0.53,1.38-0.02,1.74c0.5,0.36,0.53,0.25,1.44,0.69c0.92,0.44,0.74,0.4,1.31,0.24
	c0.57-0.16-0.24-1.6-0.18-1.63c0.06-0.04,1.35-0.18,1.06-0.91c-0.29-0.73-0.59-1.09,0.02-1.45s1.04-0.65,1.04-0.65
	c-0.25-0.45-0.33-0.49-0.76-1.71s0.37-0.89,2.05-0.76c1.67,0.13,1.75,0.71,2.65,1.16c0.89,0.45,0.33,0.62,0.62,1.34
	c0.3,0.73-0.74,0.83-0.74,0.83s-0.68,0.13-0.52,0.69c0.16,0.56,0.47,1.23,0.96,2.11c0.49,0.87-0.14,1.47-0.9,2.18
	s-1.66,0.91-2.55,0.93c-0.9,0.02-1.29,0.38-1.34,0.13c-0.06-0.25-0.49-0.49-0.97-0.38c-0.49,0.11-1.6,0.54-1.21,0.69
	s1.42,0.11,0.99,0.91s-0.8,0.8-1.66,0.71c-0.86-0.09-1.66-0.09-2.2-0.13s-3.24-0.2-3.24-0.2s1.82,1.11,3.26,1.56
	c1.44,0.45,2.96,0.18,2.96,0.18s-0.59,1.09-1.29,2.25s-1.36,0.65-1.95,0.73c-0.59,0.07-0.94,0.54-2.03,0.69
	c-1.09,0.14-3.37-0.31-3.02-0.15c0.35,0.16,0.51,0.45,1.13,0.54c0.62,0.09,1.01,0.2,1.56,0.65c0.54,0.45-0.35,0.56-1.07,0.69
	c-0.72,0.13-0.92,0.26-1.25,0.71s-1.56,2.21-1.95,2.76c-0.39,0.54-0.74,1.45-0.89,2.52c-0.16,1.07-1.07,2.36-0.66,2.63
	s1.95,0.31,2.59,0.71s1.36,2.36,1.85,3.1s0.88,1.31,1.42,0.73c0.54-0.58,1.62-0.44,2.63-0.07c1.01,0.36,3.08,1.8,3.72,2.43
	s1.77,0.53,3.04,0.71c1.26,0.18,1.41,0.66,1.41,0.66s1.32,0.07,0.78,0.63c-0.54,0.56-0.7,0.02-0.16,0.96
	c0.55,0.94,0.53,2.21,0.37,2.85c-0.16,0.63,1.74,0.31,2.55,0.79c0.8,0.47,0.84,2.39,1.25,2.15s1.09-0.65,1.17-1.16
	s-0.02-1.18-0.1-2.05s-0.29-2.47-0.72-3.1c-0.43-0.64,0.77-0.89,0.58-1.16c-0.19-0.27-0.15-0.82,0.67-1.03
	c0.82-0.22,0.88-0.02,1.32-0.36c0.45-0.35,0.53-1.96,0.6-2.54c0.08-0.58-0.13-1.83-0.33-2.31c-0.19-0.47-0.99-1.98-1.29-2.31
	c-0.29-0.33-0.66-0.42,0.14-1.43c0.8-1.02,0.33-0.8,0.21-1.11s-0.29-1.07-0.45-1.76s0.33-1.45,0.04-2.43
	c-0.29-0.98-0.6-0.76-0.54-0.98c0.06-0.22,1.91-0.16,3.27-0.02c1.36,0.15,1.91-0.14,2.3-0.14s1.09,0.38,1.85,0.87
	c0.76,0.49,1.05,0.36,1.44,0.96s0.6,0.93,1.4,0.89c0.8-0.04,1.66,0.34,1.66,0.34s-0.57,0.33-0.47,1.4s-0.12,1.85-0.1,2.29
	c0.02,0.43,0.24,0.45,0.6,0.51c0.37,0.06,1.37,0.94,2.4,1.31c1.04,0.36,1.31,0.25,1.64-0.58s0.41-0.76,0.82-0.82
	s0.54,0.09,0.72-0.09c0.18-0.18-0.31-0.54-0.2-1.12c0.12-0.58,0.68-1.34,1.15-1.78c0.47-0.43,0.8,0.44,1.21,1.24
	c0.41,0.8,1.83,3.39,2.24,4.25c0.41,0.85,0.94,0.91,0.45,1.71c-0.49,0.8-0.72,1.14,0.04,1.51c0.76,0.36,1.44,1,1.38,1.6
	s-0.22,0.62,0.04,0.78c0.25,0.16,1.17-0.33,1.83-0.03c0.66,0.29,1.46,0.56,1.93,1.03c0.47,0.47,0.43,0.64-0.24,0.87
	c-0.66,0.24-1.33,0.47-1.66,0.67s-0.86,0.58-0.84,0.89s-0.14,0.82,0.39,0.42s1.38-0.8,2.01-0.98c0.62-0.18,0.15-0.02,0.72-0.09
	s1.11,0.27,1.89,0.49s0.57,0.71,0.37,1.16c-0.19,0.45-0.37,0.89-0.06,1.4s-0.14,0.96-0.82,1.58c-0.68,0.62-1.19,0.71-2.3,0.85
	c-1.11,0.15-1.64,0.82-2.42,1.54c-0.78,0.73-1.17,0.54-2.3,0.6c-1.13,0.05-0.68-0.56-1.03-0.44c-0.35,0.13-0.8,0.51-1.52,0.58
	s-3.16,0.11-4.1,0.38c-0.93,0.27-0.64,0.91-0.87,1.43c-0.24,0.53-0.61,0.31-1.31,0.54c-0.7,0.24-1.54,1.27-2.36,2.69
	c-0.82,1.42-1.93,2.29-1.93,2.29c0.23-0.05,1.39-0.76,1.95-1.45c0.57-0.69,2.92-2.32,3.65-2.83c0.72-0.51,2.28-1.25,2.65-1.14
	s1.29,0.82,1.29,1.18s-0.27,0.65-0.94,1.27c-0.66,0.62-1.54,0-1.48,0.25c0.06,0.26,0.53,0.84,1.03,0.96
	c0.51,0.13,0.48,0.74,0.48,1.05c0,0.31-0.29,0.71,0.88,1.69s1.99,1.05,2.85,1s0.41,0.29,0.76,0.25c0.35-0.04,0.43-0.71,0.54-1.25
	c0.12-0.55,0.31-1.05,0.62-1.29s0.55-0.67,0.64,0.16c0.1,0.83-0.35,1.98-0.8,2.23s-0.35,0.58-0.35,0.83s-0.51,0.27-1.72,0.94
	c-1.21,0.67-1.6,0.83-1.81,0.74c-0.22-0.09-0.66,0.11-1.25,0.64c-0.59,0.52-1.21,1.23-1.64,1.22c-0.43-0.02-0.8-0.2-0.22-0.8
	c0.58-0.6,0.78-1.43,1.36-1.72s0.86-0.25,1.34-0.25c0.49,0,0.25-0.29,0.64-0.58s-0.29-0.2-0.96-0.31c-0.66-0.11-0.15-0.69-0.15-0.69
	l-0.69,0.36c0,0-1.03,0.54-1.31,0.58c-0.27,0.04-0.21,0.22-0.29,0.33c-0.08,0.11-1.05,0.18-1.05,0.18s-0.51,1.03-1.27,1.18
	c-0.76,0.15-0.23,0.09-0.78,0.33c-0.54,0.24-0.45-0.27-0.57-0.13c-0.12,0.15-0.21,0.27-0.82,0.73c-0.61,0.45-0.96,0.6-1.39,2.25
	s0.08,2.25,0.06,2.5s-0.76-0.16-0.97,0.04c-0.22,0.2-0.71,0.82-1.35,1s-1.91,0.51-2.2,0.82c-0.29,0.31-0.31,0.74-0.45,1.38
	c-0.13,0.64-0.89,2.12-0.89,2.12s0.17-0.6-0.35-1.04c-0.52-0.44-0.45-0.83-0.45-0.83s-0.12,0.6,0.08,1.22
	c0.19,0.62,0.58,1.23,0.41,1.91c-0.18,0.67-0.51,1.51-0.91,1.74c-0.41,0.24,0.1-0.45,0.1-1c0-0.54-0.27-0.58-0.45-0.85
	s-0.18-0.96,0.14-1.89c0.31-0.93-0.29-0.36-0.64,0.25c-0.35,0.62-0.6,1.76-0.06,2.51c0.55,0.74-0.35,0.67,0.02,1.74
	c0.37,1.07-0.45,1.6-0.29,1.76c0.16,0.16,0.59-0.07,0.78,0.45c0.2,0.53-0.39,0.29-0.58,0.44c-0.2,0.15-0.1,0.34,0.02,0.63
	c0.12,0.29,0.35,0.11,0.25,0.2s-0.37,0.45-0.88,0.62c-0.5,0.16-0.54-0.09-0.86,0.27c-0.31,0.36-0.54,0.69-0.88,1.11
	c-0.33,0.42-0.56,0.27-0.92,0.56c-0.35,0.29-0.49,0.53-0.92,0.89c-0.42,0.36-1.4,0.92-1.93,1.63s-0.39,0.89-0.64,2.03
	s0.64,3.14,1.21,5.03s0.8,1.36,0.72,1.96s-0.33,1.33-0.74,1.74c-0.4,0.42-0.64-0.29-1.2-0.71c-0.57-0.42-0.12-0.71-0.66-1.58
	c-0.54-0.87-0.51-1.18-0.57-1.82c-0.06-0.64-0.15-1.54-0.45-2.23c-0.29-0.69-0.92-1.56-1.85-1.22c-0.94,0.35-0.7,0.18-1.21,0.03
	c-0.51-0.14-1.85-0.69-2.54-0.33c-0.68,0.36-2.84-0.11-3.29,0s-0.78,0.15-0.78,0.45s-0.19,0.36,0.61,0.58s0.68,0.45,0.63,0.8
	c-0.06,0.34-0.65-0.18-0.96-0.31c-0.31-0.13-0.6,0.25-1.15,0.25c-0.54,0-0.64-0.53-1.13-0.6s-0.68,0-1.15-0.18s-1.09-0.49-1.64-0.45
	c-0.54,0.04-2.65,1.43-3.65,2.18c-0.99,0.74-1.76,1.47-1.98,2.07c-0.24,0.6-0.26,0.65,0.54,1.54c0.8,0.89,0.43,0.74,0.27,1.25
	c-0.15,0.51-0.62,1.12-1.19,2.43s-0.24,1.94,0.45,3.19c0.68,1.25,1.29,2.16,1.83,2.69c0.54,0.53,0.93,1.09,1.4,1.29
	s0.57,0.27,0.78,0.49c0.21,0.22,0.15,0.31,0.9,0.11c0.74-0.2,1.28-0.49,1.81-0.49c0.52,0,1.01,0.02,1.31,0.29
	c0.29,0.27,0.33,0.11,0.33-0.04c0-0.14,0.23-0.69,0.31-0.83c0.08-0.15,0.78-1.14,0.89-1.69c0.12-0.54,0.12-1.63,0.8-1.71
	c0.68-0.07,2.14-0.42,3.47-0.33c1.32,0.09,0.74,0.74,0.39,1.43c-0.35,0.69-0.49,0.76-0.49,1.29s0.16,0.53-0.27,0.84
	c-0.43,0.31-0.16-0.18-0.33,0.13c-0.18,0.31-0.8,0.74-0.72,0.67s0.27,0.53,0.27,0.82c0,0.29-0.06,0.44-0.06,1.14
	c0,0.71-1.38,1.43-1.38,1.43s0.51,0.29,1.25,0.29s1.64,0,2.42,0.36s2.26-0.29,3.36,0.25c1.09,0.54,0.7,0.87,0.78,1.38
	c0.08,0.51,0.2,2.25,0.12,2.65s-0.59,1.52-0.86,2.32s0.78,1.38,1.75,2.03s1.83,0.94,2.34,1.09c0.5,0.14,1.44-0.76,3.16-0.65
	c1.71,0.11,2.3,1.56,2.3,1.56s0.2-0.91,0.98-2.14s0.82-1.6,1.87-2c1.06-0.4,1.41-0.47,3.12-1.02c1.71-0.54,1.4-0.14,2.3-0.07
	c0.9,0.07,2.97,0.25,5.03,0.87s5.22,0.8,6.43,1.31c1.21,0.51,1.76,1.92,3,3.09c1.25,1.16,2.81,2.21,3.47,2.76
	c0.67,0.55,4.37,1.05,5.19,1.38s1.95,1.67,2.03,2.47s0.9,1.2,2.03,1.67s1.48,1.02,2.22,2.47s0.51,1.85,1.52,2.21
	c1.02,0.36,8.03,2.25,9.79,2.94c1.75,0.69,3.98,2.54,4.56,2.76c0.59,0.22,1.64-0.18,2.1,0.07c0.47,0.26-0.27,1.63,0.31,2.62
	c0.59,0.98,0.62,1.05,0.27,1.78c-0.35,0.73-1.76,2.47-2.3,3.34c-0.55,0.87-1.72,1.42-2.38,1.78s-1.25,0-0.66,0.73
	c0.58,0.72,0.04,1.34-0.47,2c-0.51,0.65,0.04,0.58-0.12,2.69c-0.16,2.1,0,4.39-0.24,5.3c-0.23,0.91-1.59-0.8-3.16,1.16
	c-1.56,1.96-1.98,3.45-2.92,3.67s-3.12,1.31-3.86,2s-0.9,0.94-1.37,1.96s-0.93,3.09-1.44,4.36c-0.51,1.27-1.33,2-3.2,3.7
	c-1.87,1.71-2.69,3.45-3.9,4.79c-1.21,1.34-0.9,1.05-1.15,1.31c-0.64,0.65-3.3-1.05-2.62-0.11c0.51,0.69-0.28,0,0.14,0.65
	c0.43,0.65,0.74,0.91-0.2,2.07c-0.93,1.16-2.02,0.93-2.76,1.11c-0.74,0.18-1.84-0.76-1.92-0.29s-0.5,1.65-1.09,1.94
	c-0.58,0.29-2.14,0.73-2.1,0.91c0.74,3.44,2.25,3.8,0.65,3.64c-4.39-0.43-1.26-1.47-4.32,4.93c-0.47,0.98-0.93,0.47-0.86,1.63
	c0.08,1.16,0,2.03,0.63,2.76c0.62,0.73,0.19,0.69-0.86,1.67s-1.13,0.84-2.1,2.32c-0.97,1.49-1.91,1.42-1.56,2.54s0.43,2.8,1.01,4.46
	c0.58,1.67,1.79,1.38,3.7,2.54s2.15,0.54,3.08,0.83c0.94,0.29-0.66,0.37-2.34,0.65c-1.68,0.29-2.77,0.62-3.94,0.36
	s-3.94-1.85-4.87-2.54c-0.94-0.69-2.45-1.92-3-3.12c-0.54-1.2-0.94-2.4-1.63-4.03c-0.7-1.63-0.2-2.65,0.12-6.24
	c0.31-3.59,0.54-6.39,1.05-8.31c0.5-1.92,2.07-10.49,2.49-12.71c0.43-2.21,2.42-11.22,2.57-12.63c0.15-1.42,0.27-2.51,0.59-3.92
	c0.31-1.42,0.12-4.28,0.12-4.43c0-0.14-0.12-0.25-0.55-1.6c-0.42-1.34-1.13-1.89-2.1-2.47s-1.99-1.31-2.77-1.85
	c-0.78-0.54-1.72-1.31-2.49-2.29c-0.78-0.98-1.52-2.98-1.91-3.81s-1.83-3.67-3.16-5.63s-1.41-2-2.07-4.07s0.58-2.1,0.82-3.27
	c0.23-1.16,1.01-2.32,1.87-3.96c0.86-1.63,1.99-2.11,2.65-3.56c0.66-1.45,0.16-1.45-0.08-2.87c-0.23-1.42,0.08-1.2-0.35-1.96
	c-0.43-0.76-0.66-1.71-1.05-1.96s-0.97-0.44-1.33-0.04c-0.35,0.4-0.97,1.56-1.36,1.63s-0.54-0.36-0.78-0.62
	c-0.24-0.25-1.36-0.25-1.6-0.51c-0.23-0.25-0.82-0.29-1.21-0.47c-0.39-0.18-1.91-0.98-2.34-1.34s-0.97-1.23-0.97-2.18
	c0-0.94-0.82-1.31-2.65-2.61c-1.83-1.31-2.61-1.49-4.84-2.03c-2.22-0.54-3.12-2.11-3.86-2.54c-0.74-0.44-0.66-0.91-2.3-0.73
	c-1.63,0.18-3.62-0.73-4.87-1.23c-1.24-0.51-3.47-0.87-4.4-1.49c-0.93-0.62-2.57-0.84-3.27-2.32c-0.7-1.49-0.59-0.91-0.31-2.22
	c0.27-1.31-1.6-2.4-2.73-3.63c-1.13-1.23-1.99-1.42-2.57-2.94c-0.59-1.52-1.44-1.45-2.57-2.54s-1.17-2.47-1.64-3.7
	s-3.59-3.01-3.59-3.01s0.82,2.07,1.17,2.91c0.35,0.83,1.17,2.83,2.1,4.32c0.94,1.49,1.75,1.85,2.61,3.34
	c0.86,1.49,0.04,2.4-0.28,1.82c-0.31-0.58-1.56-0.84-1.56-1.52c0-0.69-0.31-1.13-0.58-1.67c-0.27-0.54-1.48-1.16-2.65-2.11
	c-1.17-0.94-1.98-1.38-1.25-1.38c0.74,0,1.8,0.69,1.6,0.25c-0.2-0.43-1.52-1.78-2.15-2.72c-0.62-0.94-0.82-2-1.44-3.59
	c-0.62-1.6-2.92-3.12-4.05-3.23c-1.13-0.11-1.44-0.65-1.83-1.81s-0.47-2.4-0.97-3.31c-0.51-0.91-2.69-3.96-2.73-5.12
	c-0.04-1.16-0.67-4.54,0.12-6.43c0.78-1.89,0.58-6.1,0.47-6.93c-0.12-0.83-1.52-2.43-1.52-3.05s0.82-0.25,1.45-0.07
	c0.62,0.18,1.95,0.73,1.95,0.73s-1.01-1.89-1.64-2.54s-2.46-1.49-3.28-1.67s-1.87-0.47-2.3-1.16s-0.89-1.6-1.21-2.18
	c-0.31-0.58-1.64-1.27-1.95-1.89s-0.23-1.82-0.66-2.43c-0.43-0.62-1.06-0.98-1.76-0.73c-0.7,0.25-0.93-0.36-1.48-1.27
	c-0.55-0.91-1.76-1.34-2.11-1.45s-1.56-1.71-1.63-2.11c-0.08-0.4-1.99-2.51-2.61-2.94c-0.63-0.44-6.67-2.4-6.82-2.4
	c-0.16,0-1.91,0.25-2.38,0.11c-0.47-0.15-2.07-1.53-2.88-1.82c-0.82-0.29-1.41,0.33-1.8,1.23c-0.39,0.91-2.3,2.47-3.35,3.16
	s-1.91,0.76-1.83,0.4c0.08-0.36,0.04-0.94,0.39-1.82c0.35-0.87,0.54-1.13,1.63-1.67c1.1-0.54,1.05-0.58,0.63-0.54
	c-0.43,0.03-0.74-0.07,0.12-0.58c0.86-0.51,1.21-0.58,1.17-1.02c-0.04-0.44-1.87,0.58-3.04,1.52c-1.17,0.94-1.87,1.6-2.88,3.27
	c-1.01,1.67,0.12,1.05-0.74,2.14s-3.78,3.3-4.64,4.14c-0.86,0.83-4.4,2.69-5.85,3.12c-1.44,0.43-2.03,0.62-2.73,1.2
	c-0.7,0.58-2.45,0.76-1.87,0.36c0.59-0.4,1.68-1.31,2.42-1.74c0.74-0.44,2.73-1.23,3.31-1.45c0.59-0.22,2.22-1.23,3.04-2.14
	c0.82-0.91,1.37-1.96,1.91-2.83s0.66-1.27-0.47-0.91c-1.13,0.36-2.3,0.22-2.89,0s-2.11,0.69-2.65,0.29s0.04-1.23-0.31-1.63
	c-0.35-0.4-1.56-0.15-2.34-0.29c-0.78-0.15-1.87-0.76-1.87-1.85s-0.78-2.03-0.35-2.87c0.43-0.84,1.06-1.05,1.75-1.52
	c0.7-0.47,2.65-1.09,3.04-1.09s0.94-0.4,1.29-0.76c0.35-0.36-0.82-1.67-0.82-1.67s0.2-0.14,0.66-0.44c0.47-0.29,0.12-0.91-0.7-0.8
	s-2.57,0.94-3.66,1.23s-2.57,0.11-2.53-0.36s0.27-0.76-0.12-1.12s-0.7-0.76-0.31-0.94s2.81-1.52,2.81-1.52s0.86,0.94,1.79,1.05
	c0.94,0.11,2.92-1.63,2.92-1.63c-1.25-0.76-0.97-0.98-0.97-0.98s-2.03-0.04-2.5-0.33s-0.62-0.87-0.74-1.38
	c-0.12-0.51-2.1-0.91-1.56-1.74c0.54-0.83,1.56-1.12,2.22-1.96c0.67-0.84,1.25-2.4,3.16-3.27c1.91-0.87,4.21-1.67,5.22-2.4
	c1.01-0.73,1.48-0.03,1.87,0.07c0.39,0.11,2.81-0.11,3.74-0.11c0.94,0,1.09,1.05,1.41,1.3c0.31,0.25,8.54,0.51,8.54,0.51
	s6.98,0.11,8.38,0.51c1.4,0.4,3.94,1.45,3.94,1.45C82.96,71.34,82.82,69.47,83.78,69.47z M177.52,27.36c0,0-0.7,2.9-3.51,3.7
	c-2.81,0.8-7.96,3.05-8.19,3.19c-0.24,0.15,0.31,1.74,1.01,2.54s1.36,1.34,1.99,2.14c0.62,0.8,1.72,0.73,2.57,1.56
	c0.86,0.84,1.48,0.54,3.82,0.58c2.34,0.03,1.71,0.22,4.33,0.36c2.61,0.15,5.34,0.36,6.24,1.16c0.89,0.8,2.18,3.92,3,5.81
	c0.82,1.89,2.26,5.01,2.26,5.3s-0.9,2.58-0.9,2.94c0,0.36,0.47,0.98,0.9,1.49c0.42,0.51,0.19,0.91,0.11,1.38s0.47,1.67,0.55,1.82
	c0.08,0.14,1.24-1.16,1.99-1.38c0.74-0.22,2.57,1.31,2.57,2.36c0,2.39,0.65,1.57-3.24,4.39c-0.51,0.37-1.01,3.23-0.62,4.61
	s1.32,3.01,2.06,4.97c0.74,1.96,2.92,4.72,3.63,5.99c0.7,1.27,0.9,3.01,2.45,3.41c1.56,0.4,3.04,0.94,4.17,1.2
	c1.13,0.25,1.87,0.62,2.42-0.43s1.64-5.05,2.54-7.95c0.9-2.9-0.08-3.78,2.03-4.43s5.46-1.96,6.36-2.36s0.74-3.27,2.73-4.21
	c1.99-0.94,2.26-0.87,4.21-1.49c1.95-0.62,4.68-1.85,6.63-3.23c1.95-1.38,2.5-0.65,3.2-1.92c0.7-1.27-0.7-3.12-0.86-5.01
	s0.62-2,1.01-3.7c0.39-1.71,0.59-2.83,2.1-3.99c1.52-1.16,2.34-1.81,2.07-2.9c-0.27-1.09-1.05-2.72-1.05-3.92
	c0-1.2,0.27-0.51-0.35-2.18c-0.62-1.67-0.62-1.89-0.04-3.45c0.59-1.56,2.15-1.16,2.03-1.85s-2.49-1.74-2.53-3.67
	c-0.04-1.92,0.43-2.5,0.82-2.98c0.39-0.47,4.37-3.63,4.64-3.92s-0.08-1.09,1.87-2.03s2.61-1.56,3.35-1.85s1.91-0.25-0.35-0.91
	c-2.26-0.65-2.77-0.94-4.25-0.76s-1.99,1.02-4.64,1.27S233,20.5,233,20.5s0.9-0.8,0.12-1.56s2.03-3.27,2.5-3.56
	c0.46-0.29-3.67-1.31-5.81-1.71c-2.14-0.4-6.35-1.67-8.77-1.49s-5.96,0.15-7.17,0.55c-1.21,0.4-1.05,1.96-2.42,2.03
	c-1.36,0.07-3.9-0.8-5.85-0.51c-1.95,0.29-5.07,1.63-5.42,1.71c-0.35,0.07,1.21,1.02,2.22,1.23c1.01,0.22,2.34,2.32,2.34,2.32
	s-2.73-0.91-5.49-1.67c-2.77-0.76-6.01,0-7.14,0.33s-2.61,0.94-4.87,1.05c-2.26,0.11-4.83,1.96-6.12,2.83
	c-1.29,0.87-5.3,3.2-6.31,3.74c-1.01,0.54-0.62,0.8,0.47,1.09C176.35,27.17,177.52,27.36,177.52,27.36z M119.74,57.37
	c0.31,1.33,0.31,3.24-0.42,2.42c-0.73-0.82-1.33-2.49-2.5-1.81s-2.44,0.48-2.23,0.34c0.21-0.15-0.02-0.87-0.62-1.09
	c-0.6-0.22-0.96,0.12-1.58,0.48s-2.6,0.85-1.79,0.22c0.81-0.63,0.55-0.97,0.26-1.69c-0.28-0.73-2.34,0.51-3.43,1.28
	c-1.09,0.77-1.74,1.96-2.39,2.76s-0.18,1.31,0.81,1.6c0.99,0.29,2.57,0.48,1.25,0.97c-1.32,0.48-2.34,0.82-1.66,1.23
	c0.67,0.41,1.84,0.48,3.01,0.34c1.17-0.15,2.16-0.46,4.03,0.05c1.87,0.51,2.98,0.48,2.98,0.48s-0.7,0.44-1.95,0.65
	c-1.25,0.22-3.54,0-4.71,0.22s-3.01,0.53-2.55,0.97c0.47,0.44,0.83,1.11,2.44,1.62s1.9,0.03,2.86,0.27s0.44,1.33,0.7,1.5
	c0.26,0.17,2.08-0.14,3.9-0.48c1.82-0.34,1.14-0.63,2.57-0.99s1.48-1.45,2.31-1.69c0.83-0.24,0.23,0.56,1.22,0.8
	c0.99,0.24,0.44,0.32,1.51,0.49s0.86,0.58,1.89,0.51c1.04-0.07,2.26-0.77,2.1-0.9c-0.15-0.12-0.31-0.44-0.21-0.92
	c0.1-0.48-1.04,0.1-1.46,0.34s-0.39-0.65,0.49-1.09c0.88-0.43,1.67,0,2.18,0c0.52,0,0.05-1.5-0.88-1.74
	c-0.94-0.24-1.35-0.82-2.76-1.6c-1.4-0.77-0.68-1.11-1.09-2.13c-0.41-1.02-1.3-4.02-2.08-4.55s-1.61-0.39-2.39-0.92
	C119.59,55.29,119.43,56.04,119.74,57.37z M98.17,55.31c0.34,0.97,0.39,0.36-0.28,1.43c-0.68,1.06-0.29,1.45-0.75,2.25
	c-0.47,0.8-1.71,1.86-1.33,2.4c0.39,0.53,1.64,0.85,2.16,1.26c0.52,0.41,1.04,1.26,1.97,0.94c0.94-0.32,1.25-0.53,1.9-0.87
	s1.2-0.73,1.17-1.57c-0.02-0.85-0.05-1.26,0.21-1.19s0.67,0.46,0.88-0.1c0.21-0.56,0.57-1.28,1.01-1.72
	c0.44-0.43,1.71-0.87,2.31-1.38c0.6-0.51,1.61-1.07,1.9-1.5c0.29-0.44-0.52-0.78-1.01-0.97c-0.49-0.19-1.06-0.97-2.21-0.97
	c-1.14,0-1.77,0.87-1.72,0.48c0.06-0.39-0.78-0.58-1.24-0.75c-0.47-0.17-0.91-0.44-2.39-0.27c-1.48,0.17-2.1,0.27-3.28,0.6
	C96.46,53.69,97.83,54.34,98.17,55.31z M132.01,66.9c-0.15,0.22-0.83,0.43-1.24,0.92c-0.41,0.48,0.88,0.22,1.3,0.36
	c0.42,0.15,0.73,0.56,1.07,0.68c0.34,0.12,2.16,0.19,2.91-0.17s0.83-0.48,0.75-0.65s-1.56-1.62-2.65-2.2
	c-1.09-0.58-1.12-0.6-1.35-0.46C132.56,65.52,132.17,66.68,132.01,66.9z M127.1,55.58c-0.71,0.35-1.22,0.77-0.02,1.38
	c1.19,0.6,1.58,1.11,2.39,1.62s1.14,1.96,2.83,1.31c1.69-0.65,2.37-1.43,2.6-2.11c0.23-0.68-0.24-0.82-0.65-1.45
	c-0.42-0.63-0.52-0.9-1.38-0.8c-0.86,0.1-1.14,0.1-1.14,0.1s0.57-0.73,1.51-1.19c0.94-0.46,0.15-0.77,0.6-1.21
	c0.44-0.44-1.12-0.65-1.79-0.48c-0.68,0.17-0.7-0.05-1.82-0.1c-1.12-0.05-2.88,0.97-2.81,1.33c0.08,0.36,0.91,0.22,1.69,0.65
	c0.78,0.44,1.01,0.39,0.23,1.62s-1.19-0.29-1.45-0.49C127.62,55.58,127.83,55.21,127.1,55.58z M122.11,53.35
	c-1.17,0.11-1.56,0.92-1.12,1.04c0.44,0.12,0.73-0.12,1.43,0.63s1.33,1.16,1.61-0.07C124.32,53.71,123.9,53.18,122.11,53.35z
	 M103.34,43.98c-1.3,1.04-1.56,1.86-2.57,2.52c-1.01,0.65-0.78,1.21-0.44,1.57s1.35-0.02,1.82-0.27c0.47-0.24,0.86-0.85,1.14-0.48
	c0.28,0.36,1.48-1.23,1.95-1.77c0.47-0.53,1.19-1.09,1.33-1.06c0.13,0.02-0.45,0.63-0.24,1.14s1.14,0.53,1.97-0.34
	s0.08-1.67,0.73-2.35s1.19-0.58-0.08-1.19c-1.27-0.6-2.08,0.07-2.34,0.39C106.36,42.46,105.89,41.95,103.34,43.98z M111.27,45.63
	c-0.74,0.03-1.06,0.14-2.29,0.68c-1.22,0.53-1.74,1.91-2.03,2.66s0.13,0.75,1.25,1.19s2.68-0.12,3.04-1.16s0.81,0.24,0.6,0.78
	c-0.21,0.53,0.78,0.05,1.25-0.19c0.47-0.24,1.87-0.34,1.97-0.34s-1.14,0.94-2.37,1.36c-1.22,0.41-2.21,0.63-2.55,0.68
	c-0.34,0.05,0.32,0.56,1.74,0.85c1.43,0.29,2.29-0.87,4.34-1.65c2.05-0.77,1.95-0.92,2.63-0.73s1.4-0.34,2.23-0.53
	s1.17,0.12,1.54-1.11c0.36-1.23,1.01-2.42-0.16-2.49c-1.17-0.07-1.25-0.07-1.41,1.26c-0.15,1.33-0.26,0.51-0.26,0.51
	s-0.78-1.16-1.25-1.77c-0.47-0.6-0.81-1.55-1.32-2.06c-0.52-0.51-0.75,0.22-1.56,1.11c-0.81,0.9-0.16,1.23,0.65,1.62
	c0.81,0.39,1.38,1.38,0.99,1.65s-0.83-0.05-2.31,0.12c-1.48,0.17-1.43-0.46-1.85-0.65c-0.42-0.19,0.7-0.6-0.88-1.26
	C111.69,45.48,111.79,45.6,111.27,45.63z M106.46,46.89c0.17-0.28-1.97,1.26-2.3,1.75c-0.33,0.5,0.33,0.41,0.98,0.39
	C105.79,49,105.92,47.82,106.46,46.89z M110.57,43.68c-0.53,0.24-0.53,0.42,0.34,0.52c0.87,0.1,1.38-0.29,1.2-0.65
	C111.92,43.18,111,43.49,110.57,43.68z M115,39.08c-0.57,0.1-2.26,0.69-2.35,0.98s0.02,0.92,0.27,1.42c0.26,0.5,0.35,0.57,1.81,0.18
	s2.46-1.14,1.97-1.27c-0.48-0.13-0.78-0.35-1.21-0.41s0.38-0.29,1.34-0.59C117.79,39.08,118.12,38.56,115,39.08z M110.07,39.84
	c-0.41,0.19-0.56,0.19,0.3,0.52s1.78,0.3,1.66,0.04C111.92,40.13,111.23,39.31,110.07,39.84z M113.43,37.46
	c-0.81,0.32-1,0.91-1.18,1.14s0.92-0.17,1.43-0.29c0.51-0.12,0.62,0.18,1.12-0.26c0.49-0.43,1.47,0.01,2.35-0.18
	s1.03-0.77,0.83-1.28C117.78,36.08,115.75,36.54,113.43,37.46z M122.24,39.65c-0.24,0.12-0.15,0.5,0.05,0.94
	c0.21,0.45,0.26,0.34,0.7,0.51c0.44,0.17,0.88,0.52,0.99,0.63s0.17,0.15,0.35-0.29c0.18-0.44-0.09-0.36-0.59-0.94
	C123.25,39.92,122.86,39.35,122.24,39.65z M125.24,43.45c-0.67-0.18-1.05,0.21-1.3,0.33c-0.25,0.12,0.13,0.4,0.3,0.92
	c0.17,0.52,0.03,0.69,1.01,0.76c0.99,0.07,1.29-0.11,1.36-0.74C126.7,44.09,125.86,43.62,125.24,43.45z M129.07,44.59
	c-0.61-0.45-0.91-0.81-1.54-0.56c-0.62,0.25-0.1,0.57-0.1,0.74c0,0.17,0.75-0.02,0.77,0.39c0.01,0.41,0.24,0.58-0.66,0.63
	c-0.91,0.05-1.16,0.01-1.51,0.28s0.68-0.04,0.99,0.38c0.31,0.41,0.84,0.46,1.71,0.33c0.87-0.13,2.05-0.33,2.05-0.33
	s-0.64,0.6-0.9,1.03c-0.26,0.42-0.36,1.03,0.09,1.33c0.45,0.3,0.51-0.31,1.77-0.34c1.26-0.02,1.64-0.68,1.64-0.68
	s-0.28-0.28-0.25-0.91c0.04-0.63-0.01-0.78-0.01-0.78s0.51,0.36,0.62,0.51c0,0-0.09-0.38-0.27-1.05c-0.18-0.68-0.04-0.73-0.24-1.65
	c-0.2-0.92-0.15-1.11-1.1-1.09c-0.95,0.03-1.6,0.35-2.38,0.35s-1.12,0.15-0.55,0.44c0.57,0.29,0.65,0.64,0.92,0.97
	s0.22,1.11,0.24,1.08C130.38,45.62,129.07,44.59,129.07,44.59z M124.33,48.04c-0.02,0-0.03,0.01-0.04,0.02
	c-0.4,0.19-0.53,0.63-0.56,0.94c-0.02,0.32,0.52,0.13,1.39-0.17C125.99,48.52,125.56,47.64,124.33,48.04z M136.6,46.39
	c-0.72,0.39-1.3,0.92-1.72,1.39c-0.41,0.47-0.05,0.53,1.03,1.08c1.08,0.55,2.24,0.65,2.74,0.08
	C139.16,48.38,138.41,45.4,136.6,46.39z M141.61,42.17c-1.38,0.14-0.96,0.35-2.55-0.18c-1.6-0.53-3.61-0.58-4.15-0.58
	c-0.55,0-0.29,0.25,0.27,1.18c0.56,0.92,0.72,1.25,1.89,0.96s2.13-0.49,2.98,0.74c0.86,1.23,1.31,1.62,0.6,2.07
	c-0.7,0.46-0.37,1.18,0.04,2.13c0.41,0.94,1.34,0.91,2.65,0.91s9.57-0.13,10.86-0.36c1.29-0.24,2.43-1.33,3.12-1.81
	c0.68-0.49,1.05-1.25,0.12-1.82c-0.94-0.56-2.26-1.09-3.31-1.09c-1.06,0-1.95,0.54-3.55,0.71c-1.6,0.16-1.25,0.93-2.69,0.96
	c-1.44,0.04-0.74,0.67-2.52-0.06c-1.77-0.73-3.08-1.63-2.24-1.76c0.84-0.13,1.52-0.24,1.05-0.63
	C143.72,43.13,142.9,42.04,141.61,42.17z M125.08,35.41c0.86,0.29,1.07,0.51,0.12,0.76c-0.96,0.25-1.7,0.93-0.74,0.8
	c0.95-0.13,1.77,0.09,3,0.29c1.23,0.2,1.13,0.07,1.68,0.76c0.55,0.69,1.13,0.69,1.97,0.49c0.84-0.2,0.95-0.25,0.41-0.85
	c-0.55-0.6-1.11-1.71-1.85-2.14c-0.74-0.44-1.36-1.05-2.1-0.98s-0.92,0.09-1.56-0.78s-1.15-0.45-2.09-0.22
	c-0.93,0.24-1.23,0.91-1.6,1.2C121.57,35.34,124.23,35.12,125.08,35.41z M136.31,26.52c-1.01,1.27-1.83,2.34-0.69,2.47
	c1.15,0.13,1.66-0.09,1.73,0.27c0.08,0.36-0.19,0.62-1.91,0.62c-1.71,0-1.19,0.38-0.23,1.51c0.96,1.13,1.05,0.74,2.51,0.71
	c1.46-0.04,1.95-0.56,3.16-0.25c1.21,0.31,1.58,0.62,0.49,0.94c-1.09,0.33-3.67,0.94-3.08,1.49c0.59,0.54,2.4,1.85,3.22,1.98
	s0.99-0.54,2.77-0.35c1.78,0.2,1.35,0.38,1.54-0.11c0.2-0.49,1.17-1.74,1.36-2.2c0.2-0.45,0.69-0.74,1.66-0.96
	c0.97-0.22,1.29-0.53,0.37-0.85c-0.92-0.33-1.95-0.47-1.85-0.73c0.1-0.26,0.66-1,0.27-1.38s-1.01-0.36-1.52-0.56
	c-0.5-0.2-1.07-1.13-1.71-1.52c-0.64-0.4-1.21-0.44-1.99-1.04c-0.78-0.6-2.03-2.06-3.59-1.98
	C137.77,24.63,137.32,25.25,136.31,26.52z M134.32,37.14c-0.39,0.2-1.36,0.23-0.64,0.83c0.72,0.6,0.52,0.62,1.44,0.27
	c0.92-0.34,2.24-1.2,2.36-1.45c0.11-0.26-0.92-0.74-1.62-0.96c-0.7-0.22-1.19-0.78-2.65-1.18
	C131.09,34.07,134.71,36.94,134.32,37.14z M182.01,18.26c-1.61-0.44-7.38-1.55-9.25-1.11c-1.87,0.44-1.77-0.97-4.37-0.63
	c-2.6,0.34-6.6,0.14-7.85,0.34c-1.25,0.19,0.62,0.73,1.3,1.16c0.68,0.44-3.22-0.48-6.19,0.34c-2.96,0.82-4.89,1.26-1.71,2.47
	c3.17,1.21,3.59,1.55,3.59,1.55s-4.06-0.73-5.77-1.4c-1.72-0.68-0.78-0.63-4,0.29s-6.34,1.4-6.18,2.37c0.15,0.97,2.6,2.27,4.21,2.61
	s4.94-0.48,5.2-0.58s-1.3,1.31-1.3,1.31s1.66-0.34,3.53-0.82s3.33-1.02,5.1-1.65s2.08-0.82,2.08-0.82s-3.06,2.37-5.2,3.19
	c-2.13,0.82-4.89,1.36-6.19,1.4c-1.3,0.05-1.09,0.87,0.21,1.55c1.3,0.68,2.29,2.13,2.96,2.61c0.68,0.49,0.78,1.26,0.78,1.26
	s-2.03-1.6-4.26,0c-2.24,1.6-1.92,2.42-1.35,2.61c0.57,0.19,2.55,0.39,2.91,1.06c0.36,0.68,2.96-0.63,2.96-0.63s-1.3,1.65-2.55,1.65
	c-1.24,0-1.19-1.06-3.01-0.87c-1.82,0.19-1.72,0.63-0.94,1.26c0.78,0.63,1.41,0.82,0.05,1.45c-1.35,0.63-1.97,0.82-2.03,1.6
	c-0.06,0.77,1.76,0.77,2.91,0.77c1.14,0,2.23-0.1,4.32-0.15c2.08-0.05,1.82-0.73,2.6-0.73s1.56,0.24,1.25,1.02s0.31,0.29,2.6-0.53
	c2.29-0.82,1.24-2.08,1.09-2.52c-0.16-0.44-0.99-0.58-1.51-0.82c-0.52-0.24,1.56-2.37,1.24-3.1c-0.31-0.73,2.55-0.15,3.85-1.84
	s0.83-2.95-0.1-3.24c-0.93-0.29,1.72-0.1,2.55-0.58s2.65-1.06,3.38-1.98c0.73-0.92,0.99-1.26-0.78-1.06
	c-1.77,0.19,2.54-0.77,4.62-2.13c2.08-1.35,4.47-2.95,4.99-3.34s0.99-0.19-1.46-0.05c-2.44,0.15-5.35-0.19-3.74-0.39
	c1.61-0.19,6.39-0.77,7.64-1.69C181.44,18.55,182.01,18.26,182.01,18.26z M152.91,51.85c-2.6-0.24-6.39-0.87-7.18,1.35
	c-0.78,2.23-1.97,7.17-2.08,8.08c-0.1,0.92,3.12,2.27,5.35,2.37c2.24,0.1,5.88,0.24,5.15-0.29c-0.73-0.53-0.11-0.82,1.97-0.73
	c2.08,0.1,2.29-0.44,2.29-0.87c0-0.44,0.36,0.53,1.82,1.31c1.45,0.77,2.7,2.95,4,4.21s4.21,2.95,3.64,3.92s0.62,4.36-3.85,5.13
	s-4.73,0.24-4.68,1.26c0.05,1.02,0.26,1.45,2.03,1.45s4.21-1.45,5.04-0.39c0.83,1.06,1.97,1.45,2.7,1.69
	c0.73,0.24-0.88,0.68-1.3,0.82c-0.41,0.14,0.88,0.29,3.43,1.5c2.55,1.21,5.61,1.36,4.1,0.48c-1.5-0.87-2.23-2.47-2.91-3
	c-0.68-0.53-0.05-0.1,1.14,0.19c1.2,0.29,2.29,1.26,2.81,1.69c0.52,0.44,0.78-0.14,1.14-1.84c0.36-1.69-0.15-1.69-2.18-3.05
	c-2.03-1.35-2.65-2.42-2.86-3.39s1.04-1.16,1.56-1.84c0.52-0.68,1.97,1.21,2.96,2.32s1.82,3.05,2.6,1.65s1.51-4.55,1.51-5.28
	c0-0.73-0.78,0.05-4.1-1.6c-3.33-1.65-5.04-2.27-5.35-2.27c-0.31,0,0.88-0.63,2.34-1.36c1.45-0.73,2.08-0.63-1.04-3.58
	c-3.12-2.95-4-3.58-6.03-3.78c-2.03-0.19-2.6-2.32-4.06-3.05c-1.45-0.73-4.83,0.87-5.82,1.11c-0.98,0.24-0.68,0.63-1.92-1.16
	C153.89,53.16,152.91,51.85,152.91,51.85z M155.25,51.85c-1.29,0.15,0.78,2.52,2.44,2.61c1.67,0.1,3.07-0.73,3.43-0.82
	C161.48,53.54,157.27,51.61,155.25,51.85z M149.41,75.86c-0.22,0.53-0.74,2-0.82,2.98s-0.24,1.13-0.43,1.74
	c-0.2,0.62,0.62-0.11,1.17,0.8c0.54,0.91,0.31,1.16,1.29,0.11s2.07-1.42,3.43-0.98c1.36,0.44,2.42,0.62,1.95-0.22
	c-0.47-0.84-1.09-0.76-2.03-1.89s-1.64-1.42-2.8-1.85C149.99,76.11,149.88,74.73,149.41,75.86z M159.22,160.68
	c-0.4-0.84-1.01-2.2-3.53-2.67c-2.53-0.47-3.38,0.47-4.32,0.78c-0.94,0.32,0.87,0.47,2.07,0c1.2-0.47,2.12-0.1,2.28,0.11
	c0.16,0.22-0.4,0.35-0.61,0.12c-0.21-0.23-0.24,0.56,1.11,1.05c1.36,0.49,1.69,0.72,1.83,1.31c0.14,0.58,0.13,0.89,0.43,1.38
	c0.31,0.49,0.43,0.69-0.14,0.9c-0.58,0.22-0.37,0.19,0.05,0.44c0.42,0.26,1.26,0.69,2.46,0.79c1.19,0.1,1.58,0.32,0.75-0.77
	C160.78,163.06,159.34,160.94,159.22,160.68z M163,165.99c0.66,0.67,0.47,1.41,0.42,1.8s-0.76,0.09-2.06-0.26
	c-1.3-0.34-1.1-0.18,0.03,0.44c1.13,0.61,1.87,0.46,1.82,1.28c-0.05,0.82,1.04,0.07,1.53-0.4c0.48-0.47,0.45-0.05,2.46,0.25
	c2.02,0.3,2.43,0.67,2.11-0.22c-0.32-0.88,0.92-0.81-0.87-1.66C166.64,166.38,162.25,165.22,163,165.99z M157.25,166.5
	c-0.76-0.84-1.71-0.96-1.71-0.25c-0.01,0.72,0.26,0.67,0.96,0.87C157.2,167.31,157.74,167.03,157.25,166.5z M171.9,170.14
	c-0.83-0.28-0.99,0.34-0.45,0.85c0.55,0.52,1.39,0.34,2.22,0.3C174.5,171.25,173.34,170.63,171.9,170.14z M162.41,68.83
	c-1.09,0.46-1.73,0.78-0.78,2.03c0.96,1.25,1.52,2.03,1.89,1.12C163.89,71.08,164.26,68.05,162.41,68.83z M153.66,82.27
	c-1.65,0.27-2.19,0.31-1.93,1.24c0.26,0.92,0.7,0.77,1.82,0.22C154.67,83.17,155.45,81.98,153.66,82.27z M157.09,83.67
	c-0.28,0.09-0.36,0.73,0,1.31c0.36,0.58,1.07-0.19,1.38-0.9C158.78,83.38,158.13,83.36,157.09,83.67z M139.1,39
	c-1.56,0.05-3.9,0.6-2.6,0.63c1.3,0.02,2.36,0.29,4.47,0.17c2.1-0.12,2.31-0.27,2.36-1.28C143.39,37.5,141.97,38.9,139.1,39z
	 M129.36,30.45c-1.59,0.49-1.2,0.82,0.68,1.65c1.87,0.82,1.92,0.44,1.72-1.11C131.54,29.44,130.29,30.16,129.36,30.45z
	 M240.46,70.97c-1.97,0.55-2.63,0.22-3,1.22s-1.14,0.46-1.59,0.59c-0.44,0.12-1.07,2.91-1.38,2.5c-0.32-0.41-0.43-0.64-0.88-1.6
	c-0.45-0.96,0.15-0.79-0.72-1.8c-0.86-1.01-2.58-0.9-2.7-0.48c-0.12,0.41,1.18,0.76,0.74,1.23c-0.45,0.47-1.5,1.04-1.91,1.38
	c-0.4,0.34,0.77,0.19,1.51,0.02c0.73-0.17,1.24,0.55,1.54,1.07c0.3,0.52-0.34,1.02-0.66,1.27s1.07,0.19,1.63,0.29
	s0.85,0.57,0.47,1.2s1.65,0.09,2.78,0.03c1.12-0.07,1.42,0.77,3.12,0.24s2.51-0.5,4.06-1.64c1.55-1.15,1.43-0.88,2.46-1.62
	c1.03-0.74,0.78-0.97,0.83-1.79c0.04-0.82,0.68,0.23,0.44-1.01c-0.24-1.24-1.51-0.9-2.4-1s-0.85-0.79-1.3-1.01
	C243.04,69.82,242.45,70.41,240.46,70.97z M372.04,177.6c-0.08,0.29-0.21,0.63-0.21,1.28s-0.08,1.36-0.02,2.01
	c0.05,0.65,0.09,1.11,0.45,1.26c0.37,0.14,0.61,0.29,1.21,0.01s1.16-0.77,0.86-1.53c-0.3-0.75-0.86-1.78-1.19-2.34
	C372.82,177.75,372.2,177.05,372.04,177.6z M371.56,176.7c0.07,0.28,0.15,0.22,0.28,0.41s0.27,0.02,0.09-0.23s-0.16-0.28-0.16-0.28
	s-0.23-0.08-0.23,0.15 M427.68,215.34c-0.01,0.03-0.04,0.04-0.06,0.07c-1.07,1.08-2.04,0.78-3.87,1.35
	c-1.87,0.58-5.11,2.47-5.34,3.3s0,0.94-0.23,0.83c-0.24-0.11-0.63-0.62-0.63-0.62s-0.5,1.02-0.39,1.92
	c0.12,0.91,0.54,1.45,0.51,2.61c-0.04,1.16-0.47,1.85-0.43,2.65c0.04,0.8,1.36,2.32,1.71,3.27c0.35,0.94,0.59,0.69,0.78,2.4
	c0.2,1.71,1.09,2.65,0.2,3.56c-0.89,0.91-1.56,0.73-0.47,1.67s1.99,1.56,3.74,0.94c1.76-0.62,1.29-1.16,2.65-1.45
	s1.64-0.58,2.81-0.65c1.17-0.07,1.99,0.04,2.42-0.8c0.42-0.83,0.11-0.8,1.28-1.38s1.05-0.73,1.83-0.87s1.29,0.4,2.34-0.44
	c1.05-0.83,0.27-0.91,2.61-0.91s3.32,0.33,4.17,0.62c0.86,0.29,2.26,1.05,2.61,1.6c0.35,0.54,0.82,1.2,0.97,1.2
	c0.16,0,0.35,0.04,0.9-0.51c0.54-0.55,2.1-1.63,2.1-1.63s-0.08,1.16-0.43,1.6c-0.35,0.43-0.35,1.05-0.35,1.27s0.9-0.69,1.02-0.73
	s0.23,1.6,0.35,1.74s0.47,0.07,0.82,0.54c0.35,0.47,0.82,0.84,1.17,1.74c0.35,0.91,1.83,1.81,2.77,1.96
	c0.94,0.15,1.75,0.07,2.45-0.04s0.74-0.94,1.48-0.62c0.74,0.33-0.04,1.02,1.72,0.87c1.76-0.14,2.22-0.73,2.92-1.2
	s0.78,0.65,1.68-0.58c0.89-1.23,1.05-0.94,1.21-2.43c0.16-1.49,0.12-1.78,0.97-3.19c0.86-1.42,1.06-0.73,1.64-2.8
	c0.58-2.07,1.32-4.03,1.25-5.74c-0.08-1.71,0.03-0.58-0.35-2.51c-0.39-1.92-0.12-1.71-1.36-2.5c-1.25-0.8-1.56-0.58-1.87-1.71
	s0.08-1.45-0.51-1.45c-0.58,0-1.09,0.25-1.44-0.51s-0.31-1.05-0.97-1.78s-1.29-0.58-2.5-1.12s-0.59-0.69-0.59-1.63
	s0.07-1.95-0.89-2.38c-0.96-0.44-0.39,0.24-0.39-1.31s0-1.33-0.78-1.6s-1.04-0.24-1.54-1.19c-0.49-0.94-1.14-2.49-1.37-3.12
	c-0.24-0.63-0.52,0.07-0.83,0.53c-0.31,0.46-0.75,1.48-0.75,2.42s0.41,1.48,0.41,2.73c0,1.26-0.88,2.52-1.43,3.24
	c-0.55,0.73-0.99,0.07-1.46-0.12s-0.57-0.9-1.56-1.38c-0.99-0.48-2.81-0.92-3.64-1.67c-0.83-0.75-0.26-0.78,0-1.55
	s0.62-1.4,1.25-1.91c0.62-0.51,0.44-0.7-0.34-1.14s-1.87-0.46-3.2-0.46c-1.33,0-2.11-0.1-2.03,0.65s0.86,1.04-0.26,0.82
	c-1.12-0.22-2.08-0.31-2.57,0.22c-0.49,0.53-0.6,0.85-0.88,1.99s0.08,1.21-0.39,1.21s-2.31-0.9-2.94-1.16
	c-0.62-0.27-0.96-0.24-1.69,0.44c-0.73,0.68-3.25,2.88-4.19,3.41C428.58,212.48,428.63,212.36,427.68,215.34z M393,182.62
	c-0.55-0.07-0.86-0.22-0.18,0.65s0.86,1.04,1.51,1.65c0.65,0.6,0.88-0.44,1.38,0.72c0.49,1.16,0.31,1.19,0.81,1.62
	c0.49,0.44,0.91,0.56,1.04,0.99c0.13,0.44,0.28,1.11,0.86,1.6c0.57,0.48,0.57,0.41,0.91,1.35s0.86,1.62,1.12,2.42
	s1.74,1.55,2.49,2.52s2.03,2.37,2.24,1.98s0.75,0,1.14-0.14c0.39-0.15,0.52-0.7,0.78-2.06s-0.24-1.98-0.6-2.3
	c-0.36-0.31-1.04-0.39-1.22-0.68s-0.49-1.28-0.94-1.6c-0.44-0.31-0.55,0.02-0.55-0.75s0.52-0.7-0.13-1.14s-0.73-0.75-0.94-0.97
	s-1.61-0.56-1.97-0.95c-0.36-0.39-1.9-1.09-2.62-1.82c-0.73-0.72-1.54-1.3-1.77-1.84C396.12,183.37,395.39,182.93,393,182.62z
	 M408.13,198.23c-0.62,0-0.94-0.36-1.35,0.39s-0.36,0.75,0.28,0.75c0.65,0,0.52,0.34,0.49,0.44c-0.02,0.1-0.31-0.07,1.01,0.46
	c1.32,0.53,2.26,0.31,2.63,0.12c0.36-0.19,0.49,0.48,2.31,0.77c1.82,0.29,2.78-0.17,3.95,0.12s0.88-0.15,0.05-0.77
	c-0.83-0.63-0.75-0.29-1.59-0.9c-0.83-0.61-2-0.63-2.54-0.73c-0.55-0.1,0.47,0.58-1.2,0.36s-1.07,0.15-1.92-0.41
	c-0.86-0.56-0.86-0.65-1.43-0.75C408.26,197.99,408.13,198.23,408.13,198.23z M421.33,200.89c-0.47,0.14-1.43,0.41-0.99,0.61
	c0.44,0.19,0.1,0.31,1.48,0.19c1.37-0.12,2.57-0.29,2.75-0.58c0.18-0.29-0.23-0.1-0.81-0.27c-0.57-0.17-0.52,0.12-1.3,0.22
	C421.69,201.15,421.33,200.89,421.33,200.89z M426.16,200.79c-0.92,0.11-0.81,0.31-0.08,0.53s1.41,0.31,1.95,0.17
	c0.54-0.15,0.62-0.29,1.64-0.46c1.01-0.17,1.35-0.14,2.15-0.24c0.81-0.1,0.81-0.1,0.81-0.1s-0.08-0.17-0.62-0.14
	c-0.54,0.02-0.93,0.05-1.48,0.05c-0.55,0-1.48,0.48-1.87,0.46c-0.39-0.02-1.14-0.27-1.33-0.15
	C427.15,201.03,427.15,200.67,426.16,200.79z M431.36,201.98c-0.02,0.01-0.02,0.02-0.03,0.02c-0.64,0.44-0.67,0.56-0.61,0.91
	c0.06,0.35-0.07,0.51-0.07,0.51s0.95-0.05,1.67-0.77c0.72-0.73,0.75-0.72,1.49-0.98s1.58-1.07,1.58-1.07s-0.59,0.13-1.23,0.07
	c-0.64-0.05-1.28,0.33-1.48,0.51C432.47,201.35,432.88,201.4,431.36,201.98z M425.93,202.36c-0.68-0.48-1.33-0.42-1.38-0.12
	c-0.05,0.3-0.59,0.28,0.37,0.64c0.96,0.35,1.86,0.82,1.79,0.33C426.64,202.73,426.22,202.57,425.93,202.36z M419.72,182.18
	c-0.39,0.56,0.36,0.41-0.21,0.9c-0.57,0.48-1.01,0.27-1.58,0.99c-0.57,0.73-1.43,1.23-1.79,1.5c-0.36,0.27-1.54,0.58-2.06,1.28
	s0.19,1.09,0.19,1.09s-0.32,0.15-1.14-0.17c-0.83-0.31-0.88-0.7-0.88-0.7s-0.6-0.02-0.93,0.87c-0.34,0.9-0.52,0.99,0.07,1.53
	c0.6,0.53-0.41,0.56-0.28,0.92s0.13,1.04,0.49,1.11s0.44-0.34,0.89,0.22c0.44,0.56,0.08,2.13,0.65,2.2
	c0.57,0.07,0.99-0.17,1.48,0.05c0.5,0.22,0.86,0.41,1.51,0.19c0.65-0.22,1.35,0,1.69,0.19s1.56,0.6,2.16,0.56
	c0.6-0.05,0.7,0.1,0.81-0.75c0.1-0.85,0.03-1.65,0.75-2.3c0.73-0.65,0.75-0.65,0.81-1.26c0.05-0.6,0.05-1.23,0.49-1.86
	s0.7,0.36,0.94-0.12c0.23-0.48,0.47-0.48,0.34-0.73c-0.13-0.24-0.81-0.24-1.06-0.7c-0.26-0.46,0.08-0.7-0.24-1.65
	c-0.31-0.94-0.49-0.58-0.05-1.11s0.81-0.63,0.86-1.04c0.05-0.41,0.23-0.44,0.78-0.82c0.54-0.39-0.09-0.21-0.61-0.59
	c-0.52-0.39-1.49-1.84-2.1-1.83C421.34,180.15,420.11,181.62,419.72,182.18z M496.51,233.56c-0.25-0.18-0.46-0.05,0.11,0.63
	c0.57,0.68,0.62,0.48,0.98,0.51c0.36,0.02,0.68,1.36,0.88,1.7c0.21,0.34,0.6,0.75,0.6,0.75s0.21,1.45,0.03,2.11
	c-0.18,0.65-0.57,0.94-0.7,1.55s0.6,0.44,1.07,0.63s0.39,0.19,0.21,0.73c-0.18,0.53-0.73,0.77-0.73,0.87c0,0.1,1.07,0.7,1.61,0.05
	c0.54-0.65,1.4-1.62,1.64-2.32c0.23-0.7-0.42-0.39,0.34-0.9c0.75-0.51,0.65-0.27,1.04-0.9c0.39-0.63,0.8-1.28,0.36-1.62
	s-0.94,0.41-1.33,0.56c-0.39,0.15-0.7,0.17-1.24-0.1c-0.55-0.27-0.65-0.27-0.86-0.75s-0.47-0.75-0.47-0.75s-0.16,0.82-0.55,0.56
	c-0.39-0.27-0.29-0.56-0.57-1.02s-0.28-0.61-0.47-0.94c-0.18-0.34-0.02-0.99-0.93-1.09C496.62,233.71,496.75,233.73,496.51,233.56z
	 M496.67,242.35c0,0-0.73,0.63-1.37,1.52c-0.65,0.9-0.75,1.23-0.96,1.72c-0.21,0.48-0.96,1.07-2.21,1.72s-1.72,0.92-2.13,1.52
	c-0.41,0.61-1.9,2.49-2.08,2.71c-0.19,0.22,0.7,0.44,1.61,0.44c0.91,0,2.34,0.82,3.12-0.02c0.78-0.85,1.56-2.86,2.05-3.58
	c0.49-0.73,0.96-0.99,1.74-1.69s2.08-2.01,2.08-2.52c0-0.51-0.34-1.33-0.34-1.33s-0.28,0.56-0.96,0.49
	C496.54,243.24,496.67,242.35,496.67,242.35z M490.54,251.64c-0.91-0.48-1.09,0.42-1.24,1.34s0.39,0.14,1.19-0.28
	C491.29,252.29,490.89,251.83,490.54,251.64z M459.64,245.3c-1.03-0.34-0.86,0.63-0.7,1.36c0.15,0.73,0.36,1.31,0.75,1.91
	c0.39,0.61,1.84,0.82,2.42,0.56c0.57-0.27,0.98-1.16,1.56-2.01c0.57-0.85,0.83-1.82,0.73-2.32c-0.11-0.51-0.83,0.46-1.3,0.68
	c-0.47,0.22-1.09,0.78-1.97,0.53C460.24,245.76,460,245.42,459.64,245.3z M446.7,193.34c-0.83,0.19-1.25-0.53-1.92-1.94
	c-0.68-1.4-1.2-1.6-2.91-0.97c-1.72,0.63-1.46,0.49-0.31,0.92c1.14,0.44,1.3,0.58,1.45,0.58c0.16,0,1.82,0.24,1.46,0.48
	c-0.37,0.24-1.92,0.48-0.94,1.16c0.99,0.68,0.57,0.19,3.17,1.5s3.02,0.34,3.85,2.03c0.83,1.69,0.83,1.4,0.15,1.84
	s-1.56,0.87-1.2,0.92s1.04,0.19,2.81,0.29c1.77,0.1,0.1,1.11,2.08,1.11c1.98,0,2.49-0.63,3.28-1.55c0.78-0.92,0.94-0.43,2.6-0.05
	c1.66,0.39,2.24,1.84,4.32,2.42c2.08,0.58,2.96,1.35,1.66,0.15c-1.3-1.21-1.77-2.08-3.54-3.49c-1.77-1.4-1.87-1.55-2.39-2.61
	c-0.52-1.07-2.34-2.32-4.36-3.15c-2.03-0.82-3.19-0.94-5.56-1.6C447.94,190.72,447.53,193.14,446.7,193.34z M433.02,188.5
	c-0.78,0.54-0.87,0.21-1.46-0.15c-0.58-0.36-0.42,0.75-1.72,0.15s-1.78-0.91-3.17,0.12s-0.52,1.45-0.55,2.17s-1.16,2.77-1.59,3.53
	c-0.42,0.75-0.42,1.03-0.1,1.51s0.78,0.3,0.97,0.54c0.2,0.24,0,2.14-0.23,2.77s0.55,0.75,1.36,0.57s0.1-0.24,0.1-0.9
	c0-0.66,0.39-0.97,0.39-2.2c0-1.24,0-1.81,0-1.81s0.23-0.12,0.52,0.3c0.29,0.42,0.71,1.6,1.07,2.2c0.36,0.6,0.71,1.06,1.26,0.63
	c0.55-0.42,1.07-0.9,1.07-0.9s-1.07-0.33-1.07-0.69s0.45-0.66-0.29-1.87c-0.74-1.21-1.13-1.27-0.19-1.33s0.91-0.99,1.46-1.27
	c0.55-0.27,1.33-0.18,1.33-0.18s-0.55-0.57-1.39-0.33c-0.84,0.24-1.59,0.36-2.3,0.75s-1.33,0.63-1.46-0.09s-0.22-0.9-0.13-1.9
	c0.1-0.99,1.23-0.24,2.07-0.48c0.84-0.24,0.84-0.18,2.69-0.06c1.84,0.12,1.97-0.3,2.53-1.05c0.55-0.75,0.87-1.63,0.87-1.63
	S433.8,187.95,433.02,188.5z M437.39,185.86c0.17-0.3-1.35,1.04-1.64,1.31c-0.28,0.27,0,0.65,0.21,1.04s0.16,1.72,0.24,2.01
	s0.86,0.56,0.86,0.56s-0.02-0.89,0.26-1.31c0.28-0.41,0-0.92,0-1.67C437.31,187.04,436.9,186.75,437.39,185.86z M434.4,193.81
	c-1.19-0.46-1.64-0.16-1.64,0.47c0,0.62-0.13,0.93,1.14,0.93C435.18,195.21,436.61,194.65,434.4,193.81z M436.78,193.4
	c-0.3,0.09-0.6,1.03-0.44,1.59s0.37,0.19,1.04,0.06c0.67-0.12,0.57-0.65,1.4-0.72c0.84-0.06,2.57,0.59,2.57,0.59
	s0.37-0.43-0.97-1.28C439.05,192.81,438.45,192.87,436.78,193.4z M413,162.61c0,0-1.2,0.04-1.38,0.04s-0.6,0.46-0.9,0.64
	s-0.3,0.43-0.09,0.91c0.21,0.47,0.56,0.5,1.14,0.65c0.59,0.16,0.38-0.25,0.81-0.41s0.54-0.54,0.64-0.89
	c0.09-0.35,0.37-0.51,0.48-0.63c0.1-0.12-0.34-0.53-0.34-0.57C413.37,162.31,413,162.61,413,162.61z M427.08,164.29
	c-0.47-0.35-0.73,0.87-0.86,1.5c-0.13,0.63-0.28,1.04-0.05,1.5c0.24,0.46,0.13,0.61,0.13,0.61l-0.68-0.51c0,0-0.18,0.58-0.18,1.09
	s-0.21,0.73,0.57,1.09s1.04,0.17,1.14,0.73s0.1,0.8,0.62,0.9c0.52,0.1,1.12,0.31,1.33,0.65s0.1-0.9,0.47-0.82
	c0.36,0.07,0.78,0.53,1.04,0.94s0.65,0.43,0.65,0.43s-0.6-0.99-0.34-1.11s0.34-0.22-0.34-0.63s-1.22-0.31-1.74-0.39
	c-0.52-0.07-0.52,0.36-0.91-0.65c-0.39-1.02-0.08-1.65-0.08-1.86c0-0.22,0.28,0.34,0.6-0.36c0.31-0.7,0.39-1.26,0.34-1.94
	c-0.05-0.68,0.47-0.94,0.08-0.97C428.47,164.46,427.33,164.49,427.08,164.29z M433.26,177.3c0.08,0.49-0.47-0.13-0.67,0.15
	c-0.21,0.28-0.31,0.23-0.65,0.36c-0.33,0.14-1.13,0.88-1.13,0.88s-0.01-0.48,0.01-0.59c0.02-0.11-0.24-0.67-0.49-0.29
	c-0.24,0.38-0.48,0.63-1.02,0.9c-0.55,0.27-0.88,0.67-0.95,1.16s0.33,0.47,0.33,0.47s0.21-0.16,0.58-0.73
	c0.36-0.56,0.42-0.54,1.08-0.63c0.65-0.08,0.6-0.07,0.81,0.28s0.05,0.89,0.07,1.28c0.02,0.39-0.02,0.86,0.65,1.09
	c0.68,0.23,0.35,0.02,0.97-0.04c0.61-0.06,0.6-0.04,0.51-0.34c-0.09-0.31-0.27-0.58-0.31-0.94s0.35-0.52,0.48-0.59
	c0.13-0.07,0.21,0.36,0.39,0.82c0.19,0.46,0.26,0.43,0.34,0.09s0.29-1.16,0.22-1.6c-0.08-0.44-0.12-0.77-0.12-1.13
	s-0.31-0.8-0.48-0.93c-0.17-0.13-0.78-0.66-0.78-0.66S433.18,176.81,433.26,177.3z M430.27,174.34c0,0,0.01-0.31-0.55-0.86
	c-0.57-0.55-0.58-0.71-1.44-0.86c-0.86-0.15-1.72,0.07-1.36,1c0.36,0.92,0.47,1.06,1.2,1.17c0.72,0.11,1.17-0.28,1.17-0.28
	s0.06,0.15-0.63,0.58c-0.69,0.43-0.76,1.26-0.23,1.58c0.54,0.32,0.52,0.81,0.83,0.57c0.31-0.25,0.54-1.1,1.17-1.69
	s0.67-0.68,0.75-1.31s0.01-1.13,0.01-1.13L430.27,174.34z M431.74,172.56c-0.08,0.06-0.53-0.04-0.06,0.41s0.9,0.55,0.84,0.89
	s-0.02,0.4-0.28,0.36s-0.34-0.1-0.46-0.11s-0.13,0.22-0.06,0.43c0.08,0.21,0.06-0.03,0.28,0.33c0.23,0.35,0.17,0.47,0.24,0.88
	c0.07,0.41,0.24,0.21,0.24,0.21s-0.06-0.98-0.03-1.18s-0.08-0.68,0.25-0.53s0.24,0.74,0.44,0.19c0.2-0.54,0.11-1.03,0.01-1.46
	c-0.1-0.44-0.44-0.45-0.84-0.45C431.92,172.53,431.74,172.56,431.74,172.56z M425.02,174.24c-0.19,0.05-0.31,0.24-0.43,0.9
	c-0.12,0.66-0.49,1.01-0.89,1.4c-0.4,0.39-1.48,1.43-1.54,1.64s-0.07,0.08,0.74-0.3s1.45-0.89,1.55-1.41c0.1-0.52-0.1-0.2,0.62-0.53
	c0.71-0.34,0.35-0.44,0.38-0.97C425.47,174.44,425.37,174.15,425.02,174.24z M468.05,194.06c-0.09,0.67,0.2,0.87-0.43,1.37
	s-1.33,0.5-1.99,0.6c-0.66,0.11-0.18-0.11-1-0.13s-1.03,0.04-0.65,0.45s0.28,0.81,1.49,0.76s2.21-0.7,2.99-0.94s0.72-0.87,0.78-1.16
	C469.31,194.72,468.14,193.34,468.05,194.06z M471.42,195.52c0.34,0.48,0.21,0.4,0.64,1.03c0.43,0.63,1.11,0.74,1.61,0.91
	c0.51,0.17,0-0.18-0.37-0.69c-0.38-0.51-0.4-0.79-0.96-1.3C471.78,194.96,470.84,194.68,471.42,195.52z M427.53,154.82
	c-1.67,1.06-2.42,0.98-1.75,2.32c0.66,1.34,1.08,1.91,1.17,2.17c0.09,0.25,0.43-0.17,0.88-1.23c0.46-1.07,0.51-2.46,0.69-2.88
	C428.7,154.77,428.1,154.45,427.53,154.82z M456.05,102.6c0.18,0.7,0.36,1.79-0.05,1.91c-0.42,0.12-0.7,0.9-0.81,1.69
	c-0.11,0.8-0.31,1.82,0.13,2.44c0.45,0.63,0.13,0.68,0.13,1.21s0.16,1.89-0.1,2.69s-0.42,0.99-0.31,1.84c0.1,0.85,0,1.02,0,2.23
	c0,1.21-0.08,2.18-0.02,2.66c0.05,0.48,0.31-0.24,0.49-0.41c0.18-0.17,0.88-0.27,1.28,0.15c0.39,0.41,0.39,0.41,0.39,0.41
	s0.62,0.27-0.23-1.57c-0.86-1.84-1.01-1.45-0.78-3.12c0.23-1.67,0.36-1.69,1.25-1.86c0.88-0.17,1.35,1.04,1.46,1.16
	c0.1,0.12-0.08-0.41-0.39-1.36c-0.31-0.94-0.6-1.26-0.7-2.44c-0.1-1.19-0.47-2.18-0.94-2.52s-0.23-0.9-0.02-1.36
	c0.21-0.46,0.28-1.16,0.18-1.96c-0.11-0.8-0.34-1.91-0.47-2.35c-0.13-0.43-0.65,0.27-0.65,0.27L456.05,102.6z M455.27,121.14
	c0.05,0.53,0.11,1.01-0.26,1.62s-0.11,0.75-0.31,1.6c-0.21,0.85-1.22,0-1.22,0.17s-0.15,0.78-0.41,0.99
	c-0.26,0.22-1.14,0.27-0.88,1.11c0.26,0.85,0.73,1.74,0.73,1.74s0.52-0.48,0.67-0.53c0.16-0.05,0.57-0.17,0.57-0.17
	s-0.08-0.24-0.65-0.51c-0.57-0.27-0.52-0.82-0.44-0.99s0.81,0.05,1.27,0c0.47-0.05,0.86-0.29,1.43,0.17s1.4,0.63,1.4,0.63
	s0.1-0.68,0.36-1.16c0.26-0.48,1.01-0.27,1.77-0.48c0.75-0.22,1.32-0.34,1.07-0.65c-0.26-0.32-0.24-1.02-0.39-1.55
	c-0.15-0.53-0.65-0.02-1.04,0.17c-0.39,0.19-0.88,0.05-1.4-0.29c-0.52-0.34-1.46-1.62-1.79-2.13
	C455.74,120.87,455.22,120.61,455.27,121.14z M452.94,129.08c-0.25,0.12-0.56,0.76-0.5,1.47s0.66-0.05-0.12,2.12
	c-0.78,2.18-1.17,2.67-1.93,3.23c-0.76,0.56-1.46,0.56-1.75,0.42c-0.3-0.14,0.08-0.63,0.29-0.78c0.22-0.14-0.67-0.2-1.03-0.14
	c-0.37,0.05-0.02,0.47-0.06,0.82c-0.04,0.34-0.76,1.27-0.68,1.69c0.08,0.42,0.08,0.54-0.39,0.69c-0.47,0.15-0.78-0.35-0.92-0.42
	c-0.14-0.07-0.84,0.13-1.75,0.25c-0.92,0.13-1.15,0.43-1.54,1.11c-0.39,0.67-1.31,0.78-1.97,1.03s-0.41,1.2-1.13,1.53
	s-0.72,0.93-0.78,1.42s0.45,0.15,0.52,0.11c0.08-0.04,0.08-0.69,0.53-0.62s0.51,0.09,0.27,0.6c-0.23,0.51-0.37,0.76-0.6,1.2
	c-0.24,0.44,0.08,0.64,0.42,1.07c0.35,0.43,0.69-0.13,1.42-0.91c0.74-0.78,0.8-0.96,0.74-1.85s-0.35-0.91-0.9-1.16
	s-0.67,0-0.06-0.69c0.6-0.69,0.88-0.02,1.29-0.33s1.41-0.29,2.36-0.53c0.96-0.24,1.87-0.54,1.91-0.24c0.04,0.31,0.33,1.34,0.37,1.56
	s0.67-0.31,1.31-0.54c0.64-0.24,0.04-0.34-0.02-0.76s0.29-0.65,0.29-0.65s0.33,0.69,1.36,0.2c1.04-0.49,1.11-0.69,1.39-0.62
	c0.27,0.07,0.45,0.34,0.88,0.07c0.43-0.27,0.51-0.02,0.43,0.2c-0.08,0.22,1.25-0.42,1.54-0.62s0.14-0.02,0.02-0.78
	c-0.12-0.76-0.49-0.82-0.27-1.8c0.21-0.98,0.15-1.07,0.21-1.69s0.29-0.71,0.45-0.74c0.16-0.04,0.16-0.85,0.49-1.29
	c0.33-0.44,0.25-0.64,0.25-1.64s-0.55-0.82-0.58-1.52c-0.04-0.71,0.13-1.4,0.13-1.4s-1.11,0.42-1.23,0.67
	c-0.12,0.26-0.12,0.26-0.12,0.26S453.32,128.9,452.94,129.08z M445.67,139.99c-1.15,0.19-1.96,0.32-2.65,0.53
	c-0.69,0.22-0.83,0.52-0.72,1.2s0.37,1.36,0.47,1.72c0.1,0.35,0.47,0,1.11-0.34c0.64-0.34,0.6-1.34,1.22-1.34s0.39,0.71,1.22-0.29
	s0.2-1.08,0.23-1.58C446.57,139.39,445.67,139.99,445.67,139.99z M518.51,86.23c-1.23-0.24-1.59-0.51-1.7-0.06
	c-0.12,0.45-0.25,0.59,0.53,0.87c0.78,0.28,1.17-0.21,1.9,0.34c0.73,0.54,0.94,0.52,1.49,0.45c0.56-0.07,0.78-0.35,0.78-0.35
	S519.44,86.41,518.51,86.23z M504.43,66.84c-0.45,0.13-0.82-0.31-0.7,0.8c0.11,1.11,0.37,1.23,1.79,1.03c1.43-0.2,0.35-0.05,2.3-0.2
	c1.95-0.14,2.36-0.42,2.36-0.42s-0.27-0.54-0.93-1.05c-0.67-0.51-1.54,0.34-3.04,0.09C504.7,66.84,504.43,66.84,504.43,66.84z
	 M460.51,50.48c0.02,0.42,1.95,1.61,2.65,1.96c0.7,0.35,1.25,0.2,2.73,0.04s1.6-0.8,1.77-1.16c0.18-0.36-0.7-0.24-1.69-0.44
	c-1-0.2-1.81,0.18-2.17,0c-0.35-0.18,0.53-0.36-0.35-0.69c-0.88-0.33-1.09,0.11-1.29-0.04c-0.19-0.15-0.23-0.45-0.66-0.49
	C461.08,49.63,460.49,50.08,460.51,50.48z M452.87,52.97c-0.67,0.27-0.62,0.51,0.13,1.14c0.76,0.63,0.51,0.49,0.18,0.94
	c-0.33,0.45,0-0.02,1.09,0.47s1.54,1.38,2.22,1.58s1.15-0.05,1.15-0.05s-0.23-0.73-0.88-1.6c-0.64-0.87-2.03-1.13-2.28-1.89
	C454.23,52.8,453.82,52.59,452.87,52.97z M459.83,49.41c0,0-0.99-0.6-2.5-1.54c-1.5-0.94-2.07-1.2-2.57-1.27
	c-0.51-0.07-0.42,0.53-0.62,1c-0.19,0.47-0.33,0.38-1.11,0s-1.56-0.96-2.36-1.14s-1.29,0.47-2.2,1.38c-0.92,0.91-0.39,1.16,0.72,2.5
	c1.11,1.34,1.6,1.42,2.5,0.89s0.64-0.87,1.29-0.62c0.64,0.26,2.87-0.25,2.94-0.25c0.08,0-0.14,1.24,0.84,0.91
	c0.97-0.33,1.87-0.49,2.32-0.98C459.51,49.79,459.83,49.41,459.83,49.41z M392.33,23.48c-0.28,0.24-1.95,0.1-2.81,1.45
	c-0.86,1.36-1.45,0.41-1.9,1.23c-0.44,0.82-0.81,1.82-0.81,1.82s0.78,0.92,1.61,0.85s2.29,0.29,3.09,1.4
	c0.81,1.11,1.4,1.11,3.35,1.43c1.95,0.31,1.06,0.58,2.08,0.49c1.01-0.1,2.41,0.12,2.11-0.39c-0.31-0.51-0.55-0.82-0.42-1.81
	c0.13-0.99,1.04-0.94-0.03-1.6c-1.07-0.65-1.82-0.12-1.77-0.24c0.06-0.12,0.96-0.48,0.6-0.51c-0.37-0.02-2.16-0.12-2.36-1.14
	c-0.21-1.02,0.49-1.09,0.85-1.16c0.37-0.07,0.26-0.19-0.78-0.94s-2.44-1.52-2.44-1.52C392.06,23.17,392.61,23.24,392.33,23.48z
	 M402.1,30.82c-0.75,0.15-1.38,0.9-1.82,1.55c-0.44,0.65-1.33,1.65-1.87,2.08c-0.55,0.44-0.39,0.56,0.49,0.87
	c0.88,0.31,2.44-0.56,2.89-0.58c0.44-0.02,0.78,0.65,2.18,0.48c1.4-0.17,3.53-0.44,2.5-1.19c-1.04-0.75-0.68-0.39-1.82-1.31
	c-1.15-0.92-2.6-0.99-2.6-0.99s2.37-0.8,1.79-0.85C403.27,30.84,402.1,30.82,402.1,30.82z M342.01,18.88
	c-1.36,0.49-0.88,0.73-1.77,1.43c-0.88,0.7-0.29,0.9,1.61,0.44s2-0.65,3.22-1.21C346.3,18.98,344.04,18.16,342.01,18.88z
	 M345.02,22.3c-1.27,0.57-0.94,1.16-0.6,1.65c0.34,0.48,1.27-0.29,1.53,0.24s0.34,0.31,1.54-0.49c1.19-0.8,0.75-0.56,0.29-1.4
	C347.31,21.45,347.21,21.33,345.02,22.3z M337.92,21.95c-0.82,0.39-0.82,0.34-0.04,0.71c0.78,0.36,2.67,0.65,3.64,0.02
	c0.98-0.64,0.9-0.51-0.33-0.69C339.97,21.8,338.84,21.51,337.92,21.95z M325.87,23.42c1.27-0.11,2.44-0.16,3.45-0.05
	s0.64,0.98-1.23,1.18c-1.87,0.2,0.18,0.49,1.5,0.44c1.33-0.06,0.47-1.14,1.58-1.53c1.11-0.38,1.81-0.15,3.14-0.62
	c1.33-0.47-0.76-0.93-2.3-0.89c-1.54,0.04-2.05,0.13-3.35,0.04c-1.31-0.09-2.36,0.5-3.7,0.73
	C322.19,23.18,324.61,23.53,325.87,23.42z M335.82,23.76c-1.11,0-3.8,0.62-1.54,0.83c2.26,0.22,2.09,0.36,3.02,0.02
	C338.24,24.27,336.99,23.76,335.82,23.76z M343.69,24.23c-1.59-0.52-1.62-0.31-2.85-0.25c-1.23,0.05-1.71,0.82-0.91,1.14
	c0.79,0.33,1.34,0.2,2.01,0.09c0.66-0.11,0.62-0.31,0.2-0.47C341.7,24.58,344.63,24.54,343.69,24.23z M350.36,22.27
	c-1.22,0.15-1.29,0.36-1.41,0.76s0.17,0.31,1.46,0.15c1.29-0.16,1.89-0.34,2.73-0.8c0.84-0.45-0.18-1.56-0.18-1.76
	s-1.19,0.6-1.52,0.89C351.12,21.8,351.8,22.09,350.36,22.27z M254.9,91.9c-0.61,1.69-1.62,2.47-0.43,2.01
	c1.19-0.47,2.39-1.93,2.33-0.68c-0.06,1.25-1.23,1.07-0.86,2.29c0.37,1.22,0.09,1.12,2.08,1.56c2,0.44,0.37,0.29,0.86,1.46
	s0.83,1.54,0.31,1.88s-2.05-1.07-2.15-0.47c-0.09,0.6,0.21,1.04,0.58,1.88c0.37,0.83-0.25,1.3-1.41,1.85
	c-1.17,0.55-0.15,0.89,0.73,0.83c0.89-0.05,3.13-0.47,2.76,0.31s-1.44-0.13-2.2,1.17c-0.77,1.3-3.59,2.42-2.12,2.34
	s1.26-0.47,5.64-1.09c4.38-0.62,1.35-0.05,4.23-0.94s1.96-1.12,0.37-0.86s1.05-1.56,0.68-3.26c-0.37-1.69-1.41-0.08-2.08-1.15
	c-0.68-1.07-0.58-1.38,0.71-0.99c1.29,0.39,1.16-0.26-1.32-1.85s-0.95-1.28-2.08-2.6c-1.13-1.33-3.06-1.17-3.06-1.17
	s0.83-0.49,1.32-1.46c0.49-0.96,0.58-0.89,1.1-2.06c0.52-1.17-0.52-1.07-1.84-0.78s-1.75,0.42-1.47-0.1s0.46-0.73,1.07-1.38
	c0.61-0.65,0.73-0.99-0.4-0.73c-1.13,0.26-1.31,0.23-2.27,0.68C254.5,89.27,255.51,90.21,254.9,91.9z M251.8,95.89
	c-2,0.79-1.44,1.3-1.1,1.59c0.34,0.29,0.95-0.26-0.92,0.81s-1.9,2.24-0.92,2.47s0.86-0.57-0.18,1.38c-1.05,1.95-1.75,3.28,0.37,2.79
	s2.7-1.59,3.71-1.72c1.01-0.13,1.2-0.94,1.2-2.16s-0.68-1.25,0.12-2.27c0.79-1.02,0.86-2.08-0.71-2.58
	C251.8,95.7,253.06,95.39,251.8,95.89z M276.98,123.22c-0.11,0.27,0.13,1.02-0.68,1.52c-0.81,0.51,0.39,0.97,0.65,1.45
	c0.26,0.48,0.6-1.65,0.52-2.66C277.4,122.52,277.32,122.35,276.98,123.22z M276.59,127.24c-1.32,0.62-1.4,1.09-1.56,2.08
	c-0.15,0.99,1.07,0.19,0.75,1.06c-0.31,0.87-0.02,1.33,1.35,0.51c1.38-0.82,0.6-1.57,0.81-2.61
	C278.15,127.24,278.34,126.42,276.59,127.24z M296.97,137.94c-1.16-0.11-1.68,0.62,0.31,0.84s2.88,0.25,3.63,0.07
	c0.74-0.18,0.11-0.04-0.86-0.69C299.07,137.5,298.45,138.08,296.97,137.94z M308.04,138.55c-1.6-0.35-1.16,1.6,0.47,1.31
	c1.64-0.29,1.01,0.11,1.75-1.09S309.72,138.92,308.04,138.55z M268.22,129.54c-1.3,0.17-1.4,0.6-0.39,0.87
	c1.01,0.27,0.88-0.05,1.46-0.46C269.86,129.54,268.8,129.47,268.22,129.54z M189.48,105.84c-0.8,0.63-1.71,1.56-2.85,3.59
	c-1.13,2.03-1.01,1.81-2.1,2.94c-1.09,1.13-0.54,0.87,2.85,1.52c3.39,0.65,3.12,1.16,3.9,0.94s0.94,0.43,0.94,1.13
	c0,0.69,0.74,0.29,1.09-0.8c0.35-1.09-0.35-3.05-1.05-4.18s-0.86-1.13-1.95-0.83c-1.09,0.29-0.74-0.25-1.13-1.13
	c-0.39-0.87-1.02-0.18-0.08-1.49C190.03,106.24,190.27,105.23,189.48,105.84z M85.72,103.52c0,1.08,1.14,2.93,2,3.53
	c0.86,0.61,0.68,0.27,0.29-1.02c-0.39-1.28-0.08-1.28-0.26-2.11C87.57,103.11,85.72,103.13,85.72,103.52z M91.41,109.43
	c0.23,0.23,0.91,1.21,2.11,2.01s1.51,0.9,2.76,1.26s1.79-0.12,0.99-0.85c-0.81-0.73-0.13-0.65-1.59-0.99s-1.77-0.22-2.5-0.68
	C92.45,109.72,90.92,108.92,91.41,109.43z M59.72,97.39c-0.94-0.21-1.31-0.25-1.95,0.25c-0.64,0.51-0.82,0.94-0.47,1.51
	c0.35,0.56,0.14,0.25,0.95-0.31c0.82-0.56,0.43-0.63,1.46-0.89s0.82-0.6,0.82-0.6S60.29,97.51,59.72,97.39z M59.39,96.13
	c-0.63,0.38-0.84,0.69-0.14,0.54c0.7-0.14,0.6-0.54,1.05-0.45c0.45,0.09,0.6-0.09,0.6-0.09S60.06,95.73,59.39,96.13z M41.4,93.25
	c-0.86,0.42-1.67-0.07-1.14,0.24c0.53,0.32,1.25,0.62,1.81,0.55c0.57-0.06,0.94-0.07,0.73-0.35c-0.21-0.27-0.26-0.34-0.27-0.62
	C42.51,92.69,42.26,92.83,41.4,93.25z M329.12,211.54c-0.99,2.18-3.07,1.11-4.73,2.71s-1.41,1.11-0.16,3.34s-1.03,1.99-1.61,4.6
	c-0.57,2.61,0.68,2.13,1.35,4.36c0.68,2.23,0.99,1.55,2.24,1.26c1.24-0.29,2.13-0.87,2.13-0.87s0.21-1.94,1.04-4.79
	c0.83-2.86,1.41-4.94,1.56-6.83c0.16-1.89,0.31-3.24,0.73-2.66c0.41,0.58,0.47,0.58,0.47-0.34s-0.5-3.51-1.3-4.12
	C329.43,207.13,330.1,209.36,329.12,211.54z M330.57,62.64c-1.36,0.31-2.01,1.14-1.01,1.47c0.99,0.33,0.89,0.15,2.53-0.44
	C333.73,63.1,331.92,62.33,330.57,62.64z M356.04,37.91c-0.47-0.73-0.88,0.24-5.66,2.32s-4.73,0.29-9.2,3.82s-3.48,3.1-3.74,5.23
	c-0.26,2.13-1.3,1.21-1.71,3.15c-0.41,1.94-2.7,2.03-1.56,3.63c1.14,1.6,2.65,2.52,5.04,3.19c2.39,0.68,3.07-0.05,2.55-0.29
	c-0.52-0.24-2.34-3.1-1.97-6.34c0.36-3.24,1.56-2.76,2.6-3.97c1.04-1.21,3.74-4.36,5.51-5.42c1.72-1.03,6.29-2.48,8.59-3.27
	c0.07-0.02,0.15-0.02,0.19-0.07C358.49,37.86,356.51,38.63,356.04,37.91z M343.15,59.66c-0.57,0.08-0.83,0.1,0.21,1.11
	c1.04,1.02,1.95,1.79,1.61,0.44C344.63,59.86,343.67,59.59,343.15,59.66z M360.23,49.81c-0.76-0.35-1.17-0.73-1.35-0.14
	c-0.18,0.58,0.86,1.36,1.87,1.55S360.95,50.15,360.23,49.81z M181.29,110.73c-1.16-0.58-2.29-1.04-3.04-1.04s0.16,0.8,1.35,1.45
	C180.8,111.8,181.96,111.07,181.29,110.73z M178.53,115.6c0.06-0.96-0.64,1.1,0.22,1.56s1.3,0.58,1.85,0.02
	c0.54-0.56,0.1-0.21-0.65-0.34C179.19,116.71,178.48,116.4,178.53,115.6z M519.07,82.25c-1.41,0.14-2.46-0.26-2.46-0.26
	s-0.08,1.13-0.5,1.67c-0.43,0.54-0.12,1.13-0.12,1.13s-1.4-0.62-2.22-0.91c-0.82-0.29-1.56-0.04-2.03-1.27
	c-0.47-1.23-1.87-1.02-2.96-1.02S508,80.17,508,80.17s0,0-0.66,0.04c-0.67,0.04-0.55,1.63-1.41,2.14c-0.86,0.51-3.55,0.83-3.55,0.83
	s1.71,1.24,2.07,2.25c0.35,1.02,1.01,2,1.01,2s-0.16,0.47-2.22,0.07c-2.07-0.4-1.95,0.4-4.17,1.31c-2.22,0.91-4.75,2.29-5.38,2.8
	s-0.67,0.22-2.61-0.25c-1.95-0.47-2.34,0.54-2.85,0.8c-0.5,0.25-0.31-1.16-0.31-1.16s-0.7,0-1.56,0.44
	c-8.88,4.51-2.76,4.28-3.04,5.19l-0.94,3.52c-1.31,3.89-2.21,1.85-3.31,4.94c-3.51,9.8-5.54-1.51-5.54-4.1
	c0-1.6-0.35-3.67,0.67-4.14c8.72-4.06,0.82-0.56,9.01-6.17c2.65-1.82,1.21-2.9,1.79-3.41c0.59-0.51,1.52-0.65,1.52-0.65
	s0,0-1.44-0.14c-1.44-0.15-1.48,0.18-2.61,1.42c-1.13,1.23-2.03,1.45-1.79,0.51c0.23-0.94,0.27-1.92-0.58-1.41
	c-0.86,0.51-1.21,0.43-2.81,0.76s-3.32,1.09-4.76,2.9c-1.44,1.82-0.62,1.6-0.15,2.03c0.47,0.44-2.3,0.33-3.63,0.22
	c-1.33-0.11-0.63-0.36,0.15-0.62c0.78-0.25-1.17-0.47-2.89-0.83c-1.71-0.36-1.05,0.29-2.06,0.69s-0.97-0.36-1.48-0.47
	s-2.77-0.25-4.37-0.44c-1.6-0.18-1.48,0.11-1.91,0.65s-3.39,3.16-4.68,4.65c-1.29,1.49-2.89,1.82-4.33,3.19
	c-1.44,1.38-1.68,1.31-0.51,1.52c1.17,0.22,1.33,0.11,1.52,1.2c0.2,1.09,0.74,1.45,1.99,1.45s0.9,0.33,1.13-0.62
	c0.23-0.94-0.31-2.03,0.74-1.2c1.05,0.84,1.91,1.45,2.22,2.65c0.32,1.2-0.08,2.07-0.62,4.07s-0.74,4.86-1.48,6.32
	c-0.74,1.45-1.33,2.54-2.15,4.14s-4.8,5.63-5.69,5.99c-0.9,0.36-1.48,0.4-1.91-0.4s-0.74-0.65-1.76,0.25
	c-1.01,0.91-1.48,1.45-1.87,2.9c-0.39,1.45-1.25,1.45-2.15,2.54s-1.13,0.84-0.47,2.07c0.66,1.23,1.75,2.54,1.87,3.74
	c0.12,1.2-0.55,2.94-0.97,3.7c-0.43,0.76-2.46,1.13-2.42,0.76c0.04-0.36,0.08-2.18,0-3.23s-0.86-1.05-0.59-1.38
	c0.28-0.33,1.41-0.87,0.59-1.63c-0.82-0.76-1.4-0.11-1.75-1.02s0.15-1.63-0.04-1.96c-0.2-0.33-0.78-0.69-1.99-0.8
	s-1.48,1.09-1.75,0.03c-0.27-1.05,0.12-1.16-0.43-1.6s-1.01-0.14-2.41,1.05c-1.41,1.2-1.68,0.94-2.85,1.45s-1.17,0.8-0.9,1.2
	c0.27,0.4,1.25,2.14,2.07,2.32c0.82,0.18,1.41-0.36,2.65-0.36c1.25,0,1.48,0.18,1.17,0.65c-0.32,0.47-1.17,0.95-2.69,2.47
	c-1.52,1.53-1.06,1.23-0.54,1.85c0.51,0.62,1.25,1.38,1.79,2.58s0,1.63-0.08,2.32s-0.2,1.74,0.82,2.83c1.01,1.09,0.31,0.73,0.2,1.13
	c-0.12,0.4-1.83,3.52-2.61,5.08s-0.78,1.71-3.32,3.49c-2.53,1.78-3.66,1.96-5.03,2.21c-1.36,0.26-2.53,0.65-3.24,0.95
	c-0.7,0.29-0.43,0.87-0.5,1.23c-0.08,0.36-0.74,0.04-0.63-0.51c0.12-0.54,0.04-0.94-0.31-1.09c-0.35-0.14-1.44-0.58-2.57,0.51
	s-2.5,1.16-2.97,2.54c-0.47,1.38-0.39,0.91,0.12,1.49c0.5,0.58,2.96,2.94,3.54,4.21c0.59,1.27,0.7,2.22,0.74,3.59
	c0.04,1.38-2.81,3.92-4.06,4.76c-1.25,0.83-1.52,1.63-1.33,0.33c0.19-1.31-0.54-2.07-1.44-3.05c-0.89-0.98-3.62-1.78-4.13-1.89
	c-0.5-0.11,0.2-0.91-0.16-0.87c-0.35,0.04-1.17-0.18-1.05,1.09c0.11,1.27-0.82,0.87-1.01,2.14c-0.2,1.27-0.43,2.58,0.39,2.47
	s0.66,1.13,1.29,2.5c0.62,1.38,0.39,0.62,1.95,1.89s1.17,1.05,1.52,2.32c0.35,1.27,0.23,2,1.01,3.16c0.77,1.16,0.82,1.42-0.47,0.76
	c-1.29-0.65-2.34-1.45-2.85-2.25s-0.82-2.83-1.13-3.85c-0.32-1.02-2.42-2.21-3.12-2.94c-0.7-0.73-0.27-1.31,0.08-2.98
	c0.35-1.67-0.16-3.27-0.27-4.28c-0.12-1.02-0.94-3.87-1.33-4.83c-0.39-0.96-0.23-0.83-0.84,0c-0.6,0.84-1.07,1.34-1.66,1.34
	c-0.58,0-1.44-0.09-1.36-0.47c0.08-0.38,0.67-1.83,0.49-2.38c-0.18-0.54-0.72-2.29-1.54-2.9c-0.82-0.62-1.75-1.47-2.28-2.91
	c-0.53-1.43-0.66-1.02-1.68-0.27c-1.01,0.74-3.34,0.83-4.45,0.93c-1.11,0.09-0.2,0.64-0.47,1.18c-0.27,0.55-1.58,1.25-4.21,3.99
	s-3.03,2.83-3.71,3.12s-1.11,0.2-1.08,1.32c0.02,1.12,0.12,1.74-0.01,2.74s-0.43,1.42-0.72,2.06c-0.28,0.64-0.59,1.81-0.69,2.41
	c-0.09,0.61-0.68,1.31-1.53,1.92c-0.86,0.62-0.86,0.51-1.25-0.4c-0.39-0.91-2.42-4.39-4.06-7.66c-1.64-3.27-1.25-3.85-1.41-4.79
	c-0.15-0.94-0.19-6.61-0.12-7.04c0.04-0.24-0.79,0.67-1.02,1.12c-0.24,0.46-0.22,1.02-1.15,1.1c-0.94,0.09-1.13,0.1-2.02-0.79
	c-0.88-0.88-1.29-1.38-1.13-1.36s1.17-0.1,1.76-0.39c0.58-0.29,0.39-0.61,0.39-0.61s-0.63,0.07-1.39,0.11s-0.42-0.17-1.42-0.57
	c-1-0.4-1.22-0.43-1.39-0.88c-0.17-0.45-0.41-1.08-0.56-1.42c-0.14-0.34-0.26-0.36-0.43-0.79c-0.17-0.42-0.65,0.07-1.73,0.1
	c-1.08,0.02-0.83,0.07-2.13,0.58c-1.3,0.51-1.49,0.33-2.96,0.28s-2.49-0.68-3.24-0.93c-0.74-0.25-0.86-0.14-1.95-0.3
	c-1.09-0.16-0.86-0.71-1.13-1.17c-0.27-0.46-0.73-0.57-2.16-0.46s-1.48,0.04-2.28-0.18c-0.81-0.22-0.87-0.51-1.55-1.19
	c-0.68-0.68-0.45-0.15-0.89-0.5s-0.88-0.83-1.23-1.78c-0.35-0.94-0.27-1.15-0.68-1.59c-0.4-0.44-0.37-0.33-1.64-0.33
	c-1.26,0-0.69,0.08-0.84,0.17s-0.55,0.64-0.89,1.08c-0.35,0.44,0.28,1.04,0.79,1.63c0.51,0.59,0.06,0.53,0.87,1.43
	s0.53,0.81,1.1,2.06s0.94,1.56,1.07,1.94c0.13,0.37,0.25-0.15,0.38-0.48c0.13-0.34-0.05-1.55-0.05-1.55s0.25,0.51,0.47,1.4
	c0.22,0.9,0.07,0.91,0.22,1.48c0.16,0.57,0,0.5,0.97,0.5c0.98,0,1.57,0.04,2.65-0.22c1.08-0.25,1.54-1.23,2.05-1.52
	c0.51-0.29,0.51-1.31,0.85-1.2s0.01,1.2,0.33,1.91c0.31,0.71,0.39,0.46,1.14,0.77s0.96,0.5,1.72,0.79c0.77,0.29,0.25,0.33,0.66,1.09
	s0.39,0.34,0.79,0.6c0.4,0.27,0.25,0.07-0.04,0.98c-0.28,0.91-0.34,0.92-1.01,1.66c-0.68,0.74-0.68,0.51-0.78,0.48
	c-0.1-0.02-0.31-0.54-0.31-0.54s-0.43,0.88-0.49,1.91c-0.07,1.03,0.34,0.65-0.9,1.15c-1.23,0.5-1.98,0.7-2.45,1.11
	c-0.48,0.41-0.48,0.96-0.75,1.22c-0.27,0.27-0.65,0.02-1.48,0.31c-0.83,0.29-0.6,0.23-1.3,0.76c-0.7,0.53-0.08,0.48-0.97,0.82
	c-0.9,0.34-2.52,1.13-3.34,1.21s-0.65,0.3-0.86,0.6s-0.22,0.46-1.26,0.62c-1.04,0.16-2.34,0.3-2.98,0.62
	c-0.64,0.31-1.57,1.02-2.25,0.88c-0.68-0.13-0.49-0.16-0.72-0.76c-0.22-0.6-0.34-1.04-0.44-2.03s-0.46-2.5-1.03-3.46
	s-0.56-1.02-1.18-2.02s-1.04-1.85-1.59-2.24c-0.54-0.39-0.82-0.41-1.08-0.7c-0.26-0.29-0.1-1.28-0.37-2.13s-0.46-1.67-0.86-2.14
	s-1.03-1.02-1.58-2.02c-0.56-1.01-0.6-1.11-1.4-2.66c-0.81-1.55-1.09-1.74-1.62-2.78s-0.18-0.84-0.38-1.45
	c-0.2-0.62-0.7,1.01-1.1,1.32c-0.4,0.31-0.61,0.16-0.94-0.76c-0.33-0.92-0.6-1.73-0.85-1.37s-0.44,0.73-0.11,1.71
	c0.34,0.98,0.5,0.77,0.94,1.71c0.44,0.93,1.65,3.27,2.14,4.24c0.49,0.97,0.3,0.5,0.75,1.96c0.46,1.46,0.71,1.65,1.32,2.25
	c0.61,0.61,0.51,0.29,0.78,1.28s0.17,2.16,0.21,2.76c0.04,0.61,0.38,0.92,1.1,1.52c0.73,0.61,0.36,0.39,0.7,1.03
	c0.34,0.64,0.68,1.55,0.87,2.18c0.2,0.63,0.43,1.07,1,1.34c0.57,0.28,0.73,0.31,1.3,0.52c0.57,0.21,0.37,0.35,0.77,0.85
	c0.39,0.5,1.14,0.87,1.61,1.66c0.47,0.79,0.15,0.55,0.13,1.32c-0.02,0.76-0.27,0.41,0.07,0.81s0.92,0.73,1.91,1.38
	c0.99,0.65,0.2,0.19,1.08,0.17c0.89-0.02,1.07-0.26,2.02-0.46c0.95-0.21,2.17-0.56,3.34-0.83c1.17-0.28,2.31-0.46,2.91-0.65
	c0.6-0.19,0.61,0.46,0.15,1.48c-0.46,1.02-0.68,1.86-1.07,2.69c-0.39,0.82-0.53,0.9-0.82,1.56c-0.28,0.66-2.21,3.39-2.61,4.25
	s-0.88,1.55-1.47,2.26c-0.59,0.71-2.42,2.01-3.27,2.7c-0.86,0.69-0.64,0.69-1.28,1.5c-0.64,0.81-2.57,3.06-3.1,3.86
	c-0.52,0.8-0.82,1.09-1.21,1.88c-0.39,0.79-1.49,1.9-1.56,2.47s-0.69,0.64-0.22,1.14s0.71,0.58,0.88,1.21s-0.52,1.34-0.08,2.49
	c0.44,1.15,0.13,0.33,0.8,1.25c0.66,0.92,0.63,1.5,0.7,2.84c0.06,1.34,0.13,2.67-0.08,3.54s-0.49,1.44-0.79,2.23
	c-0.3,0.79-1.94,1.32-2.9,1.74s-0.92,0.26-1.36,0.79c-0.44,0.53-1.71,1.65-2.14,2.47c-0.43,0.82-0.75,0.74-0.58,1.26
	c0.17,0.52,0.53,1.2,0.97,2.17s0.13,0.89,0.02,1.73c-0.1,0.83-0.09,0.7-0.21,1.72s-1.31,1.04-2.68,1.57c-1.36,0.53-0.87,0.27-1.03,1
	c-0.15,0.74-0.06,2.19-0.12,3.06c-0.05,0.87-0.47,0.52-1.21,1.6s-1.04,1.59-1.83,2.88c-0.8,1.29-0.73,1.11-1.73,1.92
	s-1.79,1.02-2.23,1.95s-0.95,0.31-3.09,1c-2.14,0.69-0.58,0.35-2.62,0.58s-2.77,0.39-3.85,0.58c-1.08,0.19-0.94-0.06-1.6-0.79
	s-0.77-0.67-1.06-1.27c-0.3-0.61-0.08-0.75-0.17-1.84c-0.09-1.09-0.18-1.13-0.58-1.8c-0.4-0.68-0.38-0.79-0.82-1.86
	c-0.44-1.08-0.64-1.38-1.14-2.1c-0.49-0.73-0.63-0.5-1.09-0.97s-0.47-0.88-0.57-1.55s-0.26-2.24-0.48-3.9
	c-0.22-1.66-0.02-0.77-0.29-1.48c-0.26-0.7-0.57-1.55-1.01-2.48s-0.29-0.69-0.96-1.84c-0.68-1.15-0.61-0.99-1.04-2
	c-0.43-1.01-0.49-0.56-0.52-0.94c-0.03-0.39,0.22-1.09,0.25-1.77c0.02-0.68,0.25-1.46,0.41-2.51c0.17-1.04-0.23-1.03,0.21-1.74
	s0.9-1.37,1.19-2.18c0.28-0.81,0.24-0.85,0.24-1.88s-0.1-0.94-0.41-1.8s-0.43-1.86-0.81-3.24s-0.36-1.33-0.42-1.86
	c-0.05-0.53-0.31-1.73-0.57-2.46c-0.26-0.73-0.39-0.44-0.96-0.91c-0.57-0.47-0.19-0.27-0.69-0.79c-0.49-0.52-0.4-0.69-0.88-1.26
	c-0.48-0.57-0.54-0.59-0.94-1.23c-0.39-0.64-0.18-0.25-0.13-1.33s0.36-3.13,0.56-4.32s0.24-1.13-0.22-1.62
	c-0.46-0.5-0.78-1.21-1.13-1.33s-1.2,0.12-2.43,0.1c-1.24-0.02-1.18-0.3-1.71-0.92s-1.24-1.48-1.48-1.71
	c-0.25-0.23-0.67-0.22-2.78-0.06c-2.1,0.16-0.83,0.19-2.24,0.41c-1.4,0.22-1.95,0.96-3.03,1.33s-1.39,0.28-3.29-0.1
	s-2.85,0.44-3.81,0.85c-0.96,0.41-1.43,0.22-2.13-0.27c-0.7-0.48-1.12-0.88-2.2-1.41s-0.83-0.82-1.9-1.34
	c-1.07-0.52-0.72-0.54-1.6-1.38c-0.88-0.84-0.95-1.68-1.56-2.55c-0.61-0.87-1.13-2.09-1.95-3.01c-0.82-0.92-1.62-2.77-2.03-3.33
	c-0.4-0.56-0.71-0.61-0.7-0.87c0.01-0.27,0.79-1.83,1.12-2.64s0.41-0.7,0.56-1.21c0.14-0.51-0.19-1.97-0.5-2.77
	c-0.32-0.8-0.66-2.48-0.91-3.27c-0.25-0.79,0.13-0.8,0.43-1.25c0.3-0.45,1.01-1.38,1.75-2.76c0.74-1.38,1.16-2.06,1.55-2.7
	s1.29-2.61,1.88-3.15c0.58-0.53,2.08-1.6,2.71-1.92c0.64-0.33,1.16-0.51,1.26-0.8c0.1-0.29,0.38-2.69,0.56-3.69
	c0.19-1.01-0.06-1.56,0.66-1.95c0.73-0.39,1.9-1.11,2.51-1.45s0.7-0.85,1.01-1.59c0.31-0.74,0.44-1.67,0.91-1.97
	s0.34,0.13,0.95,0.54c0.61,0.41,0.72,0.44,1,0.51c0.29,0.07,0.55-0.23,1.26-0.24c0.71-0.01,0.79,0.09,1.22,0.32
	c0.43,0.23,0.2,0.23,1.42-0.52s2.19-1.21,3.79-1.8s2.69-0.92,3.43-1s0.36,0.01,1.2,0.34c0.83,0.33,0.87,0.47,1.04,0.23
	s0.72-0.92,1.07-0.9s0.75,0.17,1.65,0.33s1.27,0.07,1.64-0.12c0.36-0.19,0.83-0.58,0.92-0.58c0.09,0,0.86,0.27,1.48,0.5
	c0.62,0.23,0.63,0.27,0.51,0.42c-0.13,0.16-0.31,0.33-0.61,1c-0.3,0.68-0.16,0.31,0.13,1.03c0.28,0.71,0.49,0.68,0.36,1.2
	s-0.71,1-1.14,1.51c-0.43,0.51-0.33,0.59,0.73,1.19c1.06,0.59,0.81,0.5,1.99,1.03s1.23,0.34,2.61,0.75
	c1.38,0.41,1.21,0.46,1.69,1.02s0.51,1.09,1.34,1.38c0.83,0.29,1.72,0.29,2.2,0.59s0.87,0.74,1.52,0.86s0.65,0.21,0.96-0.27
	c0.32-0.47,0.57-0.9,0.46-1.14c-0.12-0.24-0.47-0.62-0.39-0.85c0.08-0.23,0.62-1.15,0.79-1.43s0.6-0.35,1.63-0.4
	c1.02-0.05,1.74-0.19,1.91,0.41s0.13,0.33,0.92,0.65c0.79,0.33,0.87,0.33,1.53,0.58c0.67,0.25,0.33,0.62,0.67,0.59
	c0.34-0.02,0.88-0.07,1.5,0.11c0.62,0.18,1.77,0.73,2.98,0.77c1.21,0.05,1.68-0.31,1.86-0.4c0.18-0.08,1.04-1.14,1.55-0.41
	c0.51,0.73,1.17,0.74,2.44,0.67c1.28-0.07,1.29-0.27,1.57-0.59c0.29-0.33,1.05-1.56,1.3-2.41c0.24-0.85,0.92-2.7,1.1-3.54
	c0.19-0.83-0.01-1.49-0.08-1.98c-0.07-0.5,0.05-0.84,0.25-1.39c0.2-0.56-0.61-0.22-0.94-0.11c-0.33,0.11-0.41-0.17-0.71-0.25
	s-0.61-0.16-0.83,0.4s-0.12,0.84-1.31,0.77c-1.2-0.06-0.97-0.13-1.36-0.56c-0.39-0.42-1.05-0.53-1.59-0.69
	c-0.53-0.16-0.58-0.13-0.62,0.21c-0.04,0.34-0.05,0.57-0.44,0.7c-0.39,0.13-1.28-0.02-2.02-0.38c-0.74-0.35-0.96-0.52-1.69-1.23
	c-0.73-0.71-0.62-0.71-0.92-1.82c-0.3-1.1-0.3-2.05-0.17-2.37c0.13-0.33,0.34-0.42-0.22-0.25s-0.94,0.27-0.56-0.57
	c0.38-0.84,0.73-0.87,1.12-0.98c0.39-0.11,0.99-0.12,1.73-0.17c0.74-0.05,1.31-0.42,1.57-0.53s0.8-0.29,0.52-0.36
	c-0.27-0.07-1.09-0.16-0.95-0.39c0.14-0.23,0.23-0.22,0.68-0.27c0.44-0.05,1.13-0.07,1.72-0.11c0.58-0.04,0.93,0.07,1.13-0.28
	c0.19-0.35,0.44-0.87,0.89-1.15c0.46-0.28,0.95-0.13,2.15-0.18c1.19-0.05,1.01,0.24,1.4,0.52c0.39,0.28,0.65,0.14,1.16,0.24
	c0.5,0.1,0.19,0.4,0.58,0.56c0.39,0.16,1.1,0.32,1.97,0.59c0.87,0.28,0.3,0.16,1.36,0.16c1.07,0,1.03,0.01,1.87-0.13
	s1.2-0.46,1.79-0.88c0.6-0.42,0.18-1.34-0.04-2.06c-0.22-0.71-1.16-1.17-1.59-1.5s-1.35-1.37-1.84-1.79
	c-0.5-0.42-1.07-0.54-1.61-0.85c-0.54-0.3-1.52-0.8-1.61-1.2c-0.09-0.4,0.21-0.41,1.01-0.6c0.81-0.19,0.54-0.36,0.7-0.79
	c0.16-0.42,0.22-0.41,0.88-0.65s-0.76-0.75-0.96-1.03c-0.19-0.28,0.44-0.2,1.11-0.35c0.66-0.16,0.72-0.47,0.81-0.75
	s0.06-0.41-0.72-0.4s-1.76,0.34-3.08,0.69c-1.31,0.35-0.71,0.36-1.51,0.98c-0.79,0.62-0.84,0.35-0.74,0.69
	c0.11,0.34,0.15,0.67,0.96,1.09s0.47,0.44,0.69,0.5s0.77,0.14,0.52,0.22c-0.25,0.07-0.47,0.46-0.83,0.46s-0.52,0.38-1.14,0.73
	c-0.62,0.35-0.9,0.4-1.35,0.47c-0.46,0.07-0.78-0.07-0.72-0.85c0.07-0.78-0.23-0.25-0.72-0.43c-0.48-0.18-0.66-0.39-0.66-0.39
	s0.48-0.17,0.96-0.47c0.48-0.3,0.7-0.48,0.94-1.08c0.23-0.59-0.52-0.27-1.07-0.34c-0.54-0.07-0.39-0.12-0.92-0.19
	s-0.74-0.5-0.74-0.5s0.24,0.1,0.7,0.05c0.46-0.05,0.35-0.17,0.52-0.29c0.17-0.12,0.3-0.23,0.17-0.23c-0.13,0-0.69,0.06-1.06,0.04
	c-0.38-0.02-0.6-0.08-1.14,0c-0.55,0.08-0.33,0.29-0.72,0.54s-0.4,0.34-0.61,0.71c-0.21,0.38-0.27,0.31-0.41,0.56
	c-0.14,0.24-0.13,0.85-0.13,1.26s-0.11,0.54-0.35,0.88c-0.25,0.34-0.25,0.19-0.66,0.4s-0.14,0.35-0.19,0.76s-0.2,0.57-0.23,1.1
	c-0.04,0.53-0.25,0.56-0.57,0.93c-0.33,0.37-0.51,0.37-0.53,0.76c-0.03,0.39-0.09,0.56,0,1.31s0.3,0.56,0.88,1.32
	c0.58,0.76,0.89,0.47,0.69,0.86c-0.21,0.39-0.17,0.24-0.88,0.16c-0.71-0.09-0.83,0.02-1.35,0.52c-0.52,0.5-0.63,0.77-0.9,0.96
	c-0.27,0.18-0.18-0.36-0.28-0.62c-0.11-0.25-1.3-0.34-2.12-0.58c-0.82-0.24-1.04-0.39-1.25-0.39s-0.52-0.05-1.38,0.42
	c-0.86,0.47-0.67,0.74-0.6,1.36c0.06,0.62,0.74,0.74,0.54,2.2c-0.2,1.45,0.72,0.78,1.11,1.67c0.39,0.89,0.04,0.82-0.2,0.93
	c-0.23,0.11-0.47,0.87-0.64,1.6c-0.17,0.73,0.02,0.82-0.2,0.78c-0.21-0.04-0.47,0.13-0.87-0.47c-0.41-0.6-0.74-0.04-0.8-0.38
	c-0.05-0.34-0.57-0.93-0.37-1.72c0.2-0.8,0.51-0.87-0.2-1.29c-0.7-0.42-0.52-0.47-0.86-1.33c-0.33-0.85-0.41-1.02-1.05-1.8
	c-0.65-0.78-0.59-0.56-0.41-1.34c0.17-0.78,0.31-1.8-0.08-2.34c-0.39-0.54-2.01-2.05-3.33-2.76c-1.32-0.71-1.6-0.16-2.18-1.29
	s-0.85-2.31-1.83-3c-0.97-0.69-0.49-0.74-1.42-0.4c-0.94,0.35-0.96,0.49-0.88,0.76c0.08,0.27,0.29,0.64,0.15,1.38
	s-0.33,0.51,0.65,1.09c0.98,0.58,0.57,0.45,1.05,1.53c0.49,1.07,0.56,1.27,0.96,1.71c0.39,0.44,0.53,0.82,1.5,1.03
	c0.97,0.22,0.82-0.05,1.07,0.18c0.26,0.24-0.68,0.33-0.5,0.44s0.39,0.42,1.21,0.93c0.82,0.51,1.66,1.04,1.87,1.43
	c0.21,0.4,0.93,1.91-0.12,0.8s-1.07-0.6-1.36,0.16c-0.29,0.76,0.27,1.34,0.24,1.91c-0.04,0.56-0.53,0.35-0.86,0.8s-0.51,1-0.9,1.29
	c-0.39,0.29-0.27-0.33-0.48-0.33c-0.22,0-0.29,0.27-0.57,0.8c-0.27,0.53,0,0.75,0.11,1.45c0.12,0.71,0.32,0.76-0.45,0.73
	c-0.76-0.04-0.59-0.75-1.29-1.22s-1.11-0.31-1.7-0.67c-0.59-0.36,0.25-0.45,1.71-0.64c1.46-0.18,1.64-0.33,2.09-0.67
	c0.45-0.35,0.29-0.44,0.78-1.13s0-0.96-0.33-1.8c-0.33-0.83-0.95-1.21-1.17-1.38c-0.22-0.16-0.7-0.65-1.13-1.13
	c-0.43-0.47-0.88-0.54-1.62-0.73c-0.74-0.18-0.6-0.85-1.01-1.05c-0.41-0.2-0.82-0.78-1.75-1.65c-0.94-0.87-0.58-1.53-1.01-2.29
	c-0.43-0.76-0.86-1.34-1.79-1.34c-0.94,0-1.64,0.65-2.57,1.56c-0.94,0.91-0.74,1.34-1.83,0.65c-1.09-0.69-1.48-0.62-2.26,0.04
	c-0.78,0.65-0.94,1.31-0.94,2.61c0,1.31-0.94,0.76-1.68,1.13c-0.74,0.36-1.4,1.27-2.53,3.41s0.08,1.13-0.16,1.85
	c-0.23,0.73,0.08,1.31-0.97,2.25s-0.59-0.11-1.21,0.65s-1.48,1.38-2.96,1.2c-1.48-0.18-1.05,0.4-1.99,0.62s-1.44,0.54-1.21-0.51
	c0.24-1.05,0.04-0.91-1.75-0.83c-1.8,0.07-2.42,0.54-2.26,0.29c0.16-0.26,0.23-0.69,0.43-1.71s0.47-1.34,0.2-1.34
	s-0.86,0.15-0.43-1.67c0.43-1.82,0.59-2.14,0.39-3.2c-0.2-1.05,0.08-2.47-0.15-3.09c-0.24-0.62,0.47-1.23,0.15-1.56
	c-0.31-0.33-0.67-0.76-0.43-0.76c0.23,0,1.21,0.04,2.45,0.25c1.25,0.22,2.53-0.18,3.28-0.11c0.74,0.07,2.3,0.4,3.86,0.65
	s1.52-0.22,1.37-2.5c-0.16-2.29,0.12-3.34-0.35-3.81s-0.97-0.44-1.48-1.05c-0.51-0.62-0.12-1.53-1.21-1.85
	c-1.09-0.33-2.3-0.07-1.72-0.29s0.82-0.29,0.2-0.76c-0.63-0.47-0.78-0.98-0.31-1.05s1.79-0.07,1.79-0.07s0.12,0.65,0.82,0.36
	s1.6-0.58,1.41-1.05c-0.2-0.47-0.55-1.05-0.43-1.05s0.39,0.65,1.87,0.65c1.48,0,1.36-0.22,1.25-0.83c-0.12-0.62,0.98-0.58,1.72-1.09
	c0.74-0.51-0.27-1.09-0.12-1.56s1.01-0.76,2.53-0.87s1.24-0.36,1.09-0.55c-0.15-0.18,0.04-0.94,0.15-1.92
	c0.12-0.98-0.11-1.31,0.66-1.78c0.78-0.47,0.55-0.29,2.15-0.44s0.62-0.51,0.89-0.58c0.27-0.07,2.18-0.54,2.53-0.69
	c0.35-0.14,0.31-0.11,0-0.8s-0.74-1.09-1.09-4.28s-0.27-3.19,1.68-3.77c1.95-0.58,1.52-0.4,1.36,1.38
	c-0.15,1.78-1.01,1.78-1.21,3.09c-0.2,1.31-0.04,2.11,0.78,3.49s0.74,0.69,2.5,0.69c1.75,0,1.36,0.44,2.53,0.83
	c1.17,0.4,0.78-0.72,1.91-1.12s0.9,0.25,3.54-0.14c1.01-0.15,1.36-0.19,1.44-0.2c-0.08,0-0.37,0.01-0.07-0.17
	c0.62-0.36,0.78-1.02,1.68-1.13c0.89-0.11,1.52,0.25,1.48-1.12c-0.04-1.38-0.55-1.16-0.39-2.21c0.16-1.05,0.19-0.58,0.27-1.42
	s-0.11-0.98,1.01-1.27c1.13-0.29,0.35,1.02,1.71,1.31s1.17,0.51,1.41-0.54c0.23-1.05,0.98-2.43,0.31-2.36
	c-0.66,0.07-0.82-0.04-1.48-1.02c-0.67-0.98-1.05-1.2-0.62-1.2s1.87-0.4,3.94-0.33s2.65,0.25,2.77,0.03s-0.35-0.43,0.35-0.87
	s3,0.22,2.65-0.18s-2.38-0.94-3.74-0.73c-1.36,0.22-4.68,0.62-5.19,0.58c-0.5-0.04-1.44-0.4-1.68-0.65
	c-0.23-0.25-0.97-0.44-0.97-1.63c0-1.2,0.43-1.67-0.27-2.83c-0.7-1.16,1.29-2.14,2.65-3.38c1.36-1.23,1.01-2.25,1.83-2.32
	c0.82-0.07,1.13-0.51,0.74-0.91s-1.83-1.78-2.53-1.92s-1.75-0.94-2.84,0.94c-1.09,1.89,0.08,2.07,0.27,3.05
	c0.2,0.98-1.52,1.71-2.81,2.61c-1.29,0.91-1.75,0.69-2.14,3.01s-0.78,2.4,0.66,3.19c1.44,0.8,1.72,1.2,1.06,1.89
	c-0.67,0.69-2.07,0.65-2.93,2.29c-0.86,1.63-0.5,2.43-0.86,3.16c-0.35,0.73-1.44,1.05-1.75,1.78c-0.31,0.73-0.31,2.1-1.64,1.89
	c-1.33-0.22-0.59-2-1.17-2.91c-0.58-0.91-1.05-1.67-1.75-2.79s-0.15-2.21-0.82-2.8c-0.66-0.58-0.82-1.74-0.82-1.74s0,0-0.23,0.54
	s-0.12,0.87-1.44,2.51c-1.33,1.63-3.31,1.74-4.29,1.34c-0.97-0.4-0.82-1.34-0.82-2.54c0-1.2-0.23-2.8-0.04-4.68
	c0.2-1.89,0.74-1.74,2.81-2.98c2.07-1.23,2.11-1.16,2.61-1.96c0.5-0.8,1.99-1.92,2.84-2.65c0.86-0.73,2.34-3.49,3.12-5.45
	s2.22-3.16,3.62-5.26c1.41-2.1,3.9-3.96,7.1-5.3s2.65-1.49,3.39-2.54c0.74-1.05,1.06-0.44,2.3-0.69c1.25-0.25,1.05,0-0.2,1.23
	s-1.79,2.54-0.74,1.56c1.05-0.98,1.87-2.14,3.51-2.07s0.98,0,2.57,0.73c1.6,0.73,1.87,0.8,0.98,1.38c-0.9,0.58-2.42,0.44-2.42,0.44
	s0.51,1.2,1.99,1.38c1.48,0.18,2.3-1.16,3.28-0.65c0.97,0.51,1.25,0.87-0.08,0.76s-1.71,0.73-0.08,1.31
	c1.64,0.58,1.79,0.65,3.94,0.94c2.14,0.29,3.08,1.85,4.72,2.54c1.64,0.69,3.55,0.11,3,1.6c-0.54,1.49,0.43,2.94-2.42,3.63
	c-2.85,0.69-2.77-0.22-5.14-0.95c-2.38-0.72-4.06-1.45-4.06-1.45s0.62,0.84,1.71,1.85c1.09,1.02,1.21,1.96,1.09,3.81
	s-0.62,2.36,1.25,3.27c1.87,0.91,1.6,0.65,2.18,0.51c0.59-0.15,1.56-0.33,1.33-0.62s-0.43-0.83-1.05-1.12s-0.66-0.98-0.04-1.31
	c0.62-0.33,1.21,0.29,2.57,0.22c1.37-0.07,0-0.51,0.66-1.2c0.67-0.69,0.71-1.85,2.3-2.47c1.6-0.62,3.31,0.29,3.74-0.4
	s0.89-1.49,0-2.54c-0.9-1.05-1.6-1.41-1.06-1.92c0.54-0.51,1.64-1.85,2.15-1.09c0.51,0.76,1.79,1.6,0.16,1.45
	c-1.64-0.15-0.51,2.43,0.97,2.29s1.36-0.62,2.57-1.2c1.21-0.58,3.58-2.5,5.26-3.09c1.68-0.58,2.03-0.44,2.69-0.14
	c0.66,0.29,0.66,0.83,2.5,0.47c1.83-0.36,2.38-0.8,4.09-1.09c1.71-0.29-0.12,0.62,0.66,0.87c0.78,0.26,0.86,0.47,1.44,0.07
	c0.59-0.4,2.46-1.05,1.6-1.71c-0.86-0.65-1.48-1.09-1.48-1.09s0.62-1.38,2.26-1.27s4.13,1.63,5.73,2.72
	c1.6,1.09,3.55,3.41,3.55,3.41s0.7-1.2,0.11-3.19c-0.58-2-2.06-1.52-2.06-3.41s-1.37-1.38-0.9-2.72s1.79-1.85,2.15-3.56
	c0.35-1.71,0.66-3.12,1.87-3.12s3.82,0.36,3.82,0.36s0,1.56-0.97,3.88s0.51,2.58,0.27,5.41c-0.23,2.83-0.27,3.19,0.39,3.85
	c0.66,0.65,1.91,1.45,1.44,2.69c-0.47,1.24-0.7,2-2.45,2.69s-3.98,0.29-3.16,0.84c0.82,0.54,1.87,1.02,3.04,1.2s0.59-0.07,1.52-0.84
	c0.94-0.76,3.04-2.29,2.96-3.01c-0.08-0.72-1.21-1.85-0.43-2.4c0.78-0.54,1.09-1.38,2.3-0.69c1.21,0.69,2.38,3.27,2.38,3.16
	c0-0.11-0.23-2.54-1.68-3.99c-1.44-1.45-3.82-0.07-3.82-1.34s0.66-3.01,0.5-4.39s-0.7-2.76,0.19-3.96c0.9-1.2,0.94-2.14,0.94-2.14
	s0.39,1.13,0.08,2.54c-0.31,1.42,0.16,2.25,0.82,2.25s3.62,0.04,2.03-0.44c-1.6-0.47-2.06-0.91-0.47-1.78
	c1.6-0.87,1.52-0.29,3.86,0.25s2.89,0.94,3.67,0.91s0.66-0.11,0.39-0.8s-0.62-1.16-1.36-1.63s-1.24,0.11-1.48-0.62
	c-0.23-0.73-0.66-2.54-0.86-3.23c-0.2-0.69,0.59-0.15,1.83-0.15c1.25,0,4.64-0.18,7.25-0.25s0.04-2.8-0.16-4.72
	c-0.2-1.92,4.84-2,7.29-2.36c2.46-0.36,5.3-0.25,9.9-1.34s1.64-0.91,2.3-2.21c0.66-1.31,1.79-1.53,3.16-1.53s2.62,0.25,2.11,0.43
	s-2.03,0.94,0.35,1.45c2.38,0.51,1.75,0.47,0.51,0.91c-1.25,0.44-0.2,1.23,2.22,1.23s0.97-0.22,0.58-1.02s0.35-0.51,2.34-0.18
	c1.99,0.33,2.77,0.65,3.86,1.67c1.09,1.02,1.29,0.76,1.68,2.18c0.39,1.42-0.04,1.2-1.71,2.5c-1.68,1.31-2.69,1.31-5.11,2.83
	c-2.42,1.52-1.83,2.32-3.16,3.34c-1.33,1.02-0.98,0.73,1.83,0s4.33-1.2,5.77-1.05s2.14,0.69,3.23,0.69s-0.08,0.18,3.36,0.18
	c3.43,0,2.92,0,1.67,0.98s0.24,1.27,1.75,1.27c1.52,0,3.39,0.07,4.8-0.14c1.41-0.22,0.2-1.27,1.87-1.34
	c1.68-0.07,2.22-0.22,4.01-0.22s1.25,0.73,1.87,1.38s1.48,1.09,0.9,2.4c-0.58,1.31-0.9,1.34-0.55,3.12s1.25,2.03,2.34,2.36
	s1.09-1.6,2.15-2.25c1.05-0.65,1.29,1.31,2.5,1.02s2.57-0.15,3.62,0.18s1.95,0.51,3.43,0.18c1.48-0.33,1.01-0.91,0.51-1.81
	c-0.51-0.91-0.54-0.84,0.39-1.78c0.94-0.94,1.56-0.47,4.6,0.33c3.04,0.8,2.07,0.8,3.78,1.27c1.72,0.47,1.17,0.36,3.78,1.56
	s2.11,2.61,3.31,3.38c1.21,0.76,1.29,0,3.7-0.22s2.38,0.29,5.03,0.98s1.95,1.56,1.95,2.33c0,0.76-0.74,1.34,0.9,1.71
	c1.63,0.36,2.3,0.69,3.7,0.33c1.41-0.36,0.16,0.36,3.28,0.4c3.11,0.04,2.07-0.36,3,0.29s1.17,1.96,2.69,1.82
	c1.52-0.15,1.41-0.11,0.78-1.45c-0.62-1.34-1.01-1.56-0.12-1.52s2.73,0.44,6.12,0.98c3.39,0.54,3.51,1.16,6.28,2.91
	c2.77,1.74,3.54,1.89,5.57,3.45c0.77,0.59,0.93,0.77,0.94,0.81c0.05,0,0.27,0.06,1.05,0.42c2.18,1.02,1.79,0.69,3.66,1.6
	c1.87,0.91,3.47,2.18,3.47,2.18S520.47,82.1,519.07,82.25z M337.18,119.15c0,0-0.21,0.28,0.88-0.59c1.09-0.87-0.51-0.04-1.13-0.22
	s-0.82-0.47-0.62-1.27c0.19-0.8-0.08-0.8-0.74-1.85c0,0-0.35-0.22-1.09,0.22s-1.17-0.43-2.07-0.11c-0.89,0.33-1.87,0.18-2.42,1.53
	c-0.54,1.34-1.17,0.47-1.37,1.56c-0.19,1.09-1.87,1.67-1.87,1.67s0.66,0.65,1.17,1.27c0.51,0.62,0.16,0.22,0.66,2.25
	c0.51,2.03,0.86,1.85,1.56,2.14s1.79,0.98,1.79,0.98s-0.66-0.4-0.66,0.69s-1.06,1.85-0.94,3.45s-1.44,3.09-0.19,3.23
	c1.24,0.15,0.86,0.69,2.22,1.05c1.36,0.36,2.14,0.62,4.13,0.62s0.9-0.76,0.62-1.89c-0.27-1.13-0.43-1.85-0.5-3.08
	c-0.08-1.23-0.55-0.91-0.86-1.67s0.16-1.2,1.09-1.2c0.94,0,1.06-0.04,0.55-0.87c-0.51-0.84-0.19-1.16-0.82-1.53
	c-0.62-0.36-0.9,1.2-0.9,1.2s-0.39-0.36-0.23-1.89s0.27-0.8-0.19-1.09c-0.47-0.29-0.74,0.07-1.37-0.94
	c-0.62-1.02-0.08-0.8-0.82-2.03c-0.74-1.23-0.35-0.58,0.47-0.58s0.39-0.18,0-0.58s-0.66-1.02,0.39-0.94
	c1.05,0.07,2.42,0.29,2.92,0.33C337.35,119.02,337.18,119.15,337.18,119.15z M191.73,63.21c-0.36,0.62,0.61,1.42,1.31,1.17
	s0.93,0.03,1.33-0.29c0.4-0.32,0.43-0.79-0.04-1.25c-0.48-0.46-0.28-0.73-0.36-0.78C193.08,61.51,192.09,62.59,191.73,63.21z
	 M384.45,23.18c-1.06,0.04-2.23,0.07-1.25,0.4c0.97,0.33,0.58,1.96,2.45,1.05c1.87-0.91,1.48-0.98,2.77-1.53
	c1.29-0.54,0.54-0.28-1.01-0.69C386.44,22.16,385.5,23.14,384.45,23.18z"/>
<g>
	<g>
		<g>
			<path class="st1" d="M278.41,163.27l-0.13-0.42c-7.43-25.25-28.52-46.49-53.71-54.11c-25.04-7.57-53.27-2.04-73.67,14.43
				l-0.33-0.41c20.53-16.58,48.95-22.15,74.16-14.53c25.22,7.63,46.35,28.81,53.94,54.04c11.79-11.41,28.61-18.57,47.42-20.16
				c17.36-1.47,34.9,3.07,49.41,12.77l-0.3,0.44c-14.4-9.64-31.83-14.14-49.07-12.68c-18.85,1.59-35.69,8.81-47.41,20.31
				L278.41,163.27z"/>
		</g>
		<g>
			<path class="st1" d="M151.68,124.04c-0.61,0.48-1.49,0.37-1.96-0.24c-0.48-0.61-0.37-1.49,0.24-1.96
				c0.61-0.48,1.49-0.37,1.96,0.24S152.28,123.56,151.68,124.04z"/>
		</g>
		<g>
			<path class="st1" d="M374.52,156.29c0.65,0.41,1.52,0.22,1.93-0.44c0.41-0.65,0.22-1.52-0.44-1.93s-1.52-0.22-1.93,0.44
				C373.67,155.01,373.87,155.88,374.52,156.29z"/>
		</g>
	</g>
	<g>
		<g>
			<path class="st1" d="M383.18,133.19c-8.37-24.1-27.15-45.35-51.52-58.31c-22.74-12.09-49.89-17.24-78.53-14.89
				c-39.67,3.25-78.59,21.27-106.77,49.44l-0.38-0.38c28.26-28.25,67.3-46.33,107.1-49.59c28.74-2.36,56,2.81,78.82,14.95
				c24.48,13.02,43.35,34.38,51.77,58.6L383.18,133.19z"/>
		</g>
		<g>
			<path class="st1" d="M147.22,110.21c-0.55,0.54-1.44,0.52-1.98-0.03c-0.54-0.55-0.52-1.44,0.03-1.98s1.44-0.52,1.98,0.03
				C147.79,108.79,147.77,109.67,147.22,110.21z"/>
		</g>
		<g>
			<path class="st1" d="M382.06,133.52c0.26,0.73,1.07,1.1,1.79,0.84c0.73-0.26,1.1-1.07,0.84-1.79c-0.26-0.73-1.07-1.1-1.79-0.84
				C382.18,131.99,381.8,132.79,382.06,133.52z"/>
		</g>
	</g>
	<g>
		<g>
			<path class="st1" d="M181.94,201.33l-0.49-0.2c6.21-15.63,19.16-28.8,34.65-35.24s33.97-6.33,49.44,0.29l-0.21,0.49
				c-15.33-6.57-33.66-6.67-49.02-0.29C200.95,172.77,188.1,185.84,181.94,201.33z"/>
		</g>
		<g>
			<path class="st1" d="M183.04,201.7c-0.29,0.72-1.1,1.06-1.82,0.77s-1.06-1.1-0.77-1.82s1.1-1.06,1.82-0.77
				S183.33,200.99,183.04,201.7z"/>
		</g>
		<g>
			<path class="st1" d="M264.81,167.7c0.71,0.3,1.53-0.03,1.83-0.74s-0.03-1.53-0.74-1.83s-1.53,0.03-1.83,0.74
				C263.76,166.58,264.1,167.4,264.81,167.7z"/>
		</g>
	</g>
	<g>
		<g>
			<path class="st1" d="M256.91,151.94l-0.52-0.09c2.03-12.49,8.17-24.17,17.29-32.9s21.07-14.34,33.63-15.82l0.06,0.53
				c-12.45,1.46-24.29,7.03-33.33,15.68C265.01,127.98,258.92,139.56,256.91,151.94z"/>
		</g>
		<g>
			<path class="st1" d="M258.07,152.08c-0.14,0.76-0.87,1.26-1.63,1.12c-0.76-0.14-1.26-0.87-1.12-1.63
				c0.14-0.76,0.87-1.26,1.63-1.12C257.71,150.59,258.21,151.32,258.07,152.08z"/>
		</g>
		<g>
			<path class="st1" d="M307.47,104.83c0.77-0.11,1.3-0.81,1.2-1.58c-0.1-0.77-0.81-1.3-1.58-1.2c-0.77,0.11-1.3,0.81-1.2,1.58
				C306,104.4,306.7,104.94,307.47,104.83z"/>
		</g>
	</g>
	<g>
		<g>
			<path class="st1" d="M444.12,138.12c-17.47-14.89-39.71-23.41-62.63-24c-22.91-0.59-45.56,6.79-63.77,20.76l-0.32-0.42
				c18.31-14.05,41.08-21.45,64.11-20.87c23.04,0.59,45.4,9.16,62.96,24.12L444.12,138.12z"/>
		</g>
		<g>
			<path class="st1" d="M318.47,135.76c-0.62,0.46-1.49,0.34-1.96-0.28s-0.34-1.49,0.28-1.96c0.62-0.46,1.49-0.34,1.96,0.28
				C319.21,134.42,319.08,135.29,318.47,135.76z"/>
		</g>
		<g>
			<path class="st1" d="M443.32,138.95c0.59,0.5,1.47,0.42,1.97-0.17s0.42-1.47-0.17-1.97c-0.59-0.5-1.47-0.42-1.97,0.17
				C442.65,137.57,442.73,138.46,443.32,138.95z"/>
		</g>
	</g>
	<g>
		<g>
			<path class="st1" d="M450.55,219.75c-18.63-21.51-46.72-34.39-75.13-34.45c-0.06,0-0.13,0-0.2,0
				c-28.34,0-56.39,12.75-75.07,34.13l-0.4-0.35c18.78-21.5,46.98-34.31,75.47-34.31c0.07,0,0.13,0,0.2,0
				c28.56,0.06,56.8,13.01,75.53,34.63L450.55,219.75z"/>
		</g>
		<g>
			<path class="st1" d="M301.06,220.17c-0.52,0.57-1.4,0.62-1.98,0.1c-0.57-0.52-0.62-1.4-0.1-1.98s1.4-0.62,1.98-0.1
				C301.53,218.71,301.58,219.59,301.06,220.17z"/>
		</g>
		<g>
			<path class="st1" d="M449.64,220.48c0.51,0.58,1.4,0.63,1.98,0.11c0.58-0.51,0.63-1.4,0.11-1.98c-0.51-0.58-1.4-0.63-1.98-0.11
				C449.17,219.02,449.12,219.9,449.64,220.48z"/>
		</g>
	</g>
	<g>
		<g>
			<path class="st1" d="M377.16,144.5c-3.96-16.15-16.66-30.01-32.35-35.3c-15.7-5.3-34.2-1.96-47.13,8.49l-0.33-0.41
				c13.07-10.56,31.77-13.93,47.63-8.58c15.86,5.35,28.7,19.36,32.7,35.68L377.16,144.5z"/>
		</g>
		<g>
			<path class="st1" d="M298.46,118.54c-0.6,0.48-1.48,0.38-1.97-0.22c-0.48-0.6-0.38-1.48,0.22-1.97c0.6-0.48,1.48-0.38,1.97,0.22
				C299.16,117.18,299.06,118.06,298.46,118.54z"/>
		</g>
		<g>
			<path class="st1" d="M376.02,144.71c0.19,0.75,0.95,1.2,1.7,1.02c0.75-0.19,1.2-0.95,1.02-1.7c-0.19-0.75-0.95-1.2-1.7-1.02
				C376.29,143.2,375.83,143.96,376.02,144.71z"/>
		</g>
	</g>
	<g>
		<g>
			<path class="st1" d="M390.18,145.67l-0.51-0.16c3.44-11.02,11.06-20.75,20.91-26.7s22.01-8.16,33.37-6.06l-0.1,0.52
				c-11.23-2.08-23.25,0.11-32.99,5.99C401.11,125.15,393.57,134.77,390.18,145.67z"/>
		</g>
		<g>
			<path class="st1" d="M391.32,145.98c-0.24,0.73-1.04,1.13-1.77,0.88c-0.73-0.24-1.13-1.04-0.88-1.77
				c0.24-0.73,1.04-1.13,1.77-0.88C391.16,144.45,391.56,145.25,391.32,145.98z"/>
		</g>
		<g>
			<path class="st1" d="M443.59,114.42c0.76,0.13,1.48-0.39,1.61-1.15c0.13-0.76-0.39-1.48-1.15-1.61
				c-0.76-0.13-1.48,0.39-1.61,1.15C442.31,113.58,442.83,114.3,443.59,114.42z"/>
		</g>
	</g>
	<g>
		<g>
			<path class="st1" d="M128.59,134.08l-0.4-0.35c16.92-19.24,41.18-32.15,66.56-35.42s52.12,3.08,73.36,17.41l-0.3,0.44
				c-21.14-14.26-47.74-20.57-72.99-17.32C169.56,102.09,145.42,114.93,128.59,134.08z"/>
		</g>
		<g>
			<path class="st1" d="M129.49,134.8c-0.52,0.57-1.4,0.62-1.98,0.11c-0.57-0.52-0.62-1.4-0.11-1.98c0.52-0.57,1.4-0.62,1.98-0.11
				C129.96,133.34,130.01,134.23,129.49,134.8z"/>
		</g>
		<g>
			<path class="st1" d="M267.12,117.08c0.65,0.43,1.51,0.25,1.94-0.4s0.25-1.51-0.4-1.94s-1.51-0.25-1.94,0.4
				S266.47,116.66,267.12,117.08z"/>
		</g>
	</g>
	<g>
		<g>
			<path class="st1" d="M130.01,89.76l-0.5-0.18c4.53-12.69,13.82-23.8,25.48-30.48s25.95-9.08,39.18-6.57l-0.1,0.52
				c-13.12-2.49-27.27-0.11-38.82,6.51C143.7,66.18,134.5,77.19,130.01,89.76z"/>
		</g>
		<g>
			<path class="st1" d="M131.13,90.12c-0.28,0.72-1.09,1.08-1.81,0.81c-0.72-0.28-1.08-1.09-0.81-1.81
				c0.28-0.72,1.09-1.08,1.81-0.81C131.05,88.59,131.41,89.4,131.13,90.12z"/>
		</g>
		<g>
			<path class="st1" d="M193.82,54.2c0.76,0.13,1.48-0.39,1.61-1.15c0.13-0.76-0.39-1.48-1.15-1.61s-1.48,0.39-1.61,1.15
				C192.54,53.35,193.05,54.08,193.82,54.2z"/>
		</g>
	</g>
	<g>
		<g>
			<path class="st1" d="M328.23,97.22l-0.38-0.37c16.3-16.54,37.82-28.02,60.6-32.35s47.02-1.52,68.24,7.89l-0.22,0.49
				c-21.12-9.37-45.24-12.16-67.92-7.86C365.88,69.32,344.45,80.76,328.23,97.22z"/>
		</g>
		<g>
			<path class="st1" d="M329.1,98.02c-0.56,0.54-1.44,0.52-1.98-0.04s-0.52-1.44,0.04-1.98s1.44-0.52,1.98,0.04
				C329.67,96.6,329.65,97.49,329.1,98.02z"/>
		</g>
		<g>
			<path class="st1" d="M455.97,73.94c0.71,0.29,1.53-0.05,1.83-0.76c0.29-0.71-0.05-1.53-0.76-1.83c-0.71-0.29-1.53,0.05-1.83,0.76
				C454.92,72.83,455.26,73.65,455.97,73.94z"/>
		</g>
	</g>
	<g>
		<g>
			<path class="st1" d="M399.19,111.97l-0.51-0.14c2.87-10.23,10.76-18.99,20.59-22.88c9.83-3.88,21.59-2.87,30.67,2.63l-0.28,0.45
				c-8.95-5.42-20.52-6.42-30.2-2.59C409.79,93.26,402.02,101.9,399.19,111.97z"/>
		</g>
		<g>
			<path class="st1" d="M400.32,112.2c-0.2,0.75-0.97,1.19-1.72,0.98c-0.75-0.2-1.19-0.97-0.98-1.72s0.97-1.19,1.72-0.98
				C400.08,110.68,400.52,111.45,400.32,112.2z"/>
		</g>
		<g>
			<path class="st1" d="M449,92.97c0.66,0.41,1.52,0.2,1.93-0.45c0.41-0.66,0.2-1.52-0.45-1.93c-0.66-0.41-1.52-0.2-1.93,0.45
				C448.14,91.7,448.34,92.56,449,92.97z"/>
		</g>
	</g>
	<g>
		<g>
			<path class="st1" d="M298.2,80.5c-8.54-13.53-22.97-23.57-38.6-26.86c-15.62-3.28-32.87,0.1-46.14,9.04l-0.3-0.44
				c13.39-9.02,30.79-12.43,46.54-9.12c15.76,3.31,30.32,13.44,38.94,27.1L298.2,80.5z"/>
		</g>
		<g>
			<path class="st1" d="M214.16,63.61c-0.64,0.43-1.51,0.26-1.94-0.39c-0.43-0.64-0.26-1.51,0.39-1.94
				c0.64-0.43,1.51-0.26,1.94,0.39C214.98,62.31,214.81,63.18,214.16,63.61z"/>
		</g>
		<g>
			<path class="st1" d="M297.19,81.06c0.42,0.65,1.28,0.84,1.93,0.43c0.65-0.42,0.84-1.28,0.43-1.93c-0.42-0.65-1.28-0.84-1.93-0.43
				C296.96,79.54,296.77,80.41,297.19,81.06z"/>
		</g>
	</g>
	<g>
		<g>
			<path class="st1" d="M201.34,199.14l-0.44-0.3c5.5-8.23,13.57-14.82,22.71-18.56c9.14-3.74,19.51-4.69,29.21-2.67l-0.11,0.52
				c-9.59-1.99-19.85-1.05-28.9,2.64C214.77,184.48,206.79,191,201.34,199.14z"/>
		</g>
		<g>
			<path class="st1" d="M202.34,199.75c-0.44,0.64-1.31,0.8-1.95,0.36s-0.8-1.31-0.36-1.95s1.31-0.8,1.95-0.36
				S202.78,199.11,202.34,199.75z"/>
		</g>
		<g>
			<path class="st1" d="M252.42,179.27c0.76,0.15,1.49-0.35,1.64-1.11s-0.35-1.49-1.11-1.64s-1.49,0.35-1.64,1.11
				C251.16,178.38,251.66,179.12,252.42,179.27z"/>
		</g>
	</g>
	<g>
		<g>
			<path class="st1" d="M295.7,190.23l-0.44-0.3c8.22-11.88,20.26-20.99,33.91-25.66c13.64-4.67,28.74-4.84,42.52-0.49l-0.16,0.51
				c-13.67-4.32-28.65-4.15-42.18,0.48C315.8,169.4,303.86,178.45,295.7,190.23z"/>
		</g>
		<g>
			<path class="st1" d="M296.69,190.87c-0.45,0.63-1.33,0.76-1.95,0.31c-0.63-0.45-0.77-1.33-0.31-1.95
				c0.45-0.63,1.33-0.76,1.95-0.31C297,189.37,297.14,190.24,296.69,190.87z"/>
		</g>
		<g>
			<path class="st1" d="M371.13,165.4c0.74,0.22,1.52-0.21,1.74-0.95c0.22-0.74-0.21-1.52-0.95-1.74c-0.74-0.22-1.52,0.21-1.74,0.95
				S370.39,165.19,371.13,165.4z"/>
		</g>
	</g>
	<g>
		<g>
			<path class="st1" d="M181.82,180.7l-0.53-0.01c0.42-15.44-6.66-31.16-18.47-41.03s-28.53-14.06-43.65-10.92l-0.11-0.52
				c15.27-3.17,32.17,1.06,44.1,11.03S182.24,165.11,181.82,180.7z"/>
		</g>
		<g>
			<path class="st1" d="M119.47,129.85c-0.76,0.15-1.5-0.33-1.65-1.09s0.33-1.5,1.09-1.65c0.76-0.15,1.5,0.33,1.65,1.09
				C120.71,128.96,120.23,129.7,119.47,129.85z"/>
		</g>
		<g>
			<path class="st1" d="M180.13,180.59c-0.02,0.77,0.59,1.41,1.37,1.43c0.77,0.02,1.41-0.59,1.43-1.37
				c0.02-0.77-0.59-1.41-1.37-1.43C180.79,179.21,180.15,179.82,180.13,180.59z"/>
		</g>
	</g>
	<g>
		<g>
			<path class="st1" d="M257.3,170.52c-8.82-23.95-26.67-44.78-48.97-57.13s-49.42-16.45-74.41-11.22l-0.11-0.52
				c25.11-5.25,52.37-1.14,74.78,11.28s40.35,33.34,49.22,57.41L257.3,170.52z"/>
		</g>
		<g>
			<path class="st1" d="M134.2,103.29c-0.76,0.15-1.49-0.34-1.64-1.1s0.34-1.49,1.1-1.64c0.76-0.15,1.49,0.34,1.64,1.1
				C135.45,102.4,134.96,103.14,134.2,103.29z"/>
		</g>
		<g>
			<path class="st1" d="M256.19,170.87c0.27,0.72,1.08,1.08,1.81,0.81c0.72-0.27,1.08-1.08,0.81-1.81
				c-0.27-0.72-1.08-1.08-1.81-0.81C256.28,169.34,255.92,170.15,256.19,170.87z"/>
		</g>
	</g>
	<g>
		<g>
			<path class="st1" d="M278.71,107.13l-0.35-0.4c15.04-13.47,34.39-21.81,54.49-23.47c20.1-1.67,40.55,3.37,57.61,14.17l-0.28,0.45
				c-16.96-10.75-37.3-15.75-57.28-14.09C312.91,85.45,293.66,93.74,278.71,107.13z"/>
		</g>
		<g>
			<path class="st1" d="M279.52,107.99c-0.59,0.5-1.47,0.43-1.97-0.16c-0.5-0.59-0.43-1.47,0.16-1.97s1.47-0.43,1.97,0.16
				S280.11,107.49,279.52,107.99z"/>
		</g>
		<g>
			<path class="st1" d="M389.51,98.86c0.66,0.4,1.52,0.18,1.92-0.49c0.4-0.66,0.18-1.52-0.49-1.92c-0.66-0.4-1.52-0.18-1.92,0.49
				C388.63,97.61,388.85,98.47,389.51,98.86z"/>
		</g>
	</g>
	<g>
		<g>
			<path class="st1" d="M358.67,132.35l-0.43-0.31c10.92-14.85,29.13-24.13,47.51-24.2c0.07,0,0.14,0,0.22,0
				c18.31,0,36.49,9.11,47.49,23.82l-0.43,0.32c-10.9-14.58-28.92-23.61-47.06-23.61c-0.07,0-0.14,0-0.21,0
				C387.54,108.44,369.5,117.63,358.67,132.35z"/>
		</g>
		<g>
			<path class="st1" d="M454.3,130.93c0.47,0.62,0.35,1.49-0.27,1.96s-1.49,0.35-1.96-0.27c-0.47-0.62-0.35-1.49,0.27-1.96
				C452.95,130.2,453.83,130.32,454.3,130.93z"/>
		</g>
		<g>
			<path class="st1" d="M357.4,131.31c-0.46,0.62-0.34,1.5,0.28,1.96s1.5,0.34,1.96-0.28s0.34-1.5-0.28-1.96
				C358.74,130.57,357.86,130.69,357.4,131.31z"/>
		</g>
	</g>
</g>
</svg>
