<svg xmlns="http://www.w3.org/2000/svg" width="43.639" height="80" viewBox="0 0 43.639 80">
  <path id="Phone" d="M66.89,10.01a5.585,5.585,0,0,1,4.23,3.1,7.84,7.84,0,0,1,.67,3q.06,33.9.02,67.79c0,3.8-2.35,6.1-6.17,6.1H34.16a5.562,5.562,0,0,1-5.77-4.29,7.137,7.137,0,0,1-.19-1.85q-.015-33.855-.02-67.72A5.867,5.867,0,0,1,32.96,10Q49.94,10.015,66.89,10.01ZM31.38,77.9H68.49V22.11H31.38C31.38,40.71,31.38,59.26,31.38,77.9ZM54.7,85.57V82.44H45.22v3.13ZM51.56,15.98a1.638,1.638,0,0,0-1.64-1.56,1.616,1.616,0,0,0-1.52,1.66,1.592,1.592,0,0,0,1.58,1.52A1.638,1.638,0,0,0,51.56,15.98Z" transform="translate(-28.18 -10)" fill="#fff"/>
</svg>
