<?xml version="1.0" encoding="utf-8"?>
<!-- Generator: Adobe Illustrator 24.3.0, SVG Export Plug-In . SVG Version: 6.00 Build 0)  -->
<svg version="1.1" id="Layer_1" xmlns="http://www.w3.org/2000/svg" xmlns:xlink="http://www.w3.org/1999/xlink" x="0px" y="0px"
	 viewBox="0 0 200 200" style="enable-background:new 0 0 200 200;" xml:space="preserve">
<style type="text/css">
	.st0{fill:#4CC2C8;}
</style>
<g>
	<path class="st0" d="M49.86,182.32c-3.31,0-6.63-1.08-9.37-3.29l-21.56-17.38c-1.72-1.39-1.99-3.9-0.6-5.62
		c1.39-1.72,3.91-1.99,5.62-0.6l21.56,17.38c2.81,2.27,6.96,1.98,9.43-0.64l47.97-50.97c1.51-1.61,4.05-1.68,5.65-0.17
		c1.61,1.51,1.69,4.05,0.17,5.65l-47.97,50.97C57.85,180.74,53.87,182.32,49.86,182.32z"/>
	<path class="st0" d="M164.13,184H82.69c-2.21,0-4-1.79-4-4s1.79-4,4-4h81.44c5.75,0,10.43-3.9,10.43-8.69
		c0-4.79-4.68-8.69-10.43-8.69h-25.86c-2.21,0-4-1.79-4-4s1.79-4,4-4h25.86c10.16,0,18.43,7.49,18.43,16.69
		C182.56,176.51,174.29,184,164.13,184z"/>
	<path class="st0" d="M164.12,158.61h-22.79c-2.21,0-4-1.79-4-4s1.79-4,4-4h22.79c5.75,0,10.43-3.9,10.43-8.69
		c0-4.79-4.68-8.69-10.43-8.69h-25.86c-2.21,0-4-1.79-4-4s1.79-4,4-4h25.86c10.16,0,18.43,7.49,18.43,16.69
		C182.55,151.12,174.28,158.61,164.12,158.61z"/>
	<path class="st0" d="M164.12,133.22h-22.79c-2.21,0-4-1.79-4-4s1.79-4,4-4h22.79c5.75,0,10.43-3.9,10.43-8.69
		c0-4.79-4.68-8.69-10.43-8.69h-25.86c-2.21,0-4-1.79-4-4s1.79-4,4-4h25.86c10.16,0,18.43,7.49,18.43,16.69
		C182.55,125.73,174.28,133.22,164.12,133.22z"/>
	<path class="st0" d="M22.33,139.1c-2.21,0-4-1.79-4-4v-26.78c0-12.89,9.75-23.95,22.67-25.73c39.5-5.46,60.47-47.08,64.27-55.37
		c4.03-8.78,14.05-13.23,23.31-10.34c8.83,2.74,14.49,11.4,13.47,20.59c-1.49,13.46-9.15,28.68-13.86,36.98h35.93
		c10.16,0,18.43,7.49,18.43,16.69s-8.27,16.69-18.43,16.69h-22.79c-2.21,0-4-1.79-4-4s1.79-4,4-4h22.79c5.75,0,10.43-3.9,10.43-8.69
		s-4.68-8.69-10.43-8.69h-43c-1.47,0-2.82-0.8-3.52-2.09s-0.64-2.86,0.17-4.09c0.14-0.22,14.42-22.29,16.33-39.67
		c0.6-5.39-2.73-10.46-7.9-12.07c-5.43-1.69-11.3,0.9-13.66,6.04c-4.11,8.95-26.8,53.92-70.45,59.95
		c-9.14,1.26-15.77,8.75-15.77,17.81v26.78C26.33,137.31,24.54,139.1,22.33,139.1z"/>
</g>
</svg>
