<?xml version="1.0" encoding="utf-8"?>
<!-- Generator: Adobe Illustrator 24.3.0, SVG Export Plug-In . SVG Version: 6.00 Build 0)  -->
<svg version="1.1" id="Layer_1" xmlns="http://www.w3.org/2000/svg" xmlns:xlink="http://www.w3.org/1999/xlink" x="0px" y="0px"
	 viewBox="0 0 200 200" style="enable-background:new 0 0 200 200;" xml:space="preserve">
<style type="text/css">
	.st0{fill:#4CC2C8;}
</style>
<g>
	<path class="st0" d="M47.73,156.56c-1.02,0-2.04-0.39-2.82-1.17c-1.56-1.56-1.57-4.09-0.01-5.66l84.62-84.86
		c1.56-1.56,4.09-1.57,5.66-0.01s1.57,4.09,0.01,5.66l-84.62,84.86C49.78,156.17,48.76,156.56,47.73,156.56z"/>
	<path class="st0" d="M136.01,107.07c-0.02,0-0.05,0-0.07,0c-2.21-0.04-3.97-1.86-3.93-4.07l0.6-34.06l-34.04,1.23
		c-2.21,0.07-4.06-1.65-4.14-3.85c-0.08-2.21,1.65-4.06,3.85-4.14l38.26-1.38c1.11-0.04,2.16,0.37,2.95,1.14
		c0.78,0.77,1.22,1.83,1.2,2.92l-0.67,38.28C139.97,105.33,138.19,107.07,136.01,107.07z"/>
	<path class="st0" d="M82.47,182.53H20c-2.21,0-4-1.79-4-4v-62.47c0-2.21,1.79-4,4-4h62.47c2.21,0,4,1.79,4,4v62.47
		C86.47,180.74,84.68,182.53,82.47,182.53z M24,174.53h54.47v-54.47H24V174.53z"/>
	<path class="st0" d="M180,167.79H82.47c-2.21,0-4-1.79-4-4v-43.73h-40.8c-2.21,0-4-1.79-4-4V21.47c0-2.21,1.79-4,4-4H180
		c2.21,0,4,1.79,4,4v142.32C184,166,182.21,167.79,180,167.79z M86.47,159.79H176V25.47H41.67v86.59h40.8c2.21,0,4,1.79,4,4V159.79z
		"/>
</g>
</svg>
