<?xml version="1.0" encoding="utf-8"?>
<!-- Generator: Adobe Illustrator 24.3.0, SVG Export Plug-In . SVG Version: 6.00 Build 0)  -->
<svg version="1.1" id="Layer_1" xmlns="http://www.w3.org/2000/svg" xmlns:xlink="http://www.w3.org/1999/xlink" x="0px" y="0px"
	 viewBox="0 0 200 200" style="enable-background:new 0 0 200 200;" xml:space="preserve">
<style type="text/css">
	.st0{fill:#4CC2C8;}
</style>
<g>
	<path class="st0" d="M72.68,54.73C45.38,54.73,16,48.9,16,36.1s29.38-18.63,56.68-18.63s56.68,5.83,56.68,18.63
		S99.98,54.73,72.68,54.73z M72.68,25.47c-13.72,0-26.57,1.47-36.18,4.14C26.22,32.46,24,35.5,24,36.1s2.22,3.64,12.5,6.49
		c9.61,2.67,22.46,4.14,36.18,4.14s26.57-1.47,36.18-4.14c10.28-2.85,12.5-5.89,12.5-6.49s-2.22-3.64-12.5-6.49
		C99.25,26.94,86.4,25.47,72.68,25.47z"/>
	<path class="st0" d="M72.69,88.87C45.39,88.87,16,83.04,16,70.24c0-2.21,1.79-4,4-4s4,1.79,4,4c0,0.6,2.23,3.64,12.51,6.49
		c9.61,2.67,22.46,4.14,36.18,4.14c13.72,0,26.57-1.47,36.18-4.14c10.28-2.85,12.5-5.89,12.5-6.49c0-2.21,1.79-4,4-4s4,1.79,4,4
		C129.37,83.04,99.99,88.87,72.69,88.87z"/>
	<path class="st0" d="M72.68,120.09c-27.3,0-56.68-5.83-56.68-18.63c0-2.21,1.79-4,4-4s4,1.79,4,4c0,0.6,2.22,3.64,12.5,6.49
		c9.61,2.67,22.46,4.14,36.18,4.14c18.87,0,36.51-2.92,44.94-7.44c1.95-1.05,4.37-0.31,5.42,1.63c1.04,1.95,0.31,4.37-1.63,5.42
		C111.75,116.87,93.08,120.09,72.68,120.09z"/>
	<path class="st0" d="M72.68,151.31c-27.3,0-56.68-5.83-56.68-18.63c0-2.21,1.79-4,4-4s4,1.79,4,4c0,0.6,2.22,3.64,12.5,6.49
		c9.61,2.67,22.46,4.14,36.18,4.14c13.16,0,25.62-1.37,35.08-3.86c2.13-0.56,4.32,0.71,4.89,2.85c0.56,2.14-0.71,4.32-2.85,4.89
		C99.69,149.85,86.51,151.31,72.68,151.31z"/>
	<path class="st0" d="M125.37,94.81c-2.21,0-4-1.79-4-4V36.1c0-2.21,1.79-4,4-4s4,1.79,4,4v54.71
		C129.37,93.02,127.58,94.81,125.37,94.81z"/>
	<path class="st0" d="M72.69,182.54c-27.3,0-56.68-5.83-56.68-18.63V38.37c0-2.21,1.79-4,4-4s4,1.79,4,4v125.54
		c0,0.6,2.22,3.63,12.5,6.49c9.62,2.67,22.46,4.14,36.18,4.14c23,0,39.75-4.1,46.15-8.16c1.86-1.18,4.34-0.63,5.52,1.23
		c1.18,1.87,0.63,4.34-1.23,5.52C113.99,178.94,94.67,182.54,72.69,182.54z"/>
	<path class="st0" d="M144.39,154.24c-7.85,0-14.24-6.39-14.24-14.24s6.39-14.24,14.24-14.24c7.85,0,14.24,6.39,14.24,14.24
		S152.24,154.24,144.39,154.24z M144.39,133.76c-3.44,0-6.24,2.8-6.24,6.24s2.8,6.24,6.24,6.24s6.24-2.8,6.24-6.24
		S147.83,133.76,144.39,133.76z"/>
	<path class="st0" d="M144.39,169.85c-2.21,0-4-1.79-4-4v-15.61c0-2.21,1.79-4,4-4s4,1.79,4,4v15.61
		C148.39,168.06,146.6,169.85,144.39,169.85z"/>
	<path class="st0" d="M144.39,182.53c-9.58,0-18.83-3.47-26.04-9.77c-8.49-7.41-13.44-18.13-13.57-29.4v-26.3c0-2.21,1.79-4,4-4H180
		c2.21,0,4,1.79,4,4v25.85C184,164.76,166.23,182.53,144.39,182.53z M112.78,121.07v22.25c0.1,8.95,4.05,17.5,10.83,23.42
		c5.75,5.03,13.13,7.79,20.78,7.79c17.43,0,31.61-14.18,31.61-31.61v-21.85H112.78z"/>
	<path class="st0" d="M169.27,121.07h-49.76c-2.21,0-4-1.79-4-4v-10.24c0-6.81,2.41-13.42,6.79-18.6
		c5.5-6.53,13.55-10.28,22.08-10.28c15.93,0,28.89,12.96,28.89,28.88v10.24C173.27,119.28,171.48,121.07,169.27,121.07z
		 M123.51,113.07h41.76v-6.24c0-11.51-9.37-20.88-20.89-20.88c-6.16,0-11.98,2.71-15.96,7.44c-3.17,3.75-4.91,8.52-4.91,13.44
		V113.07z"/>
</g>
</svg>
